<?xml version="1.0" encoding="utf-8"?>
<svg version="1.1" xmlns:xlink="http://www.w3.org/1999/xlink" width="12px" height="12px" viewBox="218 224  12 12" xmlns="http://www.w3.org/2000/svg">
  <path d="M 224 224  C 227.36 224  230 226.64  230 230  C 230 233.36  227.36 236  224 236  C 220.64 236  218 233.36  218 230  C 218 226.64  220.64 224  224 224  Z " fill-rule="nonzero" fill="#ffffff" stroke="none" />
  <path d="M 224 224.5  C 227.08 224.5  229.5 226.92  229.5 230  C 229.5 233.08  227.08 235.5  224 235.5  C 220.92 235.5  218.5 233.08  218.5 230  C 218.5 226.92  220.92 224.5  224 224.5  Z " stroke-width="1" stroke="#797979" fill="none" />
  <path d="M 224 233  C 222.32 233  221 231.68  221 230  C 221 228.32  222.32 227  224 227  C 225.68 227  227 228.32  227 230  C 227 231.68  225.68 233  224 233  " fill-rule="nonzero" fill="#797979" stroke="none" />
</svg>