<?xml version="1.0" encoding="utf-8"?>
<svg version="1.1" xmlns:xlink="http://www.w3.org/1999/xlink" width="12px" height="12px" viewBox="318 224  12 12" xmlns="http://www.w3.org/2000/svg">
  <path d="M 324 224  C 327.36 224  330 226.64  330 230  C 330 233.36  327.36 236  324 236  C 320.64 236  318 233.36  318 230  C 318 226.64  320.64 224  324 224  Z " fill-rule="nonzero" fill="#ffffff" stroke="none" />
  <path d="M 324 224.5  C 327.08 224.5  329.5 226.92  329.5 230  C 329.5 233.08  327.08 235.5  324 235.5  C 320.92 235.5  318.5 233.08  318.5 230  C 318.5 226.92  320.92 224.5  324 224.5  Z " stroke-width="1" stroke="#797979" fill="none" />
  <path d="M 324 233  C 322.32 233  321 231.68  321 230  C 321 228.32  322.32 227  324 227  C 325.68 227  327 228.32  327 230  C 327 231.68  325.68 233  324 233  " fill-rule="nonzero" fill="#797979" stroke="none" />
</svg>