<?xml version="1.0" encoding="utf-8"?>
<svg version="1.1" xmlns:xlink="http://www.w3.org/1999/xlink" width="12px" height="12px" viewBox="163 103  12 12" xmlns="http://www.w3.org/2000/svg">
  <path d="M 169 103  C 172.36 103  175 105.64  175 109  C 175 112.36  172.36 115  169 115  C 165.64 115  163 112.36  163 109  C 163 105.64  165.64 103  169 103  Z " fill-rule="nonzero" fill="#ffffff" stroke="none" />
  <path d="M 169 103.5  C 172.08 103.5  174.5 105.92  174.5 109  C 174.5 112.08  172.08 114.5  169 114.5  C 165.92 114.5  163.5 112.08  163.5 109  C 163.5 105.92  165.92 103.5  169 103.5  Z " stroke-width="1" stroke="#797979" fill="none" />
  <path d="M 169 112  C 167.32 112  166 110.68  166 109  C 166 107.32  167.32 106  169 106  C 170.68 106  172 107.32  172 109  C 172 110.68  170.68 112  169 112  " fill-rule="nonzero" fill="#797979" stroke="none" />
</svg>