<?xml version="1.0" encoding="utf-8"?>
<svg version="1.1" xmlns:xlink="http://www.w3.org/1999/xlink" width="12px" height="12px" viewBox="712 451  12 12" xmlns="http://www.w3.org/2000/svg">
  <path d="M 718 451  C 721.36 451  724 453.64  724 457  C 724 460.36  721.36 463  718 463  C 714.64 463  712 460.36  712 457  C 712 453.64  714.64 451  718 451  Z " fill-rule="nonzero" fill="#ffffff" stroke="none" />
  <path d="M 718 451.5  C 721.08 451.5  723.5 453.92  723.5 457  C 723.5 460.08  721.08 462.5  718 462.5  C 714.92 462.5  712.5 460.08  712.5 457  C 712.5 453.92  714.92 451.5  718 451.5  Z " stroke-width="1" stroke="#797979" fill="none" />
  <path d="M 718 460  C 716.32 460  715 458.68  715 457  C 715 455.32  716.32 454  718 454  C 719.68 454  721 455.32  721 457  C 721 458.68  719.68 460  718 460  " fill-rule="nonzero" fill="#797979" stroke="none" />
</svg>