<?xml version="1.0" encoding="utf-8"?>
<svg version="1.1" xmlns:xlink="http://www.w3.org/1999/xlink" width="12px" height="12px" viewBox="706 643  12 12" xmlns="http://www.w3.org/2000/svg">
  <path d="M 712 643  C 715.36 643  718 645.64  718 649  C 718 652.36  715.36 655  712 655  C 708.64 655  706 652.36  706 649  C 706 645.64  708.64 643  712 643  Z " fill-rule="nonzero" fill="#f0f0f0" stroke="none" />
  <path d="M 712 643.5  C 715.08 643.5  717.5 645.92  717.5 649  C 717.5 652.08  715.08 654.5  712 654.5  C 708.92 654.5  706.5 652.08  706.5 649  C 706.5 645.92  708.92 643.5  712 643.5  Z " stroke-width="1" stroke="#797979" fill="none" />
  <path d="M 712 652  C 710.32 652  709 650.68  709 649  C 709 647.32  710.32 646  712 646  C 713.68 646  715 647.32  715 649  C 715 650.68  713.68 652  712 652  " fill-rule="nonzero" fill="#797979" stroke="none" />
</svg>