<?xml version="1.0" encoding="utf-8"?>
<svg version="1.1" xmlns:xlink="http://www.w3.org/1999/xlink" width="12px" height="12px" viewBox="481 303  12 12" xmlns="http://www.w3.org/2000/svg">
  <path d="M 487 303  C 490.36 303  493 305.64  493 309  C 493 312.36  490.36 315  487 315  C 483.64 315  481 312.36  481 309  C 481 305.64  483.64 303  487 303  Z " fill-rule="nonzero" fill="#ffffff" stroke="none" />
  <path d="M 487 303.5  C 490.08 303.5  492.5 305.92  492.5 309  C 492.5 312.08  490.08 314.5  487 314.5  C 483.92 314.5  481.5 312.08  481.5 309  C 481.5 305.92  483.92 303.5  487 303.5  Z " stroke-width="1" stroke="#797979" fill="none" />
  <path d="M 487 312  C 485.32 312  484 310.68  484 309  C 484 307.32  485.32 306  487 306  C 488.68 306  490 307.32  490 309  C 490 310.68  488.68 312  487 312  " fill-rule="nonzero" fill="#797979" stroke="none" />
</svg>