<?xml version="1.0" encoding="utf-8"?>
<svg version="1.1" xmlns:xlink="http://www.w3.org/1999/xlink" width="12px" height="12px" viewBox="289 258  12 12" xmlns="http://www.w3.org/2000/svg">
  <path d="M 295 258  C 298.36 258  301 260.64  301 264  C 301 267.36  298.36 270  295 270  C 291.64 270  289 267.36  289 264  C 289 260.64  291.64 258  295 258  Z " fill-rule="nonzero" fill="#f0f0f0" stroke="none" />
  <path d="M 295 258.5  C 298.08 258.5  300.5 260.92  300.5 264  C 300.5 267.08  298.08 269.5  295 269.5  C 291.92 269.5  289.5 267.08  289.5 264  C 289.5 260.92  291.92 258.5  295 258.5  Z " stroke-width="1" stroke="#797979" fill="none" />
  <path d="M 295 267  C 293.32 267  292 265.68  292 264  C 292 262.32  293.32 261  295 261  C 296.68 261  298 262.32  298 264  C 298 265.68  296.68 267  295 267  " fill-rule="nonzero" fill="#797979" stroke="none" />
</svg>