<?xml version="1.0" encoding="utf-8"?>
<svg version="1.1" xmlns:xlink="http://www.w3.org/1999/xlink" width="12px" height="12px" viewBox="125 265  12 12" xmlns="http://www.w3.org/2000/svg">
  <path d="M 131 265  C 134.36 265  137 267.64  137 271  C 137 274.36  134.36 277  131 277  C 127.64 277  125 274.36  125 271  C 125 267.64  127.64 265  131 265  Z " fill-rule="nonzero" fill="#f0f0f0" stroke="none" />
  <path d="M 131 265.5  C 134.08 265.5  136.5 267.92  136.5 271  C 136.5 274.08  134.08 276.5  131 276.5  C 127.92 276.5  125.5 274.08  125.5 271  C 125.5 267.92  127.92 265.5  131 265.5  Z " stroke-width="1" stroke="#797979" fill="none" />
  <path d="M 131 274  C 129.32 274  128 272.68  128 271  C 128 269.32  129.32 268  131 268  C 132.68 268  134 269.32  134 271  C 134 272.68  132.68 274  131 274  " fill-rule="nonzero" fill="#797979" stroke="none" />
</svg>