<?xml version="1.0" encoding="utf-8"?>
<svg version="1.1" xmlns:xlink="http://www.w3.org/1999/xlink" width="12px" height="12px" viewBox="368 265  12 12" xmlns="http://www.w3.org/2000/svg">
  <path d="M 374 265  C 377.36 265  380 267.64  380 271  C 380 274.36  377.36 277  374 277  C 370.64 277  368 274.36  368 271  C 368 267.64  370.64 265  374 265  Z " fill-rule="nonzero" fill="#ffffff" stroke="none" />
  <path d="M 374 265.5  C 377.08 265.5  379.5 267.92  379.5 271  C 379.5 274.08  377.08 276.5  374 276.5  C 370.92 276.5  368.5 274.08  368.5 271  C 368.5 267.92  370.92 265.5  374 265.5  Z " stroke-width="1" stroke="#797979" fill="none" />
  <path d="M 374 274  C 372.32 274  371 272.68  371 271  C 371 269.32  372.32 268  374 268  C 375.68 268  377 269.32  377 271  C 377 272.68  375.68 274  374 274  " fill-rule="nonzero" fill="#797979" stroke="none" />
</svg>