<?xml version="1.0" encoding="utf-8"?>
<svg version="1.1" xmlns:xlink="http://www.w3.org/1999/xlink" width="12px" height="12px" viewBox="258 1021  12 12" xmlns="http://www.w3.org/2000/svg">
  <path d="M 264 1021  C 267.36 1021  270 1023.64  270 1027  C 270 1030.36  267.36 1033  264 1033  C 260.64 1033  258 1030.36  258 1027  C 258 1023.64  260.64 1021  264 1021  Z " fill-rule="nonzero" fill="#f0f0f0" stroke="none" />
  <path d="M 264 1021.5  C 267.08 1021.5  269.5 1023.92  269.5 1027  C 269.5 1030.08  267.08 1032.5  264 1032.5  C 260.92 1032.5  258.5 1030.08  258.5 1027  C 258.5 1023.92  260.92 1021.5  264 1021.5  Z " stroke-width="1" stroke="#797979" fill="none" />
  <path d="M 264 1030  C 262.32 1030  261 1028.68  261 1027  C 261 1025.32  262.32 1024  264 1024  C 265.68 1024  267 1025.32  267 1027  C 267 1028.68  265.68 1030  264 1030  " fill-rule="nonzero" fill="#797979" stroke="none" />
</svg>