<?xml version="1.0" encoding="utf-8"?>
<svg version="1.1" xmlns:xlink="http://www.w3.org/1999/xlink" width="12px" height="12px" viewBox="179 1021  12 12" xmlns="http://www.w3.org/2000/svg">
  <path d="M 185 1021  C 188.36 1021  191 1023.64  191 1027  C 191 1030.36  188.36 1033  185 1033  C 181.64 1033  179 1030.36  179 1027  C 179 1023.64  181.64 1021  185 1021  Z " fill-rule="nonzero" fill="#ffffff" stroke="none" />
  <path d="M 185 1021.5  C 188.08 1021.5  190.5 1023.92  190.5 1027  C 190.5 1030.08  188.08 1032.5  185 1032.5  C 181.92 1032.5  179.5 1030.08  179.5 1027  C 179.5 1023.92  181.92 1021.5  185 1021.5  Z " stroke-width="1" stroke="#797979" fill="none" />
  <path d="M 185 1030  C 183.32 1030  182 1028.68  182 1027  C 182 1025.32  183.32 1024  185 1024  C 186.68 1024  188 1025.32  188 1027  C 188 1028.68  186.68 1030  185 1030  " fill-rule="nonzero" fill="#797979" stroke="none" />
</svg>