<?xml version="1.0" encoding="utf-8"?>
<svg version="1.1" xmlns:xlink="http://www.w3.org/1999/xlink" width="12px" height="12px" viewBox="336 5247  12 12" xmlns="http://www.w3.org/2000/svg">
  <path d="M 342 5247  C 345.36 5247  348 5249.64  348 5253  C 348 5256.36  345.36 5259  342 5259  C 338.64 5259  336 5256.36  336 5253  C 336 5249.64  338.64 5247  342 5247  Z " fill-rule="nonzero" fill="#ffffff" stroke="none" />
  <path d="M 342 5247.5  C 345.08 5247.5  347.5 5249.92  347.5 5253  C 347.5 5256.08  345.08 5258.5  342 5258.5  C 338.92 5258.5  336.5 5256.08  336.5 5253  C 336.5 5249.92  338.92 5247.5  342 5247.5  Z " stroke-width="1" stroke="#797979" fill="none" />
  <path d="M 342 5256  C 340.32 5256  339 5254.68  339 5253  C 339 5251.32  340.32 5250  342 5250  C 343.68 5250  345 5251.32  345 5253  C 345 5254.68  343.68 5256  342 5256  " fill-rule="nonzero" fill="#797979" stroke="none" />
</svg>