<?xml version="1.0" encoding="utf-8"?>
<svg version="1.1" xmlns:xlink="http://www.w3.org/1999/xlink" width="12px" height="12px" viewBox="414 5247  12 12" xmlns="http://www.w3.org/2000/svg">
  <path d="M 420 5247  C 423.36 5247  426 5249.64  426 5253  C 426 5256.36  423.36 5259  420 5259  C 416.64 5259  414 5256.36  414 5253  C 414 5249.64  416.64 5247  420 5247  Z " fill-rule="nonzero" fill="#f0f0f0" stroke="none" />
  <path d="M 420 5247.5  C 423.08 5247.5  425.5 5249.92  425.5 5253  C 425.5 5256.08  423.08 5258.5  420 5258.5  C 416.92 5258.5  414.5 5256.08  414.5 5253  C 414.5 5249.92  416.92 5247.5  420 5247.5  Z " stroke-width="1" stroke="#797979" fill="none" />
  <path d="M 420 5256  C 418.32 5256  417 5254.68  417 5253  C 417 5251.32  418.32 5250  420 5250  C 421.68 5250  423 5251.32  423 5253  C 423 5254.68  421.68 5256  420 5256  " fill-rule="nonzero" fill="#797979" stroke="none" />
</svg>