<?xml version="1.0" encoding="utf-8"?>
<svg version="1.1" xmlns:xlink="http://www.w3.org/1999/xlink" width="33px" height="33px" xmlns="http://www.w3.org/2000/svg">
  <g transform="matrix(1 0 0 1 -807 -6138 )">
    <path d="M 823.5 6138  C 832.74 6138  840 6145.26  840 6154.5  C 840 6163.74  832.74 6171  823.5 6171  C 814.26 6171  807 6163.74  807 6154.5  C 807 6145.26  814.26 6138  823.5 6138  Z " fill-rule="nonzero" fill="#ffffff" stroke="none" />
    <path d="M 823.5 6138.5  C 832.46 6138.5  839.5 6145.54  839.5 6154.5  C 839.5 6163.46  832.46 6170.5  823.5 6170.5  C 814.54 6170.5  807.5 6163.46  807.5 6154.5  C 807.5 6145.54  814.54 6138.5  823.5 6138.5  Z " stroke-width="1" stroke="#797979" fill="none" />
  </g>
</svg>