<?xml version="1.0" encoding="utf-8"?>
<svg version="1.1" xmlns:xlink="http://www.w3.org/1999/xlink" width="12px" height="12px" viewBox="414 4059  12 12" xmlns="http://www.w3.org/2000/svg">
  <path d="M 420 4059  C 423.36 4059  426 4061.64  426 4065  C 426 4068.36  423.36 4071  420 4071  C 416.64 4071  414 4068.36  414 4065  C 414 4061.64  416.64 4059  420 4059  Z " fill-rule="nonzero" fill="#f0f0f0" stroke="none" />
  <path d="M 420 4059.5  C 423.08 4059.5  425.5 4061.92  425.5 4065  C 425.5 4068.08  423.08 4070.5  420 4070.5  C 416.92 4070.5  414.5 4068.08  414.5 4065  C 414.5 4061.92  416.92 4059.5  420 4059.5  Z " stroke-width="1" stroke="#797979" fill="none" />
  <path d="M 420 4068  C 418.32 4068  417 4066.68  417 4065  C 417 4063.32  418.32 4062  420 4062  C 421.68 4062  423 4063.32  423 4065  C 423 4066.68  421.68 4068  420 4068  " fill-rule="nonzero" fill="#797979" stroke="none" />
</svg>