<?xml version="1.0" encoding="utf-8"?>
<svg version="1.1" xmlns:xlink="http://www.w3.org/1999/xlink" width="12px" height="12px" viewBox="336 4059  12 12" xmlns="http://www.w3.org/2000/svg">
  <path d="M 342 4059  C 345.36 4059  348 4061.64  348 4065  C 348 4068.36  345.36 4071  342 4071  C 338.64 4071  336 4068.36  336 4065  C 336 4061.64  338.64 4059  342 4059  Z " fill-rule="nonzero" fill="#f0f0f0" stroke="none" />
  <path d="M 342 4059.5  C 345.08 4059.5  347.5 4061.92  347.5 4065  C 347.5 4068.08  345.08 4070.5  342 4070.5  C 338.92 4070.5  336.5 4068.08  336.5 4065  C 336.5 4061.92  338.92 4059.5  342 4059.5  Z " stroke-width="1" stroke="#797979" fill="none" />
  <path d="M 342 4068  C 340.32 4068  339 4066.68  339 4065  C 339 4063.32  340.32 4062  342 4062  C 343.68 4062  345 4063.32  345 4065  C 345 4066.68  343.68 4068  342 4068  " fill-rule="nonzero" fill="#797979" stroke="none" />
</svg>