<?xml version="1.0" encoding="utf-8"?>
<svg version="1.1" xmlns:xlink="http://www.w3.org/1999/xlink" width="12px" height="12px" viewBox="44 293  12 12" xmlns="http://www.w3.org/2000/svg">
  <path d="M 50 293  C 53.36 293  56 295.64  56 299  C 56 302.36  53.36 305  50 305  C 46.64 305  44 302.36  44 299  C 44 295.64  46.64 293  50 293  Z " fill-rule="nonzero" fill="#f0f0f0" stroke="none" />
  <path d="M 50 293.5  C 53.08 293.5  55.5 295.92  55.5 299  C 55.5 302.08  53.08 304.5  50 304.5  C 46.92 304.5  44.5 302.08  44.5 299  C 44.5 295.92  46.92 293.5  50 293.5  Z " stroke-width="1" stroke="#797979" fill="none" />
  <path d="M 50 302  C 48.32 302  47 300.68  47 299  C 47 297.32  48.32 296  50 296  C 51.68 296  53 297.32  53 299  C 53 300.68  51.68 302  50 302  " fill-rule="nonzero" fill="#797979" stroke="none" />
</svg>