<?xml version="1.0" encoding="utf-8"?>
<svg version="1.1" xmlns:xlink="http://www.w3.org/1999/xlink" width="12px" height="12px" viewBox="167 1019  12 12" xmlns="http://www.w3.org/2000/svg">
  <path d="M 173 1019  C 176.36 1019  179 1021.64  179 1025  C 179 1028.36  176.36 1031  173 1031  C 169.64 1031  167 1028.36  167 1025  C 167 1021.64  169.64 1019  173 1019  Z " fill-rule="nonzero" fill="#ffffff" stroke="none" />
  <path d="M 173 1019.5  C 176.08 1019.5  178.5 1021.92  178.5 1025  C 178.5 1028.08  176.08 1030.5  173 1030.5  C 169.92 1030.5  167.5 1028.08  167.5 1025  C 167.5 1021.92  169.92 1019.5  173 1019.5  Z " stroke-width="1" stroke="#797979" fill="none" />
  <path d="M 173 1028  C 171.32 1028  170 1026.68  170 1025  C 170 1023.32  171.32 1022  173 1022  C 174.68 1022  176 1023.32  176 1025  C 176 1026.68  174.68 1028  173 1028  " fill-rule="nonzero" fill="#797979" stroke="none" />
</svg>