<?xml version="1.0" encoding="utf-8"?>
<svg version="1.1" xmlns:xlink="http://www.w3.org/1999/xlink" width="12px" height="12px" viewBox="246 1019  12 12" xmlns="http://www.w3.org/2000/svg">
  <path d="M 252 1019  C 255.36 1019  258 1021.64  258 1025  C 258 1028.36  255.36 1031  252 1031  C 248.64 1031  246 1028.36  246 1025  C 246 1021.64  248.64 1019  252 1019  Z " fill-rule="nonzero" fill="#ffffff" stroke="none" />
  <path d="M 252 1019.5  C 255.08 1019.5  257.5 1021.92  257.5 1025  C 257.5 1028.08  255.08 1030.5  252 1030.5  C 248.92 1030.5  246.5 1028.08  246.5 1025  C 246.5 1021.92  248.92 1019.5  252 1019.5  Z " stroke-width="1" stroke="#797979" fill="none" />
  <path d="M 252 1028  C 250.32 1028  249 1026.68  249 1025  C 249 1023.32  250.32 1022  252 1022  C 253.68 1022  255 1023.32  255 1025  C 255 1026.68  253.68 1028  252 1028  " fill-rule="nonzero" fill="#797979" stroke="none" />
</svg>