<?xml version="1.0" encoding="utf-8"?>
<svg version="1.1" xmlns:xlink="http://www.w3.org/1999/xlink" width="12px" height="12px" viewBox="170 592  12 12" xmlns="http://www.w3.org/2000/svg">
  <path d="M 176 592  C 179.36 592  182 594.64  182 598  C 182 601.36  179.36 604  176 604  C 172.64 604  170 601.36  170 598  C 170 594.64  172.64 592  176 592  Z " fill-rule="nonzero" fill="#ffffff" stroke="none" />
  <path d="M 176 592.5  C 179.08 592.5  181.5 594.92  181.5 598  C 181.5 601.08  179.08 603.5  176 603.5  C 172.92 603.5  170.5 601.08  170.5 598  C 170.5 594.92  172.92 592.5  176 592.5  Z " stroke-width="1" stroke="#797979" fill="none" />
  <path d="M 176 601  C 174.32 601  173 599.68  173 598  C 173 596.32  174.32 595  176 595  C 177.68 595  179 596.32  179 598  C 179 599.68  177.68 601  176 601  " fill-rule="nonzero" fill="#797979" stroke="none" />
</svg>