<?xml version="1.0" encoding="utf-8"?>
<svg version="1.1" xmlns:xlink="http://www.w3.org/1999/xlink" width="12px" height="12px" viewBox="265 194  12 12" xmlns="http://www.w3.org/2000/svg">
  <path d="M 271 194  C 274.36 194  277 196.64  277 200  C 277 203.36  274.36 206  271 206  C 267.64 206  265 203.36  265 200  C 265 196.64  267.64 194  271 194  Z " fill-rule="nonzero" fill="#ffffff" stroke="none" />
  <path d="M 271 194.5  C 274.08 194.5  276.5 196.92  276.5 200  C 276.5 203.08  274.08 205.5  271 205.5  C 267.92 205.5  265.5 203.08  265.5 200  C 265.5 196.92  267.92 194.5  271 194.5  Z " stroke-width="1" stroke="#797979" fill="none" />
  <path d="M 271 203  C 269.32 203  268 201.68  268 200  C 268 198.32  269.32 197  271 197  C 272.68 197  274 198.32  274 200  C 274 201.68  272.68 203  271 203  " fill-rule="nonzero" fill="#797979" stroke="none" />
</svg>