<?xml version="1.0" encoding="utf-8"?>
<svg version="1.1" xmlns:xlink="http://www.w3.org/1999/xlink" width="12px" height="12px" viewBox="270 592  12 12" xmlns="http://www.w3.org/2000/svg">
  <path d="M 276 592  C 279.36 592  282 594.64  282 598  C 282 601.36  279.36 604  276 604  C 272.64 604  270 601.36  270 598  C 270 594.64  272.64 592  276 592  Z " fill-rule="nonzero" fill="#ffffff" stroke="none" />
  <path d="M 276 592.5  C 279.08 592.5  281.5 594.92  281.5 598  C 281.5 601.08  279.08 603.5  276 603.5  C 272.92 603.5  270.5 601.08  270.5 598  C 270.5 594.92  272.92 592.5  276 592.5  Z " stroke-width="1" stroke="#797979" fill="none" />
  <path d="M 276 601  C 274.32 601  273 599.68  273 598  C 273 596.32  274.32 595  276 595  C 277.68 595  279 596.32  279 598  C 279 599.68  277.68 601  276 601  " fill-rule="nonzero" fill="#797979" stroke="none" />
</svg>