<?xml version="1.0" encoding="utf-8"?>
<svg version="1.1" xmlns:xlink="http://www.w3.org/1999/xlink" width="12px" height="12px" viewBox="365 194  12 12" xmlns="http://www.w3.org/2000/svg">
  <path d="M 371 194  C 374.36 194  377 196.64  377 200  C 377 203.36  374.36 206  371 206  C 367.64 206  365 203.36  365 200  C 365 196.64  367.64 194  371 194  Z " fill-rule="nonzero" fill="#ffffff" stroke="none" />
  <path d="M 371 194.5  C 374.08 194.5  376.5 196.92  376.5 200  C 376.5 203.08  374.08 205.5  371 205.5  C 367.92 205.5  365.5 203.08  365.5 200  C 365.5 196.92  367.92 194.5  371 194.5  Z " stroke-width="1" stroke="#797979" fill="none" />
  <path d="M 371 203  C 369.32 203  368 201.68  368 200  C 368 198.32  369.32 197  371 197  C 372.68 197  374 198.32  374 200  C 374 201.68  372.68 203  371 203  " fill-rule="nonzero" fill="#797979" stroke="none" />
</svg>