<?xml version="1.0" encoding="utf-8"?>
<svg version="1.1" xmlns:xlink="http://www.w3.org/1999/xlink" width="12px" height="12px" viewBox="268 726  12 12" xmlns="http://www.w3.org/2000/svg">
  <path d="M 274 726  C 277.36 726  280 728.64  280 732  C 280 735.36  277.36 738  274 738  C 270.64 738  268 735.36  268 732  C 268 728.64  270.64 726  274 726  Z " fill-rule="nonzero" fill="#ffffff" stroke="none" />
  <path d="M 274 726.5  C 277.08 726.5  279.5 728.92  279.5 732  C 279.5 735.08  277.08 737.5  274 737.5  C 270.92 737.5  268.5 735.08  268.5 732  C 268.5 728.92  270.92 726.5  274 726.5  Z " stroke-width="1" stroke="#797979" fill="none" />
  <path d="M 274 735  C 272.32 735  271 733.68  271 732  C 271 730.32  272.32 729  274 729  C 275.68 729  277 730.32  277 732  C 277 733.68  275.68 735  274 735  " fill-rule="nonzero" fill="#797979" stroke="none" />
</svg>