<?xml version="1.0" encoding="utf-8"?>
<svg version="1.1" xmlns:xlink="http://www.w3.org/1999/xlink" width="12px" height="12px" viewBox="175 726  12 12" xmlns="http://www.w3.org/2000/svg">
  <path d="M 181 726  C 184.36 726  187 728.64  187 732  C 187 735.36  184.36 738  181 738  C 177.64 738  175 735.36  175 732  C 175 728.64  177.64 726  181 726  Z " fill-rule="nonzero" fill="#f0f0f0" stroke="none" />
  <path d="M 181 726.5  C 184.08 726.5  186.5 728.92  186.5 732  C 186.5 735.08  184.08 737.5  181 737.5  C 177.92 737.5  175.5 735.08  175.5 732  C 175.5 728.92  177.92 726.5  181 726.5  Z " stroke-width="1" stroke="#797979" fill="none" />
  <path d="M 181 735  C 179.32 735  178 733.68  178 732  C 178 730.32  179.32 729  181 729  C 182.68 729  184 730.32  184 732  C 184 733.68  182.68 735  181 735  " fill-rule="nonzero" fill="#797979" stroke="none" />
</svg>