<?xml version="1.0" encoding="utf-8"?>
<svg version="1.1" xmlns:xlink="http://www.w3.org/1999/xlink" width="12px" height="12px" viewBox="400 726  12 12" xmlns="http://www.w3.org/2000/svg">
  <path d="M 406 726  C 409.36 726  412 728.64  412 732  C 412 735.36  409.36 738  406 738  C 402.64 738  400 735.36  400 732  C 400 728.64  402.64 726  406 726  Z " fill-rule="nonzero" fill="#f0f0f0" stroke="none" />
  <path d="M 406 726.5  C 409.08 726.5  411.5 728.92  411.5 732  C 411.5 735.08  409.08 737.5  406 737.5  C 402.92 737.5  400.5 735.08  400.5 732  C 400.5 728.92  402.92 726.5  406 726.5  Z " stroke-width="1" stroke="#797979" fill="none" />
  <path d="M 406 735  C 404.32 735  403 733.68  403 732  C 403 730.32  404.32 729  406 729  C 407.68 729  409 730.32  409 732  C 409 733.68  407.68 735  406 735  " fill-rule="nonzero" fill="#797979" stroke="none" />
</svg>