<?xml version="1.0" encoding="utf-8"?>
<svg version="1.1" xmlns:xlink="http://www.w3.org/1999/xlink" width="12px" height="12px" viewBox="254 677  12 12" xmlns="http://www.w3.org/2000/svg">
  <path d="M 260 677  C 263.36 677  266 679.64  266 683  C 266 686.36  263.36 689  260 689  C 256.64 689  254 686.36  254 683  C 254 679.64  256.64 677  260 677  Z " fill-rule="nonzero" fill="#ffffff" stroke="none" />
  <path d="M 260 677.5  C 263.08 677.5  265.5 679.92  265.5 683  C 265.5 686.08  263.08 688.5  260 688.5  C 256.92 688.5  254.5 686.08  254.5 683  C 254.5 679.92  256.92 677.5  260 677.5  Z " stroke-width="1" stroke="#797979" fill="none" />
  <path d="M 260 686  C 258.32 686  257 684.68  257 683  C 257 681.32  258.32 680  260 680  C 261.68 680  263 681.32  263 683  C 263 684.68  261.68 686  260 686  " fill-rule="nonzero" fill="#797979" stroke="none" />
</svg>