<?xml version="1.0" encoding="utf-8"?>
<svg version="1.1" xmlns:xlink="http://www.w3.org/1999/xlink" width="12px" height="12px" viewBox="346 677  12 12" xmlns="http://www.w3.org/2000/svg">
  <path d="M 352 677  C 355.36 677  358 679.64  358 683  C 358 686.36  355.36 689  352 689  C 348.64 689  346 686.36  346 683  C 346 679.64  348.64 677  352 677  Z " fill-rule="nonzero" fill="#ffffff" stroke="none" />
  <path d="M 352 677.5  C 355.08 677.5  357.5 679.92  357.5 683  C 357.5 686.08  355.08 688.5  352 688.5  C 348.92 688.5  346.5 686.08  346.5 683  C 346.5 679.92  348.92 677.5  352 677.5  Z " stroke-width="1" stroke="#797979" fill="none" />
  <path d="M 352 686  C 350.32 686  349 684.68  349 683  C 349 681.32  350.32 680  352 680  C 353.68 680  355 681.32  355 683  C 355 684.68  353.68 686  352 686  " fill-rule="nonzero" fill="#797979" stroke="none" />
</svg>