<?xml version="1.0" encoding="utf-8"?>
<svg version="1.1" xmlns:xlink="http://www.w3.org/1999/xlink" width="12px" height="12px" viewBox="863 224  12 12" xmlns="http://www.w3.org/2000/svg">
  <path d="M 869 224  C 872.36 224  875 226.64  875 230  C 875 233.36  872.36 236  869 236  C 865.64 236  863 233.36  863 230  C 863 226.64  865.64 224  869 224  Z " fill-rule="nonzero" fill="#ffffff" stroke="none" />
  <path d="M 869 224.5  C 872.08 224.5  874.5 226.92  874.5 230  C 874.5 233.08  872.08 235.5  869 235.5  C 865.92 235.5  863.5 233.08  863.5 230  C 863.5 226.92  865.92 224.5  869 224.5  Z " stroke-width="1" stroke="#797979" fill="none" />
  <path d="M 869 233  C 867.32 233  866 231.68  866 230  C 866 228.32  867.32 227  869 227  C 870.68 227  872 228.32  872 230  C 872 231.68  870.68 233  869 233  " fill-rule="nonzero" fill="#797979" stroke="none" />
</svg>