<?xml version="1.0" encoding="utf-8"?>
<svg version="1.1" xmlns:xlink="http://www.w3.org/1999/xlink" width="12px" height="12px" viewBox="469 192  12 12" xmlns="http://www.w3.org/2000/svg">
  <path d="M 475 192  C 478.36 192  481 194.64  481 198  C 481 201.36  478.36 204  475 204  C 471.64 204  469 201.36  469 198  C 469 194.64  471.64 192  475 192  Z " fill-rule="nonzero" fill="#f0f0f0" stroke="none" />
  <path d="M 475 192.5  C 478.08 192.5  480.5 194.92  480.5 198  C 480.5 201.08  478.08 203.5  475 203.5  C 471.92 203.5  469.5 201.08  469.5 198  C 469.5 194.92  471.92 192.5  475 192.5  Z " stroke-width="1" stroke="#797979" fill="none" />
  <path d="M 475 201  C 473.32 201  472 199.68  472 198  C 472 196.32  473.32 195  475 195  C 476.68 195  478 196.32  478 198  C 478 199.68  476.68 201  475 201  " fill-rule="nonzero" fill="#797979" stroke="none" />
</svg>