<?xml version="1.0" encoding="utf-8"?>
<svg version="1.1" xmlns:xlink="http://www.w3.org/1999/xlink" width="12px" height="12px" viewBox="968 224  12 12" xmlns="http://www.w3.org/2000/svg">
  <path d="M 974 224  C 977.36 224  980 226.64  980 230  C 980 233.36  977.36 236  974 236  C 970.64 236  968 233.36  968 230  C 968 226.64  970.64 224  974 224  Z " fill-rule="nonzero" fill="#f0f0f0" stroke="none" />
  <path d="M 974 224.5  C 977.08 224.5  979.5 226.92  979.5 230  C 979.5 233.08  977.08 235.5  974 235.5  C 970.92 235.5  968.5 233.08  968.5 230  C 968.5 226.92  970.92 224.5  974 224.5  Z " stroke-width="1" stroke="#797979" fill="none" />
  <path d="M 974 233  C 972.32 233  971 231.68  971 230  C 971 228.32  972.32 227  974 227  C 975.68 227  977 228.32  977 230  C 977 231.68  975.68 233  974 233  " fill-rule="nonzero" fill="#797979" stroke="none" />
</svg>