<?xml version="1.0" encoding="utf-8"?>
<svg version="1.1" xmlns:xlink="http://www.w3.org/1999/xlink" width="12px" height="12px" viewBox="947 501  12 12" xmlns="http://www.w3.org/2000/svg">
  <path d="M 953 501  C 956.36 501  959 503.64  959 507  C 959 510.36  956.36 513  953 513  C 949.64 513  947 510.36  947 507  C 947 503.64  949.64 501  953 501  Z " fill-rule="nonzero" fill="#f0f0f0" stroke="none" />
  <path d="M 953 501.5  C 956.08 501.5  958.5 503.92  958.5 507  C 958.5 510.08  956.08 512.5  953 512.5  C 949.92 512.5  947.5 510.08  947.5 507  C 947.5 503.92  949.92 501.5  953 501.5  Z " stroke-width="1" stroke="#797979" fill="none" />
  <path d="M 953 510  C 951.32 510  950 508.68  950 507  C 950 505.32  951.32 504  953 504  C 954.68 504  956 505.32  956 507  C 956 508.68  954.68 510  953 510  " fill-rule="nonzero" fill="#797979" stroke="none" />
</svg>