<?xml version="1.0" encoding="utf-8"?>
<svg version="1.1" xmlns:xlink="http://www.w3.org/1999/xlink" width="12px" height="12px" viewBox="257 501  12 12" xmlns="http://www.w3.org/2000/svg">
  <path d="M 263 501  C 266.36 501  269 503.64  269 507  C 269 510.36  266.36 513  263 513  C 259.64 513  257 510.36  257 507  C 257 503.64  259.64 501  263 501  Z " fill-rule="nonzero" fill="#ffffff" stroke="none" />
  <path d="M 263 501.5  C 266.08 501.5  268.5 503.92  268.5 507  C 268.5 510.08  266.08 512.5  263 512.5  C 259.92 512.5  257.5 510.08  257.5 507  C 257.5 503.92  259.92 501.5  263 501.5  Z " stroke-width="1" stroke="#797979" fill="none" />
  <path d="M 263 510  C 261.32 510  260 508.68  260 507  C 260 505.32  261.32 504  263 504  C 264.68 504  266 505.32  266 507  C 266 508.68  264.68 510  263 510  " fill-rule="nonzero" fill="#797979" stroke="none" />
</svg>