<?xml version="1.0" encoding="utf-8"?>
<svg version="1.1" xmlns:xlink="http://www.w3.org/1999/xlink" width="12px" height="12px" viewBox="1047 501  12 12" xmlns="http://www.w3.org/2000/svg">
  <path d="M 1053 501  C 1056.36 501  1059 503.64  1059 507  C 1059 510.36  1056.36 513  1053 513  C 1049.64 513  1047 510.36  1047 507  C 1047 503.64  1049.64 501  1053 501  Z " fill-rule="nonzero" fill="#f0f0f0" stroke="none" />
  <path d="M 1053 501.5  C 1056.08 501.5  1058.5 503.92  1058.5 507  C 1058.5 510.08  1056.08 512.5  1053 512.5  C 1049.92 512.5  1047.5 510.08  1047.5 507  C 1047.5 503.92  1049.92 501.5  1053 501.5  Z " stroke-width="1" stroke="#797979" fill="none" />
  <path d="M 1053 510  C 1051.32 510  1050 508.68  1050 507  C 1050 505.32  1051.32 504  1053 504  C 1054.68 504  1056 505.32  1056 507  C 1056 508.68  1054.68 510  1053 510  " fill-rule="nonzero" fill="#797979" stroke="none" />
</svg>