<?xml version="1.0" encoding="utf-8"?>
<svg version="1.1" xmlns:xlink="http://www.w3.org/1999/xlink" width="12px" height="12px" viewBox="975 835  12 12" xmlns="http://www.w3.org/2000/svg">
  <path d="M 981 835  C 984.36 835  987 837.64  987 841  C 987 844.36  984.36 847  981 847  C 977.64 847  975 844.36  975 841  C 975 837.64  977.64 835  981 835  Z " fill-rule="nonzero" fill="#f0f0f0" stroke="none" />
  <path d="M 981 835.5  C 984.08 835.5  986.5 837.92  986.5 841  C 986.5 844.08  984.08 846.5  981 846.5  C 977.92 846.5  975.5 844.08  975.5 841  C 975.5 837.92  977.92 835.5  981 835.5  Z " stroke-width="1" stroke="#797979" fill="none" />
  <path d="M 981 844  C 979.32 844  978 842.68  978 841  C 978 839.32  979.32 838  981 838  C 982.68 838  984 839.32  984 841  C 984 842.68  982.68 844  981 844  " fill-rule="nonzero" fill="#797979" stroke="none" />
</svg>