<?xml version="1.0" encoding="utf-8"?>
<svg version="1.1" xmlns:xlink="http://www.w3.org/1999/xlink" width="12px" height="12px" viewBox="569 444  12 12" xmlns="http://www.w3.org/2000/svg">
  <path d="M 575 444  C 578.36 444  581 446.64  581 450  C 581 453.36  578.36 456  575 456  C 571.64 456  569 453.36  569 450  C 569 446.64  571.64 444  575 444  Z " fill-rule="nonzero" fill="#ffffff" stroke="none" />
  <path d="M 575 444.5  C 578.08 444.5  580.5 446.92  580.5 450  C 580.5 453.08  578.08 455.5  575 455.5  C 571.92 455.5  569.5 453.08  569.5 450  C 569.5 446.92  571.92 444.5  575 444.5  Z " stroke-width="1" stroke="#797979" fill="none" />
  <path d="M 575 453  C 573.32 453  572 451.68  572 450  C 572 448.32  573.32 447  575 447  C 576.68 447  578 448.32  578 450  C 578 451.68  576.68 453  575 453  " fill-rule="nonzero" fill="#797979" stroke="none" />
</svg>