<?xml version="1.0" encoding="utf-8"?>
<svg version="1.1" xmlns:xlink="http://www.w3.org/1999/xlink" width="12px" height="12px" viewBox="258 433  12 12" xmlns="http://www.w3.org/2000/svg">
  <path d="M 264 433  C 267.36 433  270 435.64  270 439  C 270 442.36  267.36 445  264 445  C 260.64 445  258 442.36  258 439  C 258 435.64  260.64 433  264 433  Z " fill-rule="nonzero" fill="#f0f0f0" stroke="none" />
  <path d="M 264 433.5  C 267.08 433.5  269.5 435.92  269.5 439  C 269.5 442.08  267.08 444.5  264 444.5  C 260.92 444.5  258.5 442.08  258.5 439  C 258.5 435.92  260.92 433.5  264 433.5  Z " stroke-width="1" stroke="#797979" fill="none" />
  <path d="M 264 442  C 262.32 442  261 440.68  261 439  C 261 437.32  262.32 436  264 436  C 265.68 436  267 437.32  267 439  C 267 440.68  265.68 442  264 442  " fill-rule="nonzero" fill="#797979" stroke="none" />
</svg>