<svg t="1611623588477" class="icon" viewBox="0 0 1024 1024" version="1.1" xmlns="http://www.w3.org/2000/svg" p-id="6628" width="200" height="200"><path d="M921.6 716.8h-102.4v-102.4a51.2 51.2 0 0 0-102.4 0v102.4h-102.4a51.2 51.2 0 0 0 0 102.4h102.4v102.4a51.2 51.2 0 0 0 102.4 0v-102.4h102.4a51.2 51.2 0 0 0 0-102.4z" fill="#FFCA29" p-id="6629"></path><path d="M427.52 1024H153.6a153.6 153.6 0 0 1-153.6-153.6V153.6a153.6 153.6 0 0 1 153.6-153.6h307.2a146.944 146.944 0 0 1 118.272 59.392l130.56 221.696a126.464 126.464 0 0 0 18.432 26.112H921.6a93.184 93.184 0 0 1 102.4 102.4v51.2a51.2 51.2 0 0 1-102.4 0V409.6h-204.8c-57.344 0-96.768-79.36-97.28-80.384l-126.976-215.04A51.2 51.2 0 0 0 460.8 102.4H153.6a51.2 51.2 0 0 0-51.2 51.2v716.8a51.2 51.2 0 0 0 51.2 51.2h273.92a51.2 51.2 0 1 1 0 102.4z" fill="#FFCA29" p-id="6630"></path><path d="M896 332.8h-192L512 76.8h307.2A74.24 74.24 0 0 1 896 153.6z m-166.4-51.2h115.2V153.6a23.04 23.04 0 0 0-25.6-25.6h-204.8z" fill="#FFCA29" p-id="6631"></path></svg>