<?xml version="1.0" encoding="utf-8"?>
<svg version="1.1" xmlns:xlink="http://www.w3.org/1999/xlink" width="12px" height="12px" viewBox="220 268  12 12" xmlns="http://www.w3.org/2000/svg">
  <path d="M 226 268  C 229.36 268  232 270.64  232 274  C 232 277.36  229.36 280  226 280  C 222.64 280  220 277.36  220 274  C 220 270.64  222.64 268  226 268  Z " fill-rule="nonzero" fill="#ffffff" stroke="none" />
  <path d="M 226 268.5  C 229.08 268.5  231.5 270.92  231.5 274  C 231.5 277.08  229.08 279.5  226 279.5  C 222.92 279.5  220.5 277.08  220.5 274  C 220.5 270.92  222.92 268.5  226 268.5  Z " stroke-width="1" stroke="#797979" fill="none" />
  <path d="M 226 277  C 224.32 277  223 275.68  223 274  C 223 272.32  224.32 271  226 271  C 227.68 271  229 272.32  229 274  C 229 275.68  227.68 277  226 277  " fill-rule="nonzero" fill="#797979" stroke="none" />
</svg>