<?xml version="1.0" encoding="utf-8"?>
<svg version="1.1" xmlns:xlink="http://www.w3.org/1999/xlink" width="12px" height="12px" viewBox="299 268  12 12" xmlns="http://www.w3.org/2000/svg">
  <path d="M 305 268  C 308.36 268  311 270.64  311 274  C 311 277.36  308.36 280  305 280  C 301.64 280  299 277.36  299 274  C 299 270.64  301.64 268  305 268  Z " fill-rule="nonzero" fill="#ffffff" stroke="none" />
  <path d="M 305 268.5  C 308.08 268.5  310.5 270.92  310.5 274  C 310.5 277.08  308.08 279.5  305 279.5  C 301.92 279.5  299.5 277.08  299.5 274  C 299.5 270.92  301.92 268.5  305 268.5  Z " stroke-width="1" stroke="#797979" fill="none" />
  <path d="M 305 277  C 303.32 277  302 275.68  302 274  C 302 272.32  303.32 271  305 271  C 306.68 271  308 272.32  308 274  C 308 275.68  306.68 277  305 277  " fill-rule="nonzero" fill="#797979" stroke="none" />
</svg>