<?xml version="1.0" encoding="utf-8"?>
<svg version="1.1" xmlns:xlink="http://www.w3.org/1999/xlink" width="12px" height="12px" viewBox="37 85  12 12" xmlns="http://www.w3.org/2000/svg">
  <path d="M 43 85  C 46.36 85  49 87.64  49 91  C 49 94.36  46.36 97  43 97  C 39.64 97  37 94.36  37 91  C 37 87.64  39.64 85  43 85  Z " fill-rule="nonzero" fill="#f0f0f0" stroke="none" />
  <path d="M 43 85.5  C 46.08 85.5  48.5 87.92  48.5 91  C 48.5 94.08  46.08 96.5  43 96.5  C 39.92 96.5  37.5 94.08  37.5 91  C 37.5 87.92  39.92 85.5  43 85.5  Z " stroke-width="1" stroke="#797979" fill="none" />
  <path d="M 43 94  C 41.32 94  40 92.68  40 91  C 40 89.32  41.32 88  43 88  C 44.68 88  46 89.32  46 91  C 46 92.68  44.68 94  43 94  " fill-rule="nonzero" fill="#797979" stroke="none" />
</svg>