<svg t="1611624616988" class="icon" viewBox="0 0 1024 1024" version="1.1" xmlns="http://www.w3.org/2000/svg" p-id="11925" width="200" height="200"><path d="M512 145.92c202.24 0 366.08 164.352 366.08 366.08S713.728 878.08 512 878.08 145.92 714.24 145.92 512 309.76 145.92 512 145.92" fill="#515151" p-id="11926"></path><path d="M65.024 512a446.976 446.976 0 1 0 893.952 0 446.976 446.976 0 1 0-893.952 0z" fill="#1391FE" p-id="11927"></path><path d="M760.32 551.936H263.68c-17.408 0-31.744-17.92-31.744-39.936s13.824-39.936 31.744-39.936h496.128c17.408 0 31.744 17.92 31.744 39.936 0.512 22.528-13.824 39.936-31.232 39.936z" fill="#FFFFFF" p-id="11928"></path><path d="M472.064 760.32V263.68c0-17.408 17.92-31.744 39.936-31.744s39.936 13.824 39.936 31.744v496.128c0 17.408-17.92 31.744-39.936 31.744-22.528 0.512-39.936-13.824-39.936-31.232z" fill="#FFFFFF" p-id="11929"></path></svg>