<svg t="1611623837224" class="icon" viewBox="0 0 1024 1024" version="1.1" xmlns="http://www.w3.org/2000/svg" p-id="11091" width="200" height="200"><path d="M392.64975 672.343012c-10.656272 6.393763-14.918781 10.656272-21.312545 12.787527-21.312545 14.918781-42.625089 29.837563-61.80638 44.756344-23.443799 19.18129-38.36258 31.968817-53.281362 46.887598l-38.36258 38.362581-6.393764 6.393763c-14.918781 17.050036-42.625089 6.393763-42.625089-14.918781V45.754197c0-19.18129 23.443799-31.968817 38.36258-19.18129 2.131254 2.131254 25.575054 19.18129 31.968818 23.443799 10.656272 8.525018 21.312545 17.050036 29.837562 23.443799 19.18129 14.918781 40.493835 31.968817 59.675125 46.887599l10.656273 8.525018 138.53154 106.562723 12.787527 10.656273c23.443799 17.050036 36.231326 27.706308 51.150108 40.493835 12.787527 8.525018 23.443799 19.18129 38.36258 29.837562l8.525018 6.393764 4.262509 4.262509c10.656272 8.525018 19.18129 14.918781 29.837563 23.443799 8.525018 6.393763 17.050036 12.787527 29.837562 23.443799 4.262509 2.131254 8.525018 6.393763 12.787527 8.525018 12.787527 10.656272 25.575054 19.18129 38.36258 29.837562 8.525018 6.393763 17.050036 12.787527 31.968818 23.4438 14.918781 10.656272 21.312545 17.050036 29.837562 23.443799 25.575054 19.18129 51.150107 40.493835 76.725161 59.675125 17.050036 12.787527 8.525018 42.625089-12.787527 42.62509-6.393763 0-14.918781 0-23.443799 2.131254-25.575054 2.131254-36.231326 2.131254-49.018853 4.262509-6.393763 0-12.787527 2.131254-19.18129 2.131254-10.656272 0-14.918781 2.131254-19.18129 2.131255-6.393763 0-10.656272 2.131254-21.312545 2.131254-14.918781 2.131254-21.312545 2.131254-29.837563 4.262509-4.262509 0-6.393763 0-10.656272 2.131255-25.575054 4.262509-53.281362 10.656272-83.118924 17.050036 2.131254 4.262509 6.393763 8.525018 8.525018 14.918781 2.131254 2.131254 2.131254 4.262509 4.262509 6.393763l4.262508 6.393764c6.393763 10.656272 12.787527 19.18129 17.050036 29.837562 6.393763 10.656272 10.656272 19.18129 21.312545 34.100072l4.262509 6.393763 4.262509 6.393764 6.393763 10.656272 2.131255 4.262509c8.525018 12.787527 12.787527 19.18129 17.050036 27.706308 4.262509 6.393763 8.525018 14.918781 12.787526 21.312545l6.393764 8.525018c17.050036 27.706308 25.575054 42.625089 34.100071 57.543871 12.787527 23.443799 19.18129 46.887598 14.918782 74.593906-4.262509 46.887598-36.231326 87.381433-80.98767 95.906451-21.312545 4.262509-51.150107 2.131254-68.200143-4.262509-23.443799-8.525018-42.625089-25.575054-55.412617-49.018853l-21.312544-42.625089c-2.131254-6.393763-6.393763-14.918781-8.525018-21.312545-4.262509-8.525018-8.525018-17.050036-10.656273-25.575053-4.262509-8.525018-6.393763-12.787527-12.787526-27.706308-4.262509-8.525018-8.525018-19.18129-12.787527-27.706309-4.262509-8.525018-8.525018-17.050036-10.656273-25.575053l-2.131254-4.262509V768.249463c-4.262509-8.525018-6.393763-17.050036-10.656273-23.443799-10.656272-25.575054-23.443799-51.150107-34.100071-76.725161-4.262509 0-6.393763 2.131254-10.656272 4.262509z" fill="#FFFFFF" p-id="11092"></path><path d="M627.087741 1024c-17.050036 0-36.231326-2.131254-51.150107-8.525018-27.706308-10.656272-49.018853-29.837563-66.068888-59.675125-8.525018-12.787527-12.787527-23.443799-21.312545-44.756344-2.131254-6.393763-6.393763-12.787527-8.525018-21.312545-4.262509-8.525018-8.525018-17.050036-10.656272-25.575053l-51.150108-112.956487c-8.525018-19.18129-17.050036-36.231326-25.575053-55.412617-4.262509 2.131254-6.393763 4.262509-8.525018 6.393764-21.312545 12.787527-40.493835 27.706308-59.675126 44.756344-23.443799 19.18129-38.36258 31.968817-51.150107 44.756344-12.787527 12.787527-25.575054 23.443799-36.231326 36.231326-2.131254 4.262509-4.262509 4.262509-6.393763 8.525017-12.787527 14.918781-31.968817 19.18129-51.150108 12.787527-17.050036-6.393763-29.837563-23.443799-29.837562-42.625089v-149.187813L147.555485 45.754197c0-17.050036 10.656272-34.100072 25.575054-40.493835 14.918781-8.525018 34.100072-6.393763 46.887598 4.262509l496.582292 383.625805c8.525018 6.393763 17.050036 12.787527 31.968817 23.443799l29.837563 23.4438c25.575054 19.18129 51.150107 40.493835 76.725161 59.675125 14.918781 12.787527 21.312545 31.968817 14.918781 49.018853-6.393763 19.18129-21.312545 29.837563-40.493835 31.968817-6.393763 0-14.918781 0-23.443799 2.131254-25.575054 2.131254-36.231326 2.131254-46.887598 4.262509-6.393763 0-12.787527 2.131254-19.18129 2.131255-8.525018 0-12.787527 0-19.181291 2.131254l-21.312544 2.131255c-14.918781 2.131254-21.312545 2.131254-29.837563 4.262509H661.187813c-17.050036 2.131254-34.100072 6.393763-51.150107 10.656272l91.643942 153.450322c17.050036 27.706308 25.575054 42.625089 34.100072 57.543871 14.918781 25.575054 21.312545 53.281362 19.18129 87.381433-6.393763 59.675125-44.756344 106.562724-98.037706 115.087742-8.525018 2.131254-19.18129 2.131254-29.837563 2.131254zM403.306022 644.636704h6.393763c6.393763 2.131254 10.656272 6.393763 12.787527 12.787527 10.656272 25.575054 23.443799 51.150107 34.100072 76.725161l51.150107 112.956487c4.262509 8.525018 6.393763 17.050036 10.656272 23.443799 4.262509 6.393763 6.393763 14.918781 10.656273 21.312545 8.525018 21.312545 12.787527 29.837563 19.18129 40.493835 10.656272 21.312545 25.575054 34.100072 44.756344 40.493835 12.787527 6.393763 38.36258 6.393763 57.543871 4.262509 34.100072-6.393763 59.675125-36.231326 63.937634-76.725161 2.131254-25.575054-2.131254-42.625089-12.787527-61.80638-10.656272-17.050036-19.18129-29.837563-36.231326-57.543871l-106.562724-176.894121c-4.262509-6.393763-4.262509-12.787527-2.131254-19.18129 2.131254-6.393763 8.525018-10.656272 14.918781-12.787527 29.837563-6.393763 57.543871-12.787527 83.118925-17.050036l10.656272-2.131254c8.525018-2.131254 14.918781-2.131254 29.837563-4.262509l21.312544-2.131255c6.393763 0 10.656272-2.131254 21.312545-2.131254 6.393763 0 12.787527 0 17.050036-2.131255 14.918781-2.131254 25.575054-2.131254 49.018853-4.262509 8.525018 0 17.050036 0 23.443799-2.131254 0 0 2.131254 0 2.131254-2.131255v-2.131254c-25.575054-19.18129-51.150107-40.493835-76.725161-59.675125L722.994193 448.561293c-14.918781-10.656272-21.312545-17.050036-31.968817-23.4438-12.787527-10.656272-25.575054-19.18129-38.362581-29.837562L194.443084 43.622943H192.311829c-2.131254 0-2.131254 2.131254-2.131254 2.131254L192.311829 655.292976v151.319068s0 2.131254 2.131255 2.131254h2.131254c2.131254-4.262509 4.262509-6.393763 6.393764-8.525018l38.36258-38.36258c14.918781-14.918781 29.837563-27.706308 53.281362-46.887598 19.18129-17.050036 40.493835-31.968817 63.937634-46.887599 6.393763-4.262509 10.656272-6.393763 21.312545-12.787527l8.525018-6.393763c6.393763-4.262509 10.656272-4.262509 14.918781-4.262509z" fill="#222222" p-id="11093"></path></svg>