<svg t="1609205901473" class="icon" viewBox="0 0 1024 1024" version="1.1" xmlns="http://www.w3.org/2000/svg" p-id="9639" width="200" height="200"><path d="M921.6 0A102.4 102.4 0 0 1 1024 102.4v819.2a102.4 102.4 0 0 1-102.4 102.4H102.4A102.4 102.4 0 0 1 0 921.6V102.4A102.4 102.4 0 0 1 102.4 0h819.2zM233.216 753.28a13.632 13.632 0 0 0-13.76 13.632v36.416c0 7.488 6.208 13.504 13.76 13.44h557.504a13.696 13.696 0 0 0 13.824-13.568v-36.352a13.632 13.632 0 0 0-13.824-13.504h-557.44z m528-168.96h-109.44a55.424 55.424 0 0 1-55.872-50.176C589.824 457.536 674.56 420.928 674.56 327.04c0-79.872-62.272-144.192-162.496-144.192-100.288 0-162.56 64.384-162.56 144.128 0 93.952 84.672 130.56 78.656 207.168a55.424 55.424 0 0 1-55.872 50.112H262.656a42.688 42.688 0 0 0-43.2 42.048V697.6c0 7.424 6.144 13.44 13.76 13.44h557.504c7.68 0 13.824-6.016 13.824-13.44V626.432a42.88 42.88 0 0 0-43.264-42.176z" fill="#FD6160" p-id="9640"></path></svg>