<svg t="1609206421934" class="icon" viewBox="0 0 1024 1024" version="1.1" xmlns="http://www.w3.org/2000/svg" p-id="19213" width="200" height="200"><path d="M769.7 327.5C749.1 201.5 638.8 106 509 106c-129.2 0-239.5 95.2-260.6 220.7C114.1 307.7 0 413.3 0 543.8 0 664.6 98.3 763 219.2 763h161.6c11.3 0 20.4-9.1 20.4-20.4 0-11.3-9.1-20.4-20.4-20.4H219.2c-98.3 0-178.3-80-178.3-178.3 0-111.9 102.2-201.7 220.3-173l23.2 5.6 1.9-23.9C295.6 237.3 393.4 147 509 147c116.3 0 214.1 90.9 222.7 206.9l1.8 24.8 24-6.5c116.7-31.9 225.6 57.9 225.6 171.7 0 98.3-80 178.3-178.3 178.3H643.3c-11.3 0-20.4 9.1-20.4 20.4 0 11.3 9.1 20.4 20.4 20.4h161.5c120.8 0 219.2-98.3 219.2-219.2 0-132.5-119.7-238.7-254.3-216.3z" fill="#0099FF" p-id="19214"></path><path d="M688.6 535.9L527.4 374.8c-8.5-8.5-22.3-8.5-30.9 0L335.4 535.9c-13.8 13.8-4 37.3 15.4 37.3h99.8v243.9c0 16.5 13.3 29.8 29.8 29.8h63.1c16.5 0 29.8-13.3 29.8-29.8V573.2h99.8c19.5 0 29.2-23.5 15.5-37.3zM552.9 877.1h-81.8c-11.3 0-20.4 9.2-20.4 20.4 0 11.3 9.2 20.4 20.4 20.4h81.8c11.3 0 20.4-9.2 20.4-20.4s-9.1-20.4-20.4-20.4z" fill="#0099FF" p-id="19215"></path></svg>