<svg t="1609208034753" class="icon" viewBox="0 0 1024 1024" version="1.1" xmlns="http://www.w3.org/2000/svg" p-id="21057" width="200" height="200"><path d="M956.235294 131.764706H214.588235c-22.588235 0-41.411765 18.823529-41.411764 41.411765S192 214.588235 214.588235 214.588235h741.647059c22.588235 0 41.411765-18.823529 41.411765-41.411764s-18.823529-41.411765-41.411765-41.411765z" fill="#23C472" p-id="21058"></path><path d="M956.235294 267.294118H199.529412C150.588235 267.294118 109.176471 225.882353 109.176471 173.176471s41.411765-90.352941 90.352941-90.352942h756.705882c22.588235 0 41.411765-18.823529 41.411765-41.411764S978.823529 0 956.235294 0H199.529412C105.411765 0 26.352941 79.058824 26.352941 173.176471v673.882353c0 94.117647 75.294118 173.176471 165.647059 173.17647h764.235294c22.588235 0 41.411765-18.823529 41.411765-41.411765V308.705882c0-22.588235-18.823529-41.411765-41.411765-41.411764zM192 941.176471c-45.176471 0-82.823529-41.411765-82.823529-90.352942v-527.058823c26.352941 15.058824 56.470588 22.588235 90.352941 22.588235h715.294117V941.176471H192z" fill="#23C472" p-id="21059"></path><path d="M651.294118 508.235294l-192 192-82.82353-82.823529c-15.058824-15.058824-41.411765-15.058824-56.470588 0s-15.058824 41.411765 0 56.470588l112.941176 112.941176c7.529412 7.529412 18.823529 11.294118 30.117648 11.294118s22.588235-3.764706 30.117647-11.294118l222.117647-222.117647c15.058824-15.058824 15.058824-41.411765 0-56.470588s-48.941176-15.058824-64 0z" fill="#23C472" p-id="21060"></path></svg>