<?xml version="1.0" encoding="utf-8"?>
<svg version="1.1" xmlns:xlink="http://www.w3.org/1999/xlink" width="12px" height="12px" viewBox="400 719  12 12" xmlns="http://www.w3.org/2000/svg">
  <path d="M 406 719  C 409.36 719  412 721.64  412 725  C 412 728.36  409.36 731  406 731  C 402.64 731  400 728.36  400 725  C 400 721.64  402.64 719  406 719  Z " fill-rule="nonzero" fill="#f0f0f0" stroke="none" />
  <path d="M 406 719.5  C 409.08 719.5  411.5 721.92  411.5 725  C 411.5 728.08  409.08 730.5  406 730.5  C 402.92 730.5  400.5 728.08  400.5 725  C 400.5 721.92  402.92 719.5  406 719.5  Z " stroke-width="1" stroke="#797979" fill="none" />
  <path d="M 406 728  C 404.32 728  403 726.68  403 725  C 403 723.32  404.32 722  406 722  C 407.68 722  409 723.32  409 725  C 409 726.68  407.68 728  406 728  " fill-rule="nonzero" fill="#797979" stroke="none" />
</svg>