<svg t="1616053132131" class="icon" viewBox="0 0 1024 1024" version="1.1" xmlns="http://www.w3.org/2000/svg" p-id="18798" width="64" height="64"><path d="M24.380952 512c0 267.312762 218.307048 484.010667 487.619048 484.010667s487.619048-216.697905 487.619048-484.010667S781.312 27.989333 512 27.989333 24.380952 244.687238 24.380952 512z" fill="#547FE5" p-id="18799"></path><path d="M292.571429 670.768762h435.2c7.314286 0 0 10.971429 0 18.285714s7.314286 14.628571 0 14.628572H292.571429v-32.914286zM804.571429 740.205714c0 7.314286 0 18.285714-3.657143 25.6a24.673524 24.673524 0 0 1-21.942857 14.628572H288.914286c-36.571429 3.657143-65.828571-25.6-69.485715-62.171429V268.483048c3.657143-43.885714 43.885714-76.8 87.771429-73.142858h424.228571v438.857143H277.942857c-18.285714 7.314286-29.257143 25.6-29.257143 47.542857l3.657143 40.228572c0 10.971429 10.971429 21.942857 25.6 21.942857h460.8c7.314286 0 14.628571-3.657143 21.942857-7.314286 3.657143-10.971429 7.314286-21.942857 7.314286-32.914285V228.205714c10.971429 3.657143 25.6 10.971429 32.914286 18.285715 3.657143 14.628571 3.657143 3.657143 3.657143 14.628571v479.085714z m-310.857143-179.2c36.571429-40.228571 54.857143-91.428571 54.857143-146.285714h36.571428v146.285714h36.571429v-146.285714H658.285714v-36.571429h-36.571428v-73.142857H658.285714v-36.571428H475.428571v36.571428H512v73.142857h-36.571429v36.571429H512c0 47.542857-21.942857 91.428571-54.857143 120.685714 3.657143 7.314286 29.257143 18.285714 36.571429 25.6zM329.142857 447.634286v76.8H365.714286v-36.571429h73.142857v-146.285714h-43.885714c3.657143-10.971429 7.314286-21.942857 10.971428-36.571429H438.857143v-36.571428H329.142857v36.571428H365.714286c-10.971429 43.885714-36.571429 84.114286-73.142857 109.714286 10.971429 10.971429 21.942857 21.942857 36.571428 32.914286z m2.145524-10.971429V418.377143v18.285714z m70.997333-58.514286v73.142858H365.714286v-73.142858h36.571428z m182.857143-73.142857v73.142857h-36.571428v-73.142857h36.571428z" fill="#FFFFFF" p-id="18800"></path></svg>