<svg t="1616741931310" class="icon" viewBox="0 0 1024 1024" version="1.1" xmlns="http://www.w3.org/2000/svg" p-id="3714" width="64" height="64"><path d="M505.258667 744.618667L106.666667 535.068444l398.563555-209.635555 398.563556 209.635555z" fill="#A7C8FF" p-id="3715"></path><path d="M505.258667 587.008a33.052444 33.052444 0 0 1-15.843556-3.982222L50.346667 352.256a33.848889 33.848889 0 1 1 0-60.074667l439.04-230.826666a33.564444 33.564444 0 0 1 31.516444 0l439.096889 230.912a33.848889 33.848889 0 1 1 0 60.046222l-438.983111 230.912a34.531556 34.531556 0 0 1-15.786667 3.84v-0.028445zM139.064889 322.218667l366.193778 192.540444 366.193777-192.540444-366.193777-192.568889-366.193778 192.568889z" fill="#474747" p-id="3716"></path><path d="M505.258667 798.919111a33.052444 33.052444 0 0 1-15.843556-3.953778L50.346667 564.138667a33.934222 33.934222 0 1 1 31.573333-60.074667l423.310222 222.606222 423.253334-222.549333a33.934222 33.934222 0 0 1 31.630222 60.046222l-439.096889 230.912a34.531556 34.531556 0 0 1-15.786667 3.84z" fill="#474747" p-id="3717"></path><path d="M505.258667 970.524444a33.052444 33.052444 0 0 1-15.843556-3.953777L50.346667 735.744a33.934222 33.934222 0 1 1 31.573333-60.046222l423.310222 222.577778 423.253334-222.549334a33.934222 33.934222 0 0 1 31.630222 60.074667L521.045333 966.542222c-4.835556 2.616889-10.268444 3.982222-15.786666 3.982222z" fill="#474747" p-id="3718"></path></svg>