<svg t="1616053234447" class="icon" viewBox="0 0 1024 1024" version="1.1" xmlns="http://www.w3.org/2000/svg" p-id="22822" width="64" height="64"><path d="M449.9 428.06a32.19 32.19 0 1 0 32.19 32.19 32.19 32.19 0 0 0-32.19-32.19zM330 463.17v122.88h122.83a177 177 0 0 0-41-70.21C380.56 484.53 330 463.17 330 463.17zM529.89 535.67c-72 22.94-53 51.85-53.66 50.38h175.55V410.51s-18.09 92.04-121.89 125.16z" fill="#FFB74D" p-id="22823"></path><path d="M487.94 92.18c-248.53 0-450 201.47-450 450s201.47 450 450 450 450-201.47 450-450-201.48-450-450-450zM698.59 627a17.56 17.56 0 0 1 0 35.11H530.34c21.31 39.66 54.85 102 54.85 102a18.64 18.64 0 0 1-6.09 24.4 16.09 16.09 0 0 1-22.76-6.51L506 688.34v115a16.8 16.8 0 0 1-33.59 0V683.18L416.9 783.6A16.47 16.47 0 0 1 394 790a17.94 17.94 0 0 1-6.14-24l57.45-103.92h-168a17.56 17.56 0 0 1 0-35.11H289V369.55h-11.72a17.56 17.56 0 0 1 0-35.11h195.33v-53.31a16.88 16.88 0 0 1 33.76 0v53.31h192.22a17.56 17.56 0 0 1 0 35.11h-5.86V627z" fill="#FFB74D" p-id="22824"></path></svg>