<svg t="1616052597941" class="icon" viewBox="0 0 1024 1024" version="1.1" xmlns="http://www.w3.org/2000/svg" p-id="12713" width="64" height="64"><path d="M879.36 1024H144.64A144.8448 144.8448 0 0 1 0 879.36V144.64A144.8448 144.8448 0 0 1 144.64 0h734.72A144.8448 144.8448 0 0 1 1024 144.64v734.72A144.8448 144.8448 0 0 1 879.36 1024zM472.8832 374.6048V83.0208h-266.24v291.584l134.0416-115.456 132.1984 115.456z m-43.008 218.368a46.5408 46.5408 0 0 0 0-93.0816H243.712a46.5408 46.5408 0 0 0 0 93.1072h186.1888z m0 186.1888a46.5408 46.5408 0 0 0 0-93.0816H243.712a46.5408 46.5408 0 1 0 0 93.0816h186.1888z m334.9248 197.376c25.344 0 46.0544-20.2752 46.5664-45.6192V83.0464a46.5408 46.5408 0 0 0-93.1072 0v846.9248c0 25.7024 20.8384 46.5408 46.5408 46.5408z" fill="#0551A9" p-id="12714"></path></svg>