<svg t="1616052625599" class="icon" viewBox="0 0 1024 1024" version="1.1" xmlns="http://www.w3.org/2000/svg" p-id="12883" width="64" height="64"><path d="M874.378971 149.621029C775.621486 51.785143 650.283886 0 512 0 374.981486 0 246.198857 53.160229 149.621029 149.621029 51.785143 248.495543 0 373.716114 0 512c0 139.198171 51.668114 264.418743 149.621029 362.378971C245.291886 970.9568 374.059886 1024 512 1024c139.198171 0 264.418743-51.785143 362.378971-149.621029C972.331886 776.411429 1024 651.190857 1024 512c0-138.283886-51.668114-263.504457-149.621029-362.378971z m-42.964114 682.130285a448.592457 448.592457 0 0 1-143.6672 96.694857c-55.683657 23.493486-114.907429 35.401143-175.747657 35.401143-60.949943 0-120.064-11.907657-175.747657-35.401143a452.344686 452.344686 0 0 1-143.6672-96.694857C107.117714 746.408229 60.145371 632.875886 60.145371 512c0-249.183086 202.671543-451.964343 451.971658-451.964343 249.183086 0 451.964343 202.664229 451.964342 451.964343-0.117029 120.758857-47.199086 234.400914-132.666514 319.758629z" fill="#D73B1D" p-id="12884"></path><path d="M277.284571 251.348114h279.149715c65.045943 0 112.735086 12.653714 143.067428 37.9392 30.317714 25.307429 45.480229 64.899657 45.480229 118.805943 0 39.957943-9.354971 72.586971-28.064914 97.879772-18.709943 25.300114-45.663086 41.618286-80.881372 48.932571l134.626743 217.746286H642.998857L524.141714 567.676343H390.634057v204.975543H277.284571V251.348114z m252.372115 92.913372H390.626743v131.210971h139.029943c37.653943 0 63.824457-4.9664 78.504228-14.891886 14.672457-9.9328 22.008686-26.953143 22.008686-51.068342 0-23.873829-7.153371-40.718629-21.460114-50.5344-14.306743-9.808457-40.667429-14.716343-79.0528-14.716343z" fill="#D73B1D" p-id="12885"></path></svg>