<svg t="1616999516300" class="icon" viewBox="0 0 1024 1024" version="1.1" xmlns="http://www.w3.org/2000/svg" p-id="3250" width="64" height="64"><path d="M532.48 57.6c247.04 0 448 200.96 448 448s-200.96 448-448 448-448-200.96-448-448 199.68-448 448-448z" fill="#E4EDFF" p-id="3251"></path><path d="M243.2 148.48h-7.68V140.8c0-10.24-8.96-19.2-19.2-19.2s-19.2 8.96-19.2 19.2v7.68h-7.68c-10.24 0-19.2 8.96-19.2 19.2s8.96 19.2 19.2 19.2h7.68v7.68c0 10.24 8.96 19.2 19.2 19.2s19.2-8.96 19.2-19.2v-7.68h7.68c10.24 0 19.2-8.96 19.2-19.2 0-11.52-7.68-19.2-19.2-19.2zM898.56 800h-7.68V793.6c0-10.24-8.96-19.2-19.2-19.2s-19.2 8.96-19.2 19.2v7.68H844.8c-10.24 0-19.2 8.96-19.2 19.2s8.96 19.2 19.2 19.2h7.68v7.68c0 10.24 8.96 19.2 19.2 19.2s19.2-8.96 19.2-19.2v-7.68h7.68c10.24 0 19.2-8.96 19.2-19.2 0-11.52-8.96-20.48-19.2-20.48z" fill="#484578" p-id="3252"></path><path d="M403.2 633.6c85.76 85.76 133.12 189.44 131.84 271.36 0 20.48 23.04 32 38.4 19.2 10.24-7.68 19.2-15.36 28.16-24.32 121.6-121.6 116.48-323.84-11.52-453.12S259.84 313.6 136.96 435.2c-8.96 8.96-16.64 17.92-24.32 28.16-12.8 15.36-1.28 38.4 19.2 38.4 81.92-1.28 185.6 46.08 271.36 131.84z" fill="#FFFFFF" p-id="3253"></path><path d="M559.36 948.48c-6.4 0-12.8-1.28-19.2-5.12-15.36-7.68-24.32-23.04-23.04-39.68 1.28-79.36-46.08-177.92-125.44-257.28-79.36-79.36-177.92-128-257.28-125.44-16.64 0-32-8.96-39.68-23.04-7.68-15.36-6.4-32 3.84-46.08 7.68-10.24 16.64-20.48 25.6-29.44 129.28-129.28 344.32-124.16 480 11.52 65.28 65.28 102.4 151.04 104.96 241.92 2.56 90.88-30.72 175.36-93.44 238.08-8.96 8.96-19.2 17.92-29.44 25.6-8.96 6.4-17.92 8.96-26.88 8.96zM417.28 620.8c87.04 87.04 139.52 195.84 136.96 285.44 0 1.28 1.28 2.56 2.56 3.84 1.28 0 2.56 1.28 5.12 0 8.96-7.68 17.92-15.36 25.6-23.04 55.04-55.04 84.48-129.28 81.92-209.92-1.28-81.92-34.56-157.44-93.44-216.32-120.32-120.32-311.04-125.44-424.96-11.52-7.68 7.68-15.36 16.64-23.04 25.6-1.28 1.28-1.28 3.84 0 5.12 1.28 1.28 2.56 2.56 3.84 2.56 88.32-1.28 198.4 51.2 285.44 138.24z" fill="#484578" p-id="3254"></path><path d="M273.92 625.92c-1.28 15.36 7.68 32 24.32 34.56 17.92 3.84 38.4 15.36 56.32 33.28 17.92 17.92 29.44 38.4 33.28 56.32 3.84 15.36 19.2 25.6 34.56 24.32 61.44-7.68 192-42.24 348.16-197.12C916.48 431.36 934.4 280.32 931.84 194.56c-1.28-42.24-35.84-75.52-76.8-76.8-84.48-3.84-236.8 15.36-382.72 161.28C316.16 433.92 281.6 564.48 273.92 625.92z" fill="#FFC000" p-id="3255"></path><path d="M413.44 336.64l-26.88 38.4 286.72 286.72 37.12-29.44zM335.36 454.4l257.28 257.28 42.24-23.04L355.84 409.6z" fill="#FFFFFF" p-id="3256"></path><path d="M618.078647 420.455963a98.56 98.56 0 1 0 139.382456-139.387321 98.56 98.56 0 1 0-139.382456 139.387321Z" fill="#FFFFFF" p-id="3257"></path><path d="M951.04 193.28c-2.56-51.2-44.8-93.44-96-96-81.92-3.84-243.2 12.8-396.8 166.4-158.72 160-195.84 294.4-203.52 360.96-2.56 25.6 14.08 49.92 38.4 56.32 15.36 3.84 32 14.08 47.36 28.16 14.08 14.08 24.32 30.72 28.16 47.36 5.12 23.04 25.6 38.4 49.92 38.4h6.4c66.56-7.68 200.96-44.8 359.68-203.52 152.32-153.6 168.96-314.88 166.4-398.08zM419.84 755.2c-6.4 1.28-12.8-2.56-14.08-8.96-5.12-23.04-19.2-46.08-38.4-65.28-19.2-19.2-43.52-33.28-65.28-38.4-5.12-1.28-10.24-7.68-8.96-14.08 3.84-28.16 12.8-71.68 37.12-124.16l213.76 213.76c-52.48 24.32-94.72 33.28-124.16 37.12z m160-55.04l-230.4-231.68c7.68-12.8 15.36-26.88 24.32-40.96l248.32 248.32c-15.36 8.96-28.16 16.64-42.24 24.32z m79.36-52.48L400.64 389.12c8.96-11.52 19.2-24.32 29.44-37.12l266.24 266.24c-12.8 11.52-24.32 20.48-37.12 29.44z m97.28-84.48c-10.24 10.24-21.76 20.48-32 30.72l-268.8-270.08c10.24-10.24 19.2-20.48 30.72-32 133.12-133.12 270.08-156.16 350.72-156.16h17.92c32 1.28 57.6 26.88 58.88 58.88 1.28 76.8-14.08 225.28-157.44 368.64z" fill="#484578" p-id="3258"></path><path d="M687.36 232.96c-30.72 0-60.16 12.8-83.2 34.56-21.76 21.76-34.56 51.2-34.56 83.2s12.8 60.16 34.56 83.2c21.76 21.76 51.2 34.56 83.2 34.56 30.72 0 60.16-12.8 83.2-34.56 21.76-21.76 34.56-51.2 34.56-83.2s-12.8-60.16-34.56-83.2c-21.76-21.76-51.2-34.56-83.2-34.56z m56.32 172.8c-15.36 15.36-34.56 23.04-56.32 23.04s-40.96-7.68-56.32-23.04-23.04-34.56-23.04-56.32 7.68-40.96 23.04-56.32 34.56-23.04 56.32-23.04 40.96 7.68 56.32 23.04c15.36 15.36 23.04 34.56 23.04 56.32s-8.96 42.24-23.04 56.32zM299.52 764.16c7.68-7.68 7.68-19.2 0-26.88s-19.2-7.68-26.88 0l-101.12 101.12c-7.68 7.68-7.68 19.2 0 26.88 3.84 3.84 8.96 5.12 14.08 5.12s10.24-1.28 14.08-5.12l99.84-101.12zM189.44 710.4c-7.68-7.68-19.2-7.68-26.88 0l-101.12 101.12c-7.68 7.68-7.68 19.2 0 26.88 3.84 3.84 8.96 5.12 14.08 5.12s10.24-1.28 14.08-5.12l101.12-101.12c6.4-7.68 6.4-19.2-1.28-26.88zM300.8 848.64l-101.12 101.12c-7.68 7.68-7.68 19.2 0 26.88 3.84 3.84 8.96 5.12 14.08 5.12s10.24-1.28 14.08-5.12l101.12-101.12c7.68-7.68 7.68-19.2 0-26.88s-20.48-7.68-28.16 0z" fill="#484578" p-id="3259"></path></svg>