<svg t="1616052688357" class="icon" viewBox="0 0 1024 1024" version="1.1" xmlns="http://www.w3.org/2000/svg" p-id="14550" width="64" height="64"><path d="M512.584922 1023.938008l-11.188514-4.095456c-351.039378-135.07706-391.627987-311.108681-391.627987-432.143606v-461.908653l31.153863 1.169845c244.045588 8.190912 348.113766-101.143567 348.698688-102.386402L512 0.001l22.379028 24.572736a453.425779 453.425779 0 0 0 322.809127 102.898334c8.263902 0 17.040737 0 25.889561-0.584922l31.154862-1.169845v462.054634c0 121.034925-40.589609 297.066546-391.627986 432.143605l-10.01867 4.095457zM170.907301 187.807057v399.96488c0 64.869385 0 236.805549 341.677621 371.881609C854.264543 824.577486 854.264543 653.227243 854.264543 587.771937V187.807057a543.964755 543.964755 0 0 1-341.678621-102.386402 545.500551 545.500551 0 0 1-341.677621 102.386402z" p-id="14551" fill="#13227a"></path><path d="M253.840287 544.988619a563.856113 563.856113 0 0 0 58.506229-138.586594h-55.288656v-67.210074h59.384113v-90.026043h63.479569v90.026043h49.364443v67.210074h-49.364443v59.676074c22.379028 12.286368 43.880172 24.572736 63.479569 36.567143l-31.739785 57.921308a277.906091 277.906091 0 0 0-31.739784-23.402892v217.498113h-63.479569V543.014881a694.764727 694.764727 0 0 1-46.439833 96.462188c-5.850223-35.68926-11.774436-67.209074-16.454814-94.122499z m218.740948-41.539483l61.724802 17.552668a1456.226595 1456.226595 0 0 1-64.650413 171.935165 318.347719 318.347719 0 0 0-61.13888-24.572736 1143.656108 1143.656108 0 0 0 64.064491-164.915097z m-41.174531-99.386801h332.244874v66.623152H633.693838v219.838803a56.897443 56.897443 0 0 1-15.28497 42.124405 65.381317 65.381317 0 0 1-43.880173 16.381824 1346.381184 1346.381184 0 0 1-78.179616 1.754767 1221.323793 1221.323793 0 0 0-14.114126-71.30453 508.806424 508.806424 0 0 0 48.779522 2.33969c19.965348 0 29.985018-9.360757 29.985017-27.497348V470.100565H431.040752v-65.819259z m20.55127-128.642914H744.489123v66.625151H451.957974z m256.989869 232.125171c21.940086 51.193201 42.344376 105.823945 62.308724 163.16033l-63.479569 23.986814a2241.165345 2241.165345 0 0 0-60.553957-164.914097l61.724802-21.940086z" p-id="14552" fill="#13227a"></path></svg>