<?xml version="1.0" encoding="utf-8"?>
<svg version="1.1" xmlns:xlink="http://www.w3.org/1999/xlink" width="12px" height="12px" viewBox="308 542  12 12" xmlns="http://www.w3.org/2000/svg">
  <path d="M 314 542  C 317.36 542  320 544.64  320 548  C 320 551.36  317.36 554  314 554  C 310.64 554  308 551.36  308 548  C 308 544.64  310.64 542  314 542  Z " fill-rule="nonzero" fill="#f0f0f0" stroke="none" />
  <path d="M 314 542.5  C 317.08 542.5  319.5 544.92  319.5 548  C 319.5 551.08  317.08 553.5  314 553.5  C 310.92 553.5  308.5 551.08  308.5 548  C 308.5 544.92  310.92 542.5  314 542.5  Z " stroke-width="1" stroke="#797979" fill="none" />
  <path d="M 314 551  C 312.32 551  311 549.68  311 548  C 311 546.32  312.32 545  314 545  C 315.68 545  317 546.32  317 548  C 317 549.68  315.68 551  314 551  " fill-rule="nonzero" fill="#797979" stroke="none" />
</svg>