<?xml version="1.0" encoding="utf-8"?>
<svg version="1.1" xmlns:xlink="http://www.w3.org/1999/xlink" width="12px" height="12px" viewBox="208 542  12 12" xmlns="http://www.w3.org/2000/svg">
  <path d="M 214 542  C 217.36 542  220 544.64  220 548  C 220 551.36  217.36 554  214 554  C 210.64 554  208 551.36  208 548  C 208 544.64  210.64 542  214 542  Z " fill-rule="nonzero" fill="#ffffff" stroke="none" />
  <path d="M 214 542.5  C 217.08 542.5  219.5 544.92  219.5 548  C 219.5 551.08  217.08 553.5  214 553.5  C 210.92 553.5  208.5 551.08  208.5 548  C 208.5 544.92  210.92 542.5  214 542.5  Z " stroke-width="1" stroke="#797979" fill="none" />
  <path d="M 214 551  C 212.32 551  211 549.68  211 548  C 211 546.32  212.32 545  214 545  C 215.68 545  217 546.32  217 548  C 217 549.68  215.68 551  214 551  " fill-rule="nonzero" fill="#797979" stroke="none" />
</svg>