<?xml version="1.0" encoding="utf-8"?>
<svg version="1.1" xmlns:xlink="http://www.w3.org/1999/xlink" width="12px" height="12px" viewBox="92 84  12 12" xmlns="http://www.w3.org/2000/svg">
  <path d="M 98 84  C 101.36 84  104 86.64  104 90  C 104 93.36  101.36 96  98 96  C 94.64 96  92 93.36  92 90  C 92 86.64  94.64 84  98 84  Z " fill-rule="nonzero" fill="#f0f0f0" stroke="none" />
  <path d="M 98 84.5  C 101.08 84.5  103.5 86.92  103.5 90  C 103.5 93.08  101.08 95.5  98 95.5  C 94.92 95.5  92.5 93.08  92.5 90  C 92.5 86.92  94.92 84.5  98 84.5  Z " stroke-width="1" stroke="#797979" fill="none" />
  <path d="M 98 93  C 96.32 93  95 91.68  95 90  C 95 88.32  96.32 87  98 87  C 99.68 87  101 88.32  101 90  C 101 91.68  99.68 93  98 93  " fill-rule="nonzero" fill="#797979" stroke="none" />
</svg>