<?xml version="1.0" encoding="utf-8"?>
<svg version="1.1" xmlns:xlink="http://www.w3.org/1999/xlink" width="12px" height="12px" viewBox="192 84  12 12" xmlns="http://www.w3.org/2000/svg">
  <path d="M 198 84  C 201.36 84  204 86.64  204 90  C 204 93.36  201.36 96  198 96  C 194.64 96  192 93.36  192 90  C 192 86.64  194.64 84  198 84  Z " fill-rule="nonzero" fill="#f0f0f0" stroke="none" />
  <path d="M 198 84.5  C 201.08 84.5  203.5 86.92  203.5 90  C 203.5 93.08  201.08 95.5  198 95.5  C 194.92 95.5  192.5 93.08  192.5 90  C 192.5 86.92  194.92 84.5  198 84.5  Z " stroke-width="1" stroke="#797979" fill="none" />
  <path d="M 198 93  C 196.32 93  195 91.68  195 90  C 195 88.32  196.32 87  198 87  C 199.68 87  201 88.32  201 90  C 201 91.68  199.68 93  198 93  " fill-rule="nonzero" fill="#797979" stroke="none" />
</svg>