<?xml version="1.0" encoding="utf-8"?>
<svg version="1.1" xmlns:xlink="http://www.w3.org/1999/xlink" width="204px" height="132px" xmlns="http://www.w3.org/2000/svg">
  <defs>
    <mask fill="white" id="clip3">
      <path d="M 83 49  L 81 0  L 127 0  L 129 49  L 204 48  L 204 132  L 0 132  L 0 49  L 83 49  Z " fill-rule="evenodd" />
    </mask>
  </defs>
  <g transform="matrix(1 0 0 1 -1638 -178 )">
    <path d="M 83 49  L 81 0  L 127 0  L 129 49  L 204 48  L 204 132  L 0 132  L 0 49  L 83 49  Z " fill-rule="nonzero" fill="#ffffff" stroke="none" fill-opacity="0" transform="matrix(1 0 0 1 1638 178 )" />
    <path d="M 83 49  L 81 0  L 127 0  L 129 49  L 204 48  L 204 132  L 0 132  L 0 49  L 83 49  Z " stroke-width="2" stroke="#ff0000" fill="none" transform="matrix(1 0 0 1 1638 178 )" mask="url(#clip3)" />
  </g>
</svg>