<?xml version="1.0" encoding="utf-8"?>
<svg version="1.1" xmlns:xlink="http://www.w3.org/1999/xlink" width="179px" height="176px" xmlns="http://www.w3.org/2000/svg">
  <defs>
    <mask fill="white" id="clip4">
      <path d="M 0 0  L 166 0  L 179 0  L 179 45  L 179 89  L 178 174  L 54 176  L 54 37  L 0 35  L 0 0  Z " fill-rule="evenodd" />
    </mask>
  </defs>
  <g transform="matrix(1 0 0 1 -1788 -181 )">
    <path d="M 0 0  L 166 0  L 179 0  L 179 45  L 179 89  L 178 174  L 54 176  L 54 37  L 0 35  L 0 0  Z " fill-rule="nonzero" fill="#ffffff" stroke="none" fill-opacity="0" transform="matrix(1 0 0 1 1788 181 )" />
    <path d="M 0 0  L 166 0  L 179 0  L 179 45  L 179 89  L 178 174  L 54 176  L 54 37  L 0 35  L 0 0  Z " stroke-width="2" stroke="#ff0000" fill="none" transform="matrix(1 0 0 1 1788 181 )" mask="url(#clip4)" />
  </g>
</svg>