<?xml version="1.0" encoding="utf-8"?>
<svg version="1.1" xmlns:xlink="http://www.w3.org/1999/xlink" width="12px" height="12px" viewBox="738 208  12 12" xmlns="http://www.w3.org/2000/svg">
  <path d="M 744 208  C 747.36 208  750 210.64  750 214  C 750 217.36  747.36 220  744 220  C 740.64 220  738 217.36  738 214  C 738 210.64  740.64 208  744 208  Z " fill-rule="nonzero" fill="#ffffff" stroke="none" />
  <path d="M 744 208.5  C 747.08 208.5  749.5 210.92  749.5 214  C 749.5 217.08  747.08 219.5  744 219.5  C 740.92 219.5  738.5 217.08  738.5 214  C 738.5 210.92  740.92 208.5  744 208.5  Z " stroke-width="1" stroke="#797979" fill="none" />
  <path d="M 744 217  C 742.32 217  741 215.68  741 214  C 741 212.32  742.32 211  744 211  C 745.68 211  747 212.32  747 214  C 747 215.68  745.68 217  744 217  " fill-rule="nonzero" fill="#797979" stroke="none" />
</svg>