<?xml version="1.0" encoding="utf-8"?>
<svg version="1.1" xmlns:xlink="http://www.w3.org/1999/xlink" width="12px" height="12px" viewBox="661 208  12 12" xmlns="http://www.w3.org/2000/svg">
  <path d="M 667 208  C 670.36 208  673 210.64  673 214  C 673 217.36  670.36 220  667 220  C 663.64 220  661 217.36  661 214  C 661 210.64  663.64 208  667 208  Z " fill-rule="nonzero" fill="#ffffff" stroke="none" />
  <path d="M 667 208.5  C 670.08 208.5  672.5 210.92  672.5 214  C 672.5 217.08  670.08 219.5  667 219.5  C 663.92 219.5  661.5 217.08  661.5 214  C 661.5 210.92  663.92 208.5  667 208.5  Z " stroke-width="1" stroke="#797979" fill="none" />
  <path d="M 667 217  C 665.32 217  664 215.68  664 214  C 664 212.32  665.32 211  667 211  C 668.68 211  670 212.32  670 214  C 670 215.68  668.68 217  667 217  " fill-rule="nonzero" fill="#797979" stroke="none" />
</svg>