<?xml version="1.0" encoding="utf-8"?>
<svg version="1.1" xmlns:xlink="http://www.w3.org/1999/xlink" width="14px" height="13px" xmlns="http://www.w3.org/2000/svg">
  <g transform="matrix(1 0 0 1 -1172 -597 )">
    <path d="M 13.8597194388778 5.97515527950304  C 13.9532398129593 6.06487232574193  14 6.16804692891651  14 6.28467908902689  C 14 6.40131124913728  13.9532398129593 6.50448585231197  13.8597194388778 6.59420289855075  L 7.32264529058125 12.8654244306418  C 7.22912491649981 12.9551414768806  7.12157648630591 13  7 13  C 6.87842351369409 13  6.77087508350019 12.9551414768806  6.67735470941875 12.8654244306418  L 0.140280561122154 6.59420289855075  C 0.0467601870407179 6.50448585231197  0 6.40131124913728  0 6.28467908902689  C 0 6.16804692891651  0.0467601870407179 6.06487232574193  0.140280561122154 5.97515527950304  L 0.841683366733605 5.30227743271223  C 0.935203740815041 5.21256038647346  1.04275217100871 5.16770186335407  1.16432865731463 5.16770186335407  C 1.28590514362054 5.16770186335407  1.39345357381421 5.21256038647346  1.48697394789565 5.30227743271223  L 7 10.5910973084887  L 12.5130260521044 5.30227743271223  C 12.6065464261858 5.21256038647346  12.7140948563795 5.16770186335407  12.8356713426854 5.16770186335407  C 12.9572478289913 5.16770186335407  13.064796259185 5.21256038647346  13.1583166332664 5.30227743271223  L 13.8597194388778 5.97515527950304  Z M 13.8597194388778 0.807453416149087  C 13.9532398129593 0.897170462387862  14 1.00034506556244  14 1.11697722567283  C 14 1.23360938578332  13.9532398129593 1.3367839889579  13.8597194388778 1.42650103519668  L 7.32264529058125 7.69772256728777  C 7.22912491649981 7.78743961352654  7.12157648630591 7.83229813664593  7 7.83229813664593  C 6.87842351369409 7.83229813664593  6.77087508350019 7.78743961352654  6.67735470941875 7.69772256728777  L 0.140280561122154 1.42650103519668  C 0.0467601870407179 1.3367839889579  0 1.23360938578332  0 1.11697722567283  C 0 1.00034506556244  0.0467601870407179 0.897170462387862  0.140280561122154 0.807453416149087  L 0.841683366733605 0.134575569358162  C 0.935203740815041 0.0448585231193874  1.04275217100871 0  1.16432865731463 0  C 1.28590514362054 0  1.39345357381421 0.0448585231193874  1.48697394789565 0.134575569358162  L 7 5.42339544513459  L 12.5130260521044 0.134575569358162  C 12.6065464261858 0.0448585231193874  12.7140948563795 0  12.8356713426854 0  C 12.9572478289913 0  13.064796259185 0.0448585231193874  13.1583166332664 0.134575569358162  L 13.8597194388778 0.807453416149087  Z " fill-rule="nonzero" fill="#ffffff" stroke="none" transform="matrix(1 0 0 1 1172 597 )" />
  </g>
</svg>