<?xml version="1.0" encoding="utf-8"?>
<svg version="1.1" xmlns:xlink="http://www.w3.org/1999/xlink" width="12px" height="12px" viewBox="994 160  12 12" xmlns="http://www.w3.org/2000/svg">
  <path d="M 1000 160  C 1003.36 160  1006 162.64  1006 166  C 1006 169.36  1003.36 172  1000 172  C 996.64 172  994 169.36  994 166  C 994 162.64  996.64 160  1000 160  Z " fill-rule="nonzero" fill="#f0f0f0" stroke="none" />
  <path d="M 1000 160.5  C 1003.08 160.5  1005.5 162.92  1005.5 166  C 1005.5 169.08  1003.08 171.5  1000 171.5  C 996.92 171.5  994.5 169.08  994.5 166  C 994.5 162.92  996.92 160.5  1000 160.5  Z " stroke-width="1" stroke="#797979" fill="none" />
  <path d="M 1000 169  C 998.32 169  997 167.68  997 166  C 997 164.32  998.32 163  1000 163  C 1001.68 163  1003 164.32  1003 166  C 1003 167.68  1001.68 169  1000 169  " fill-rule="nonzero" fill="#797979" stroke="none" />
</svg>