<?xml version="1.0" encoding="utf-8"?>
<svg version="1.1" xmlns:xlink="http://www.w3.org/1999/xlink" width="12px" height="12px" viewBox="1005 203.5  12 12" xmlns="http://www.w3.org/2000/svg">
  <path d="M 1011 203.5  C 1014.36 203.5  1017 206.14  1017 209.5  C 1017 212.86  1014.36 215.5  1011 215.5  C 1007.64 215.5  1005 212.86  1005 209.5  C 1005 206.14  1007.64 203.5  1011 203.5  Z " fill-rule="nonzero" fill="#f0f0f0" stroke="none" />
  <path d="M 1011 204  C 1014.08 204  1016.5 206.42  1016.5 209.5  C 1016.5 212.58  1014.08 215  1011 215  C 1007.92 215  1005.5 212.58  1005.5 209.5  C 1005.5 206.42  1007.92 204  1011 204  Z " stroke-width="1" stroke="#797979" fill="none" />
  <path d="M 1011 212.5  C 1009.32 212.5  1008 211.18  1008 209.5  C 1008 207.82  1009.32 206.5  1011 206.5  C 1012.68 206.5  1014 207.82  1014 209.5  C 1014 211.18  1012.68 212.5  1011 212.5  " fill-rule="nonzero" fill="#797979" stroke="none" />
</svg>