<?xml version="1.0" encoding="utf-8"?>
<svg version="1.1" xmlns:xlink="http://www.w3.org/1999/xlink" width="12px" height="12px" viewBox="400 606  12 12" xmlns="http://www.w3.org/2000/svg">
  <path d="M 406 606  C 409.36 606  412 608.64  412 612  C 412 615.36  409.36 618  406 618  C 402.64 618  400 615.36  400 612  C 400 608.64  402.64 606  406 606  Z " fill-rule="nonzero" fill="#ffffff" stroke="none" />
  <path d="M 406 606.5  C 409.08 606.5  411.5 608.92  411.5 612  C 411.5 615.08  409.08 617.5  406 617.5  C 402.92 617.5  400.5 615.08  400.5 612  C 400.5 608.92  402.92 606.5  406 606.5  Z " stroke-width="1" stroke="#797979" fill="none" />
  <path d="M 406 615  C 404.32 615  403 613.68  403 612  C 403 610.32  404.32 609  406 609  C 407.68 609  409 610.32  409 612  C 409 613.68  407.68 615  406 615  " fill-rule="nonzero" fill="#797979" stroke="none" />
</svg>