<?xml version="1.0" encoding="utf-8"?>
<svg version="1.1" xmlns:xlink="http://www.w3.org/1999/xlink" width="12px" height="12px" viewBox="280 623  12 12" xmlns="http://www.w3.org/2000/svg">
  <path d="M 286 623  C 289.36 623  292 625.64  292 629  C 292 632.36  289.36 635  286 635  C 282.64 635  280 632.36  280 629  C 280 625.64  282.64 623  286 623  Z " fill-rule="nonzero" fill="#ffffff" stroke="none" />
  <path d="M 286 623.5  C 289.08 623.5  291.5 625.92  291.5 629  C 291.5 632.08  289.08 634.5  286 634.5  C 282.92 634.5  280.5 632.08  280.5 629  C 280.5 625.92  282.92 623.5  286 623.5  Z " stroke-width="1" stroke="#797979" fill="none" />
  <path d="M 286 632  C 284.32 632  283 630.68  283 629  C 283 627.32  284.32 626  286 626  C 287.68 626  289 627.32  289 629  C 289 630.68  287.68 632  286 632  " fill-rule="nonzero" fill="#797979" stroke="none" />
</svg>