<?xml version="1.0" encoding="utf-8"?>
<svg version="1.1" xmlns:xlink="http://www.w3.org/1999/xlink" width="12px" height="12px" viewBox="400 623  12 12" xmlns="http://www.w3.org/2000/svg">
  <path d="M 406 623  C 409.36 623  412 625.64  412 629  C 412 632.36  409.36 635  406 635  C 402.64 635  400 632.36  400 629  C 400 625.64  402.64 623  406 623  Z " fill-rule="nonzero" fill="#f0f0f0" stroke="none" />
  <path d="M 406 623.5  C 409.08 623.5  411.5 625.92  411.5 629  C 411.5 632.08  409.08 634.5  406 634.5  C 402.92 634.5  400.5 632.08  400.5 629  C 400.5 625.92  402.92 623.5  406 623.5  Z " stroke-width="1" stroke="#797979" fill="none" />
  <path d="M 406 632  C 404.32 632  403 630.68  403 629  C 403 627.32  404.32 626  406 626  C 407.68 626  409 627.32  409 629  C 409 630.68  407.68 632  406 632  " fill-rule="nonzero" fill="#797979" stroke="none" />
</svg>