<?xml version="1.0" encoding="utf-8"?>
<svg version="1.1" xmlns:xlink="http://www.w3.org/1999/xlink" width="12px" height="12px" viewBox="200 958  12 12" xmlns="http://www.w3.org/2000/svg">
  <path d="M 206 958  C 209.36 958  212 960.64  212 964  C 212 967.36  209.36 970  206 970  C 202.64 970  200 967.36  200 964  C 200 960.64  202.64 958  206 958  Z " fill-rule="nonzero" fill="#f0f0f0" stroke="none" />
  <path d="M 206 958.5  C 209.08 958.5  211.5 960.92  211.5 964  C 211.5 967.08  209.08 969.5  206 969.5  C 202.92 969.5  200.5 967.08  200.5 964  C 200.5 960.92  202.92 958.5  206 958.5  Z " stroke-width="1" stroke="#797979" fill="none" />
  <path d="M 206 967  C 204.32 967  203 965.68  203 964  C 203 962.32  204.32 961  206 961  C 207.68 961  209 962.32  209 964  C 209 965.68  207.68 967  206 967  " fill-rule="nonzero" fill="#797979" stroke="none" />
</svg>