<?xml version="1.0" encoding="utf-8"?>
<svg version="1.1" xmlns:xlink="http://www.w3.org/1999/xlink" width="12px" height="12px" viewBox="291 1097  12 12" xmlns="http://www.w3.org/2000/svg">
  <path d="M 297 1097  C 300.36 1097  303 1099.64  303 1103  C 303 1106.36  300.36 1109  297 1109  C 293.64 1109  291 1106.36  291 1103  C 291 1099.64  293.64 1097  297 1097  Z " fill-rule="nonzero" fill="#ffffff" stroke="none" />
  <path d="M 297 1097.5  C 300.08 1097.5  302.5 1099.92  302.5 1103  C 302.5 1106.08  300.08 1108.5  297 1108.5  C 293.92 1108.5  291.5 1106.08  291.5 1103  C 291.5 1099.92  293.92 1097.5  297 1097.5  Z " stroke-width="1" stroke="#797979" fill="none" />
  <path d="M 297 1106  C 295.32 1106  294 1104.68  294 1103  C 294 1101.32  295.32 1100  297 1100  C 298.68 1100  300 1101.32  300 1103  C 300 1104.68  298.68 1106  297 1106  " fill-rule="nonzero" fill="#797979" stroke="none" />
</svg>