<?xml version="1.0" encoding="utf-8"?>
<svg version="1.1" xmlns:xlink="http://www.w3.org/1999/xlink" width="12px" height="12px" viewBox="401 1097  12 12" xmlns="http://www.w3.org/2000/svg">
  <path d="M 407 1097  C 410.36 1097  413 1099.64  413 1103  C 413 1106.36  410.36 1109  407 1109  C 403.64 1109  401 1106.36  401 1103  C 401 1099.64  403.64 1097  407 1097  Z " fill-rule="nonzero" fill="#f0f0f0" stroke="none" />
  <path d="M 407 1097.5  C 410.08 1097.5  412.5 1099.92  412.5 1103  C 412.5 1106.08  410.08 1108.5  407 1108.5  C 403.92 1108.5  401.5 1106.08  401.5 1103  C 401.5 1099.92  403.92 1097.5  407 1097.5  Z " stroke-width="1" stroke="#797979" fill="none" />
  <path d="M 407 1106  C 405.32 1106  404 1104.68  404 1103  C 404 1101.32  405.32 1100  407 1100  C 408.68 1100  410 1101.32  410 1103  C 410 1104.68  408.68 1106  407 1106  " fill-rule="nonzero" fill="#797979" stroke="none" />
</svg>