<?xml version="1.0" encoding="utf-8"?>
<svg version="1.1" xmlns:xlink="http://www.w3.org/1999/xlink" width="15px" height="15px" xmlns="http://www.w3.org/2000/svg">
  <g transform="matrix(1 0 0 1 -13 -3 )">
    <path d="M 13 3  L 28 3  L 28 18  L 13 18  L 13 3  " fill-rule="nonzero" fill="#cccccc" stroke="none" />
    <path d="M 14 4  L 27 4  L 27 17  L 14 17  L 14 4  " fill-rule="nonzero" fill="#ffffff" stroke="none" />
    <path d="M 21.925 7.5  C 21.295 7.5  20.8 7.005  20.8 6.375  C 20.8 5.745  21.295 5.25  21.925 5.25  C 22.555 5.25  23.05 5.745  23.05 6.375  C 23.05 7.005  22.555 7.5  21.925 7.5  " fill-rule="nonzero" fill="#cccccc" stroke="none" />
    <path d="M 15 17  L 15 10.4  L 18 7.4  L 22.2 9.8  L 24.6 9.2  L 27 9.8  L 27 17  L 15 17  " fill-rule="nonzero" fill="#169bd5" stroke="none" />
  </g>
</svg>