<svg t="1614076982006" class="icon" viewBox="0 0 2048 1024" version="1.1" xmlns="http://www.w3.org/2000/svg" p-id="10393" width="200" height="200"><path d="M95.310769 0h1812.243693c52.696615 0 95.310769 42.692923 95.310769 95.310769v763.982769a95.310769 95.310769 0 0 1-95.310769 95.31077H95.310769A95.310769 95.310769 0 0 1 0 859.372308V95.310769C0 42.692923 42.692923 0 95.310769 0z m277.897846 344.851692v47.419077h247.729231c-2.126769 10.003692-4.174769 20.007385-6.065231 30.011077H455.364923v291.131077H361.235692v49.388308h600.851693v-49.388308h-94.129231V422.360615H677.021538l6.616616-30.089846h266.397538v-47.419077h-258.363077c1.339077-10.633846 2.048-20.637538 3.387077-31.350154h212.913231V180.617846H415.271385V313.501538h216.300307c-1.339077 10.003692-1.969231 20.716308-3.308307 31.350154H373.208615zM1288.349538 181.956923v61.44h135.483077c-1.969231 19.377231-4.647385 38.045538-7.325538 56.713846h-113.427692v323.820308h62.070153V358.242462h184.871385v265.058461h62.148923V300.110769h-131.544615c2.678154-17.959385 5.356308-36.706462 8.034461-56.713846h141.548308v-61.44h-341.858462z m229.691077 438.665846l-43.401846 41.353846c49.388308 40.093538 88.772923 77.508923 116.814769 112.167385l46.08-46.08c-32.059077-35.997538-72.152615-71.364923-119.492923-107.441231z m-94.12923-229.691077v118.153846c-2.678154 53.405538-17.329231 97.516308-42.771693 130.914462-25.363692 31.350154-73.412923 57.422769-145.565538 78.060308l34.107077 54.114461c74.752-22.055385 128.157538-52.775385 161.476923-92.16 33.476923-42.692923 52.145231-99.485538 54.823384-170.929231v-118.153846h-62.070153zM1128.763077 764.849231c43.401846 0 65.378462-22.764308 65.378461-68.135385V243.396923h74.83077v-61.44h-236.307693v61.44h97.437539v437.326769c0 18.668308-8.034462 28.041846-23.394462 28.041846-20.007385 0-42.062769-1.339077-64.748307-4.01723l14.020923 60.100923h72.782769z" fill="#FF2851" p-id="10394"></path><path d="M518.065231 713.412923h287.113846v-35.446154H518.065231v35.446154z m0-72.782769h287.113846V607.310769H518.065231v33.398154z m0-71.443692h287.113846v-33.398154H518.065231v33.398154z m0-71.443693h287.113846v-32.689231H518.065231v32.689231z m41.432615-227.643077v-43.323077H475.372308v43.323077h84.125538z m288.452923 0v-43.323077H763.825231v43.323077h84.125538z m-140.918154 0v-43.323077H616.211692v43.323077h90.820923z" fill="#FF2851" p-id="10395"></path></svg>