<?xml version="1.0" encoding="utf-8"?>
<svg version="1.1" xmlns:xlink="http://www.w3.org/1999/xlink" width="12px" height="12px" viewBox="952 231  12 12" xmlns="http://www.w3.org/2000/svg">
  <path d="M 958 231  C 961.36 231  964 233.64  964 237  C 964 240.36  961.36 243  958 243  C 954.64 243  952 240.36  952 237  C 952 233.64  954.64 231  958 231  Z " fill-rule="nonzero" fill="#ffffff" stroke="none" />
  <path d="M 958 231.5  C 961.08 231.5  963.5 233.92  963.5 237  C 963.5 240.08  961.08 242.5  958 242.5  C 954.92 242.5  952.5 240.08  952.5 237  C 952.5 233.92  954.92 231.5  958 231.5  Z " stroke-width="1" stroke="#797979" fill="none" />
  <path d="M 958 240  C 956.32 240  955 238.68  955 237  C 955 235.32  956.32 234  958 234  C 959.68 234  961 235.32  961 237  C 961 238.68  959.68 240  958 240  " fill-rule="nonzero" fill="#797979" stroke="none" />
</svg>