<?xml version="1.0" encoding="utf-8"?>
<svg version="1.1" xmlns:xlink="http://www.w3.org/1999/xlink" width="12px" height="12px" viewBox="847 231  12 12" xmlns="http://www.w3.org/2000/svg">
  <path d="M 853 231  C 856.36 231  859 233.64  859 237  C 859 240.36  856.36 243  853 243  C 849.64 243  847 240.36  847 237  C 847 233.64  849.64 231  853 231  Z " fill-rule="nonzero" fill="#ffffff" stroke="none" />
  <path d="M 853 231.5  C 856.08 231.5  858.5 233.92  858.5 237  C 858.5 240.08  856.08 242.5  853 242.5  C 849.92 242.5  847.5 240.08  847.5 237  C 847.5 233.92  849.92 231.5  853 231.5  Z " stroke-width="1" stroke="#797979" fill="none" />
  <path d="M 853 240  C 851.32 240  850 238.68  850 237  C 850 235.32  851.32 234  853 234  C 854.68 234  856 235.32  856 237  C 856 238.68  854.68 240  853 240  " fill-rule="nonzero" fill="#797979" stroke="none" />
</svg>