<?xml version="1.0" encoding="utf-8"?>
<svg version="1.1" xmlns:xlink="http://www.w3.org/1999/xlink" width="12px" height="12px" viewBox="263 212  12 12" xmlns="http://www.w3.org/2000/svg">
  <path d="M 269 212  C 272.36 212  275 214.64  275 218  C 275 221.36  272.36 224  269 224  C 265.64 224  263 221.36  263 218  C 263 214.64  265.64 212  269 212  Z " fill-rule="nonzero" fill="#ffffff" stroke="none" />
  <path d="M 269 212.5  C 272.08 212.5  274.5 214.92  274.5 218  C 274.5 221.08  272.08 223.5  269 223.5  C 265.92 223.5  263.5 221.08  263.5 218  C 263.5 214.92  265.92 212.5  269 212.5  Z " stroke-width="1" stroke="#797979" fill="none" />
  <path d="M 269 221  C 267.32 221  266 219.68  266 218  C 266 216.32  267.32 215  269 215  C 270.68 215  272 216.32  272 218  C 272 219.68  270.68 221  269 221  " fill-rule="nonzero" fill="#797979" stroke="none" />
</svg>