<?xml version="1.0" encoding="utf-8"?>
<svg version="1.1" xmlns:xlink="http://www.w3.org/1999/xlink" width="12px" height="12px" viewBox="263 249  12 12" xmlns="http://www.w3.org/2000/svg">
  <path d="M 269 249  C 272.36 249  275 251.64  275 255  C 275 258.36  272.36 261  269 261  C 265.64 261  263 258.36  263 255  C 263 251.64  265.64 249  269 249  Z " fill-rule="nonzero" fill="#f0f0f0" stroke="none" />
  <path d="M 269 249.5  C 272.08 249.5  274.5 251.92  274.5 255  C 274.5 258.08  272.08 260.5  269 260.5  C 265.92 260.5  263.5 258.08  263.5 255  C 263.5 251.92  265.92 249.5  269 249.5  Z " stroke-width="1" stroke="#797979" fill="none" />
  <path d="M 269 258  C 267.32 258  266 256.68  266 255  C 266 253.32  267.32 252  269 252  C 270.68 252  272 253.32  272 255  C 272 256.68  270.68 258  269 258  " fill-rule="nonzero" fill="#797979" stroke="none" />
</svg>