<?xml version="1.0" encoding="utf-8"?>
<svg version="1.1" xmlns:xlink="http://www.w3.org/1999/xlink" width="12px" height="12px" viewBox="263 177  12 12" xmlns="http://www.w3.org/2000/svg">
  <path d="M 269 177  C 272.36 177  275 179.64  275 183  C 275 186.36  272.36 189  269 189  C 265.64 189  263 186.36  263 183  C 263 179.64  265.64 177  269 177  Z " fill-rule="nonzero" fill="#ffffff" stroke="none" />
  <path d="M 269 177.5  C 272.08 177.5  274.5 179.92  274.5 183  C 274.5 186.08  272.08 188.5  269 188.5  C 265.92 188.5  263.5 186.08  263.5 183  C 263.5 179.92  265.92 177.5  269 177.5  Z " stroke-width="1" stroke="#797979" fill="none" />
  <path d="M 269 186  C 267.32 186  266 184.68  266 183  C 266 181.32  267.32 180  269 180  C 270.68 180  272 181.32  272 183  C 272 184.68  270.68 186  269 186  " fill-rule="nonzero" fill="#797979" stroke="none" />
</svg>