<?xml version="1.0" encoding="utf-8"?>
<svg version="1.1" xmlns:xlink="http://www.w3.org/1999/xlink" width="12px" height="12px" viewBox="400 815  12 12" xmlns="http://www.w3.org/2000/svg">
  <path d="M 406 815  C 409.36 815  412 817.64  412 821  C 412 824.36  409.36 827  406 827  C 402.64 827  400 824.36  400 821  C 400 817.64  402.64 815  406 815  Z " fill-rule="nonzero" fill="#f0f0f0" stroke="none" />
  <path d="M 406 815.5  C 409.08 815.5  411.5 817.92  411.5 821  C 411.5 824.08  409.08 826.5  406 826.5  C 402.92 826.5  400.5 824.08  400.5 821  C 400.5 817.92  402.92 815.5  406 815.5  Z " stroke-width="1" stroke="#797979" fill="none" />
  <path d="M 406 824  C 404.32 824  403 822.68  403 821  C 403 819.32  404.32 818  406 818  C 407.68 818  409 819.32  409 821  C 409 822.68  407.68 824  406 824  " fill-rule="nonzero" fill="#797979" stroke="none" />
</svg>