<svg t="1609228344779" class="icon" viewBox="0 0 1024 1024" version="1.1" xmlns="http://www.w3.org/2000/svg" p-id="17440" width="200" height="200"><path d="M512 0a512 512 0 0 1 512 512 512 512 0 0 1-512 512A512 512 0 0 1 0 512 512 512 0 0 1 512 0z" fill="#F2A134" p-id="17441"></path><path d="M346.368 708.096a291.072 291.072 0 0 1-52.992-48.896l-51.2 51.2 28.928 5.376a23.04 23.04 0 0 1 18.176 18.176l5.632 29.184z m368.384-102.4a237.568 237.568 0 1 0-9.216 13.568z m-36.352 105.216l54.016 54.016 5.376-28.928a23.552 23.552 0 0 1 17.408-17.664l28.928-5.376-53.248-52.48a281.6 281.6 0 0 1-53.504 51.2z m-41.216 25.6a281.6 281.6 0 0 1-249.344 0l-92.16 90.624a22.784 22.784 0 0 1-32.256 0 22.272 22.272 0 0 1-6.4-12.032l-11.264-55.808-55.296-12.8a23.04 23.04 0 0 1-17.664-27.392 25.6 25.6 0 0 1 6.4-11.008l86.784-87.04a283.392 283.392 0 1 1 491.264 2.304L844.8 711.936a23.552 23.552 0 0 1 5.632 23.296 22.016 22.016 0 0 1-17.408 15.872l-55.296 11.008-9.728 55.552a23.04 23.04 0 0 1-27.136 18.176 20.736 20.736 0 0 1-11.776-6.4z" fill="#FFFFFF" p-id="17442"></path><path d="M512 600.832A113.664 113.664 0 1 1 625.664 486.4 113.664 113.664 0 0 1 512 600.832z m0-188.928A75.264 75.264 0 1 0 587.264 486.4 75.264 75.264 0 0 0 512 411.904z" fill="#FFFFFF" p-id="17443"></path></svg>