<svg t="1609229410601" class="icon" viewBox="0 0 1024 1024" version="1.1" xmlns="http://www.w3.org/2000/svg" p-id="19891" width="200" height="200"><path d="M974.093863 1024h-924.187726c-27.232732 0-49.290012-22.05728-49.290012-49.290012V50.522262c0-27.232732 22.05728-49.290012 49.290012-49.290012h924.187726c27.232732 0 49.290012 22.05728 49.290012 49.290012v924.187726c0 27.232732-22.05728 49.290012-49.290012 49.290012z" fill="#27A160" p-id="19892"></path><path d="M678.230566 177.320818c32.901083 0 73.565343 9.981227 95.129723 42.266186 21.687605 32.408183 24.275331 77.878219 24.275331 127.045006v20.08568h-36.967509v-20.08568c0-31.792058 1.355475-72.333093-12.692178-93.404573-14.047653-20.948255-40.294585-36.104934-61.48929-36.104934H288.10012c-20.701805 0-45.839711 14.170878-59.764139 34.256558-14.910229 22.550181-17.497954 63.584116-17.497955 95.252949v331.22888c0 31.052708 2.957401 67.896992 16.388929 88.722022 14.910229 22.426955 40.66426 38.322984 61.858966 38.322985h393.334296c21.194705 0 45.100361-17.128279 59.148014-37.95331 14.170878-21.07148 19.09988-57.299639 19.09988-89.091697v-20.085679h36.967509v20.085679c0 49.166787-5.668351 89.461372-27.355957 121.869555l-18.730205-22.180505 18.730205 22.30373c-21.934055 32.654633-59.394465 47.441637-92.049097 47.441637H293.275572c-32.777858 0-71.840193-13.801203-93.527798-46.209386l20.208905-21.810831-20.33213 21.934056c-0.369675-0.616125-0.862575-1.23225-1.232251-1.971601-20.948255-32.284958-25.384356-73.072443-25.384356-121.253429V346.755235c0-49.290012 4.189651-91.802647 25.754032-124.210831 0.369675-0.616125 0.862575-1.23225 1.355475-1.848375 21.56438-31.299158 60.873165-43.375211 93.034898-43.375211h385.078219z m0 0" fill="#FFFFFF" p-id="19893"></path><path d="M350.575211 354.271961c-11.706378 0-21.07148 11.583153-21.071481 25.877257s9.488327 25.877256 21.071481 25.877256h251.379061c11.706378 0 21.07148-11.583153 21.07148-25.877256s-9.488327-25.877256-21.07148-25.877257h-251.379061z m0 0M348.35716 487.724669c-11.706378 0-21.07148 11.829603-21.07148 26.370157 0 14.540554 9.488327 26.246931 21.07148 26.246931h178.799519c11.706378 0 21.07148-11.829603 21.07148-26.246931 0-14.540554-9.488327-26.370156-21.07148-26.370157H348.35716z m0 0" fill="#FFFFFF" p-id="19894"></path><path d="M349.466185 623.272202c-11.706378 0-21.07148 11.829603-21.07148 26.246932 0 14.540554 9.488327 26.246931 21.07148 26.246931h103.878701c11.706378 0 21.07148-11.829603 21.07148-26.246931 0-14.540554-9.488327-26.246931-21.07148-26.246932h-103.878701z m0 0M795.540794 401.467148s29.943682-8.625752 46.332612 9.241877 5.668351 43.868111 5.668351 43.868111L631.158604 642.618532l-52.000963-52.986763 216.383153-188.164621z m0 0" fill="#FFFFFF" p-id="19895"></path><path d="M568.067389 599.243321l51.754512 53.233213-86.996871 26.863057 35.242359-80.09627z m0 0" fill="#FFFFFF" p-id="19896"></path></svg>