<svg t="1609229554930" class="icon" viewBox="0 0 1024 1024" version="1.1" xmlns="http://www.w3.org/2000/svg" p-id="21518" width="200" height="200"><path d="M529.3 242.29l-0.19 0.03c-215.87 0.1-390.76 175.17-390.67 391.01 0.13 215.87 175.18 390.75 391.05 390.66 215.77-0.1 390.66-175.04 390.66-390.85 0-215.87-174.99-390.85-390.85-390.85zM923.3 51.06c3.43-4.69 5.38-10.3 5.6-16.11-0.23-15.35-12.74-27.67-28.1-27.67H659.24c-12.71-0.01-23.75 8.76-26.62 21.15l-74.73 147.03s159.68 9.61 253.83 100.19L923.3 51.06zM478.86 175.46L404.13 28.43c-2.85-12.39-13.89-21.17-26.6-21.15H136.01c-15.36 0.02-27.87 12.34-28.11 27.7 0.23 5.81 2.17 11.42 5.61 16.12L225 275.65c94.17-90.62 253.86-100.19 253.86-100.19z" fill="#FBC95F" p-id="21519"></path><path d="M529.3 300.27l-0.16 0.03c-182.36 0.08-330.11 147.98-330.03 330.33 0.11 182.36 147.98 330.1 330.35 330.03 182.29-0.08 330.02-147.88 330.02-330.19 0-182.37-147.82-330.2-330.18-330.2z" fill="#F8650D" p-id="21520"></path><path d="M709.91 601.48l-70.07 68.02 16.7 96.32c5.57 32.42-13.04 46.58-42.7 31.05l-86.3-45.21-86.31 45.21c-28.77 15.07-48.26 2.29-42.67-31.05l16.7-96.32-70.07-68.04c-23.69-22.83-16.72-45.21 16.24-49.78l96.53-14.15 43.16-87.65c14.39-29.23 37.59-30.14 52.43 0l43.16 87.65 96.5 14.15c32.94 4.59 40.36 26.51 16.7 49.8z" fill="#FFFFFF" p-id="21521"></path></svg>