<svg t="1609230662020" class="icon" viewBox="0 0 1024 1024" version="1.1" xmlns="http://www.w3.org/2000/svg" p-id="22209" width="200" height="200"><path d="M178.944 982.4768c-56.32 0-102.144-45.824-102.144-102.144v-778.24C76.8 45.824 122.624 0 178.944 0h574.1568c50.944 0 92.3648 37.1712 99.9936 86.3744 0.512 1.7408 1.2288 266.24 2.1504 793.3952a102.4 102.4 0 0 1-102.4 102.6048l-573.952 0.1024z" fill="#F5841F" p-id="22210"></path><path d="M792.2688 427.9296a63.6416 63.6416 0 0 0-89.088 0L457.6256 672.768c-9.6256 7.2704-14.4384 16.9472-16.8448 29.0816L409.6 881.152c0 14.5408 4.7616 31.5392 14.3872 41.216 9.6256 9.728 21.6576 14.5408 36.1472 14.5408h7.168l178.176-31.488c12.032-2.4576 21.6576-7.2704 28.8768-16.9984l245.5552-244.7872c12.032-12.1344 19.2512-26.6752 19.2512-43.6736 0-16.9472-7.168-31.488-19.2512-43.6224l-127.5904-128.512z" fill="#F5841F" p-id="22211"></path><path d="M325.9392 595.456H221.3376c-13.056 0-23.808-15.36-23.808-34.0992 0-18.688 10.752-34.048 23.808-34.048h104.6016c13.1072 0 23.808 15.36 23.808 34.048 0 18.7392-10.752 34.048-23.808 34.048z m23.808 143.9744c0 18.7392-10.7008 34.048-23.808 34.048H221.3376c-13.056 0-23.808-15.3088-23.808-34.048 0-18.688 10.752-33.9968 23.808-33.9968h104.6016c13.1072 0 23.808 15.3088 23.808 33.9968zM231.5776 417.3312a34.1504 34.1504 0 0 1-34.048-34.048c0-18.7392 15.36-34.048 34.048-34.048h261.1712c18.7392 0 34.048 15.36 34.048 34.048 0 18.688-15.36 34.048-34.048 34.048H231.5776z m0-178.0736a34.1504 34.1504 0 0 1-34.048-34.048c0-18.7392 15.36-34.048 34.048-34.048h467.0976c18.7392 0 34.048 15.36 34.048 34.048 0 18.688-15.36 34.048-34.048 34.048H231.5776zM640.6144 856.9856l-180.5824 31.488 31.3344-179.3536 180.5312-179.4048 149.248 147.8656-180.5312 179.4048z m245.5552-247.296l-33.7408 36.352-149.248-147.8144 33.7408-33.9456c4.8128-4.864 14.4384-4.864 21.6576 0l127.5904 128.512a18.432 18.432 0 0 1 4.8128 9.6768c0 2.4064-2.4064 4.8128-4.8128 7.2704z" fill="#FFFFFF" p-id="22212"></path><path d="M596.1216 818.944c4.608 0 9.216-1.792 12.8-5.2736l130.7648-130.3552a18.0736 18.0736 0 1 0-25.4464-25.6l-130.8672 130.3552a18.0736 18.0736 0 0 0 12.8 30.8736zM688.2304 606.4128a18.0736 18.0736 0 0 0-25.5488 0l-130.816 130.304a18.0736 18.0736 0 1 0 25.4976 25.6l130.816-130.3552a18.0736 18.0736 0 0 0 0-25.5488z" fill="#F5841F" p-id="22213"></path></svg>