<svg t="1609222538004" class="icon" viewBox="0 0 1024 1024" version="1.1" xmlns="http://www.w3.org/2000/svg" p-id="16132" width="200" height="200"><path d="M512.01 512.75m-448 0a448 448 0 1 0 896 0 448 448 0 1 0-896 0Z" fill="#EAEFFF" p-id="16133"></path><path d="M501.71 294.97c-1.86-2.49-2.85 0-2.85 0L444.64 740.3l58.54 1.22-1.47-446.55zM405.32 648.5l-4.12-26.87-14.36 22.01-29.08-0.86 18.48 19.45-11.62 25.62 26-13.22 19.45 18.51-1.35-27.84 25.29-11.44-28.73-5.34 0.04-0.02z m50.56-165.63l-29.41 9.25-13.65-26-8.9 37.09-31.47 16.32 24.96 5.74-5.8 37.57 24.28-31.39 28.72 8.89-10.27-29.21 21.54-28.26zM320.8 545.14l-16.37 22.09-21.2 3.51 12.96 14.16-11.95 24.3 21.2-16.78 15 14.59 1.04-23.39 18.48-15.02-19.47-0.91 0.31-22.55z m39.02-76.38l9.56-11.95-12.3 3.1-6.51-11.49-5.85 17.67-16.01 7.96 10.93 2.67-2.72 15.89 12.96-14.57 12.99 4.83-3.05-14.11z m56.05-62.71l6.18 3.56 2.75-8.9 9.53-7.5-7.5-1.32v-7.06l-7.88 9.3-10.6 1.78 3.74 7.02-6.48 9.28 10.26-6.16z m266.45-65.76s-45.63-29.16-131.98-8.69c0 0 110.35-10.53 138.18 73.82 0 0 19.22 85.56-46.52 151.32 0 0-47.53 52.75-79.23 65.73l-42.2-336.73s-3.36-5.57-3.36 3.13v447.74s51.35-17.97 56.13-26.69l-6.71-55.79s141.1-70.72 169.88-187.9c0 0 26.87-86.22-54.2-125.9v-0.04z m0 0" fill="#3160FF" p-id="16134"></path></svg>