<svg t="1609228406146" class="icon" viewBox="0 0 1024 1024" version="1.1" xmlns="http://www.w3.org/2000/svg" p-id="19004" width="200" height="200"><path d="M711.111111 995.555556c-157.098667 0-284.444444-127.345778-284.444444-284.444445s127.345778-284.444444 284.444444-284.444444 284.444444 127.345778 284.444445 284.444444-127.345778 284.444444-284.444445 284.444445z m0-56.888889a227.555556 227.555556 0 1 0 0-455.111111 227.555556 227.555556 0 0 0 0 455.111111z" fill="#43B4D2" p-id="19005"></path><path d="M853.333333 369.777778a28.444444 28.444444 0 0 1-56.888889 0V113.777778H113.777778v796.444444h284.444444a28.444444 28.444444 0 0 1 0 56.888889H113.777778a56.888889 56.888889 0 0 1-56.888889-56.888889V113.777778a56.888889 56.888889 0 0 1 56.888889-56.888889h682.666666a56.888889 56.888889 0 0 1 56.888889 56.888889v256z" fill="#43B4D2" p-id="19006"></path><path d="M699.619556 764.956444a23.836444 23.836444 0 0 1 22.983111 0l28.302222 15.502223-5.404445-32.824889a26.453333 26.453333 0 0 1 7.111112-22.812445l22.897777-23.239111-31.658666-4.807111a24.803556 24.803556 0 0 1-18.602667-14.08L711.111111 652.828444 696.974222 682.666667a24.803556 24.803556 0 0 1-18.602666 14.08l-31.658667 4.807111 22.897778 23.239111a26.453333 26.453333 0 0 1 7.111111 22.812444l-5.404445 32.824889 28.302223-15.502222z m-49.635556 85.361778c-18.119111 9.955556-39.310222-6.115556-35.84-27.136l11.662222-70.912-49.436444-50.232889c-14.648889-14.904889-6.542222-40.846222 13.710222-43.918222l68.323556-10.353778 30.549333-64.512a24.263111 24.263111 0 0 1 44.316444 0l30.549334 64.512 68.323555 10.353778c20.280889 3.072 28.359111 29.013333 13.710222 43.918222l-49.436444 50.232889 11.662222 70.912c3.470222 21.048889-17.720889 37.063111-35.84 27.136L711.111111 816.839111l-61.127111 33.479111z" fill="#43B4D2" p-id="19007"></path><path d="M170.666667 256m28.444444 0l341.333333 0q28.444444 0 28.444445 28.444444l0 0q0 28.444444-28.444445 28.444445l-341.333333 0q-28.444444 0-28.444444-28.444445l0 0q0-28.444444 28.444444-28.444444Z" fill="#43B4D2" p-id="19008"></path><path d="M170.666667 426.666667m28.444444 0l227.555556 0q28.444444 0 28.444444 28.444444l0 0q0 28.444444-28.444444 28.444445l-227.555556 0q-28.444444 0-28.444444-28.444445l0 0q0-28.444444 28.444444-28.444444Z" fill="#43B4D2" p-id="19009"></path><path d="M170.666667 597.333333m28.444444 0l113.777778 0q28.444444 0 28.444444 28.444445l0 0q0 28.444444-28.444444 28.444444l-113.777778 0q-28.444444 0-28.444444-28.444444l0 0q0-28.444444 28.444444-28.444445Z" fill="#43B4D2" p-id="19010"></path></svg>