<?xml version="1.0" encoding="utf-8"?>
<svg version="1.1" xmlns:xlink="http://www.w3.org/1999/xlink" width="12px" height="12px" viewBox="267 1071  12 12" xmlns="http://www.w3.org/2000/svg">
  <path d="M 273 1071  C 276.36 1071  279 1073.64  279 1077  C 279 1080.36  276.36 1083  273 1083  C 269.64 1083  267 1080.36  267 1077  C 267 1073.64  269.64 1071  273 1071  Z " fill-rule="nonzero" fill="#ffffff" stroke="none" />
  <path d="M 273 1071.5  C 276.08 1071.5  278.5 1073.92  278.5 1077  C 278.5 1080.08  276.08 1082.5  273 1082.5  C 269.92 1082.5  267.5 1080.08  267.5 1077  C 267.5 1073.92  269.92 1071.5  273 1071.5  Z " stroke-width="1" stroke="#797979" fill="none" />
  <path d="M 273 1080  C 271.32 1080  270 1078.68  270 1077  C 270 1075.32  271.32 1074  273 1074  C 274.68 1074  276 1075.32  276 1077  C 276 1078.68  274.68 1080  273 1080  " fill-rule="nonzero" fill="#797979" stroke="none" />
</svg>