<?xml version="1.0" encoding="utf-8"?>
<svg version="1.1" xmlns:xlink="http://www.w3.org/1999/xlink" width="12px" height="12px" viewBox="359 1071  12 12" xmlns="http://www.w3.org/2000/svg">
  <path d="M 365 1071  C 368.36 1071  371 1073.64  371 1077  C 371 1080.36  368.36 1083  365 1083  C 361.64 1083  359 1080.36  359 1077  C 359 1073.64  361.64 1071  365 1071  Z " fill-rule="nonzero" fill="#ffffff" stroke="none" />
  <path d="M 365 1071.5  C 368.08 1071.5  370.5 1073.92  370.5 1077  C 370.5 1080.08  368.08 1082.5  365 1082.5  C 361.92 1082.5  359.5 1080.08  359.5 1077  C 359.5 1073.92  361.92 1071.5  365 1071.5  Z " stroke-width="1" stroke="#797979" fill="none" />
  <path d="M 365 1080  C 363.32 1080  362 1078.68  362 1077  C 362 1075.32  363.32 1074  365 1074  C 366.68 1074  368 1075.32  368 1077  C 368 1078.68  366.68 1080  365 1080  " fill-rule="nonzero" fill="#797979" stroke="none" />
</svg>