<?xml version="1.0" encoding="utf-8"?>
<svg version="1.1" xmlns:xlink="http://www.w3.org/1999/xlink" width="12px" height="12px" viewBox="188 1111  12 12" xmlns="http://www.w3.org/2000/svg">
  <path d="M 194 1111  C 197.36 1111  200 1113.64  200 1117  C 200 1120.36  197.36 1123  194 1123  C 190.64 1123  188 1120.36  188 1117  C 188 1113.64  190.64 1111  194 1111  Z " fill-rule="nonzero" fill="#ffffff" stroke="none" />
  <path d="M 194 1111.5  C 197.08 1111.5  199.5 1113.92  199.5 1117  C 199.5 1120.08  197.08 1122.5  194 1122.5  C 190.92 1122.5  188.5 1120.08  188.5 1117  C 188.5 1113.92  190.92 1111.5  194 1111.5  Z " stroke-width="1" stroke="#797979" fill="none" />
  <path d="M 194 1120  C 192.32 1120  191 1118.68  191 1117  C 191 1115.32  192.32 1114  194 1114  C 195.68 1114  197 1115.32  197 1117  C 197 1118.68  195.68 1120  194 1120  " fill-rule="nonzero" fill="#797979" stroke="none" />
</svg>