<?xml version="1.0" encoding="utf-8"?>
<svg version="1.1" xmlns:xlink="http://www.w3.org/1999/xlink" width="12px" height="12px" viewBox="281 1111  12 12" xmlns="http://www.w3.org/2000/svg">
  <path d="M 287 1111  C 290.36 1111  293 1113.64  293 1117  C 293 1120.36  290.36 1123  287 1123  C 283.64 1123  281 1120.36  281 1117  C 281 1113.64  283.64 1111  287 1111  Z " fill-rule="nonzero" fill="#ffffff" stroke="none" />
  <path d="M 287 1111.5  C 290.08 1111.5  292.5 1113.92  292.5 1117  C 292.5 1120.08  290.08 1122.5  287 1122.5  C 283.92 1122.5  281.5 1120.08  281.5 1117  C 281.5 1113.92  283.92 1111.5  287 1111.5  Z " stroke-width="1" stroke="#797979" fill="none" />
  <path d="M 287 1120  C 285.32 1120  284 1118.68  284 1117  C 284 1115.32  285.32 1114  287 1114  C 288.68 1114  290 1115.32  290 1117  C 290 1118.68  288.68 1120  287 1120  " fill-rule="nonzero" fill="#797979" stroke="none" />
</svg>