<?xml version="1.0" encoding="utf-8"?>
<svg version="1.1" xmlns:xlink="http://www.w3.org/1999/xlink" width="12px" height="12px" viewBox="196 9  12 12" xmlns="http://www.w3.org/2000/svg">
  <path d="M 202 9  C 205.36 9  208 11.64  208 15  C 208 18.36  205.36 21  202 21  C 198.64 21  196 18.36  196 15  C 196 11.64  198.64 9  202 9  Z " fill-rule="nonzero" fill="#ffffff" stroke="none" />
  <path d="M 202 9.5  C 205.08 9.5  207.5 11.92  207.5 15  C 207.5 18.08  205.08 20.5  202 20.5  C 198.92 20.5  196.5 18.08  196.5 15  C 196.5 11.92  198.92 9.5  202 9.5  Z " stroke-width="1" stroke="#797979" fill="none" />
  <path d="M 202 18  C 200.32 18  199 16.68  199 15  C 199 13.32  200.32 12  202 12  C 203.68 12  205 13.32  205 15  C 205 16.68  203.68 18  202 18  " fill-rule="nonzero" fill="#797979" stroke="none" />
</svg>