<?xml version="1.0" encoding="utf-8"?>
<svg version="1.1" xmlns:xlink="http://www.w3.org/1999/xlink" width="12px" height="12px" viewBox="288 9  12 12" xmlns="http://www.w3.org/2000/svg">
  <path d="M 294 9  C 297.36 9  300 11.64  300 15  C 300 18.36  297.36 21  294 21  C 290.64 21  288 18.36  288 15  C 288 11.64  290.64 9  294 9  Z " fill-rule="nonzero" fill="#ffffff" stroke="none" />
  <path d="M 294 9.5  C 297.08 9.5  299.5 11.92  299.5 15  C 299.5 18.08  297.08 20.5  294 20.5  C 290.92 20.5  288.5 18.08  288.5 15  C 288.5 11.92  290.92 9.5  294 9.5  Z " stroke-width="1" stroke="#797979" fill="none" />
  <path d="M 294 18  C 292.32 18  291 16.68  291 15  C 291 13.32  292.32 12  294 12  C 295.68 12  297 13.32  297 15  C 297 16.68  295.68 18  294 18  " fill-rule="nonzero" fill="#797979" stroke="none" />
</svg>