<?xml version="1.0" encoding="utf-8"?>
<svg version="1.1" xmlns:xlink="http://www.w3.org/1999/xlink" width="12px" height="12px" viewBox="117 9  12 12" xmlns="http://www.w3.org/2000/svg">
  <path d="M 123 9  C 126.36 9  129 11.64  129 15  C 129 18.36  126.36 21  123 21  C 119.64 21  117 18.36  117 15  C 117 11.64  119.64 9  123 9  Z " fill-rule="nonzero" fill="#f0f0f0" stroke="none" />
  <path d="M 123 9.5  C 126.08 9.5  128.5 11.92  128.5 15  C 128.5 18.08  126.08 20.5  123 20.5  C 119.92 20.5  117.5 18.08  117.5 15  C 117.5 11.92  119.92 9.5  123 9.5  Z " stroke-width="1" stroke="#797979" fill="none" />
  <path d="M 123 18  C 121.32 18  120 16.68  120 15  C 120 13.32  121.32 12  123 12  C 124.68 12  126 13.32  126 15  C 126 16.68  124.68 18  123 18  " fill-rule="nonzero" fill="#797979" stroke="none" />
</svg>