<?xml version="1.0" encoding="utf-8"?>
<svg version="1.1" xmlns:xlink="http://www.w3.org/1999/xlink" width="12px" height="12px" viewBox="210 58  12 12" xmlns="http://www.w3.org/2000/svg">
  <path d="M 216 58  C 219.36 58  222 60.64  222 64  C 222 67.36  219.36 70  216 70  C 212.64 70  210 67.36  210 64  C 210 60.64  212.64 58  216 58  Z " fill-rule="nonzero" fill="#f0f0f0" stroke="none" />
  <path d="M 216 58.5  C 219.08 58.5  221.5 60.92  221.5 64  C 221.5 67.08  219.08 69.5  216 69.5  C 212.92 69.5  210.5 67.08  210.5 64  C 210.5 60.92  212.92 58.5  216 58.5  Z " stroke-width="1" stroke="#797979" fill="none" />
  <path d="M 216 67  C 214.32 67  213 65.68  213 64  C 213 62.32  214.32 61  216 61  C 217.68 61  219 62.32  219 64  C 219 65.68  217.68 67  216 67  " fill-rule="nonzero" fill="#797979" stroke="none" />
</svg>