<?xml version="1.0" encoding="utf-8"?>
<svg version="1.1" xmlns:xlink="http://www.w3.org/1999/xlink" width="12px" height="12px" viewBox="342 58  12 12" xmlns="http://www.w3.org/2000/svg">
  <path d="M 348 58  C 351.36 58  354 60.64  354 64  C 354 67.36  351.36 70  348 70  C 344.64 70  342 67.36  342 64  C 342 60.64  344.64 58  348 58  Z " fill-rule="nonzero" fill="#f0f0f0" stroke="none" />
  <path d="M 348 58.5  C 351.08 58.5  353.5 60.92  353.5 64  C 353.5 67.08  351.08 69.5  348 69.5  C 344.92 69.5  342.5 67.08  342.5 64  C 342.5 60.92  344.92 58.5  348 58.5  Z " stroke-width="1" stroke="#797979" fill="none" />
  <path d="M 348 67  C 346.32 67  345 65.68  345 64  C 345 62.32  346.32 61  348 61  C 349.68 61  351 62.32  351 64  C 351 65.68  349.68 67  348 67  " fill-rule="nonzero" fill="#797979" stroke="none" />
</svg>