<?xml version="1.0" encoding="utf-8"?>
<svg version="1.1" xmlns:xlink="http://www.w3.org/1999/xlink" width="12px" height="12px" viewBox="206 9  12 12" xmlns="http://www.w3.org/2000/svg">
  <path d="M 212 9  C 215.36 9  218 11.64  218 15  C 218 18.36  215.36 21  212 21  C 208.64 21  206 18.36  206 15  C 206 11.64  208.64 9  212 9  Z " fill-rule="nonzero" fill="#ffffff" stroke="none" />
  <path d="M 212 9.5  C 215.08 9.5  217.5 11.92  217.5 15  C 217.5 18.08  215.08 20.5  212 20.5  C 208.92 20.5  206.5 18.08  206.5 15  C 206.5 11.92  208.92 9.5  212 9.5  Z " stroke-width="1" stroke="#797979" fill="none" />
  <path d="M 212 18  C 210.32 18  209 16.68  209 15  C 209 13.32  210.32 12  212 12  C 213.68 12  215 13.32  215 15  C 215 16.68  213.68 18  212 18  " fill-rule="nonzero" fill="#797979" stroke="none" />
</svg>