<?xml version="1.0" encoding="utf-8"?>
<svg version="1.1" xmlns:xlink="http://www.w3.org/1999/xlink" width="12px" height="12px" viewBox="127 9  12 12" xmlns="http://www.w3.org/2000/svg">
  <path d="M 133 9  C 136.36 9  139 11.64  139 15  C 139 18.36  136.36 21  133 21  C 129.64 21  127 18.36  127 15  C 127 11.64  129.64 9  133 9  Z " fill-rule="nonzero" fill="#f0f0f0" stroke="none" />
  <path d="M 133 9.5  C 136.08 9.5  138.5 11.92  138.5 15  C 138.5 18.08  136.08 20.5  133 20.5  C 129.92 20.5  127.5 18.08  127.5 15  C 127.5 11.92  129.92 9.5  133 9.5  Z " stroke-width="1" stroke="#797979" fill="none" />
  <path d="M 133 18  C 131.32 18  130 16.68  130 15  C 130 13.32  131.32 12  133 12  C 134.68 12  136 13.32  136 15  C 136 16.68  134.68 18  133 18  " fill-rule="nonzero" fill="#797979" stroke="none" />
</svg>