<?xml version="1.0" encoding="utf-8"?>
<svg version="1.1" xmlns:xlink="http://www.w3.org/1999/xlink" width="12px" height="12px" viewBox="127 58  12 12" xmlns="http://www.w3.org/2000/svg">
  <path d="M 133 58  C 136.36 58  139 60.64  139 64  C 139 67.36  136.36 70  133 70  C 129.64 70  127 67.36  127 64  C 127 60.64  129.64 58  133 58  Z " fill-rule="nonzero" fill="#ffffff" stroke="none" />
  <path d="M 133 58.5  C 136.08 58.5  138.5 60.92  138.5 64  C 138.5 67.08  136.08 69.5  133 69.5  C 129.92 69.5  127.5 67.08  127.5 64  C 127.5 60.92  129.92 58.5  133 58.5  Z " stroke-width="1" stroke="#797979" fill="none" />
  <path d="M 133 67  C 131.32 67  130 65.68  130 64  C 130 62.32  131.32 61  133 61  C 134.68 61  136 62.32  136 64  C 136 65.68  134.68 67  133 67  " fill-rule="nonzero" fill="#797979" stroke="none" />
</svg>