<?xml version="1.0" encoding="utf-8"?>
<svg version="1.1" xmlns:xlink="http://www.w3.org/1999/xlink" width="12px" height="12px" viewBox="298 9  12 12" xmlns="http://www.w3.org/2000/svg">
  <path d="M 304 9  C 307.36 9  310 11.64  310 15  C 310 18.36  307.36 21  304 21  C 300.64 21  298 18.36  298 15  C 298 11.64  300.64 9  304 9  Z " fill-rule="nonzero" fill="#ffffff" stroke="none" />
  <path d="M 304 9.5  C 307.08 9.5  309.5 11.92  309.5 15  C 309.5 18.08  307.08 20.5  304 20.5  C 300.92 20.5  298.5 18.08  298.5 15  C 298.5 11.92  300.92 9.5  304 9.5  Z " stroke-width="1" stroke="#797979" fill="none" />
  <path d="M 304 18  C 302.32 18  301 16.68  301 15  C 301 13.32  302.32 12  304 12  C 305.68 12  307 13.32  307 15  C 307 16.68  305.68 18  304 18  " fill-rule="nonzero" fill="#797979" stroke="none" />
</svg>