<?xml version="1.0" encoding="utf-8"?>
<svg version="1.1" xmlns:xlink="http://www.w3.org/1999/xlink" width="12px" height="12px" viewBox="220 58  12 12" xmlns="http://www.w3.org/2000/svg">
  <path d="M 226 58  C 229.36 58  232 60.64  232 64  C 232 67.36  229.36 70  226 70  C 222.64 70  220 67.36  220 64  C 220 60.64  222.64 58  226 58  Z " fill-rule="nonzero" fill="#f0f0f0" stroke="none" />
  <path d="M 226 58.5  C 229.08 58.5  231.5 60.92  231.5 64  C 231.5 67.08  229.08 69.5  226 69.5  C 222.92 69.5  220.5 67.08  220.5 64  C 220.5 60.92  222.92 58.5  226 58.5  Z " stroke-width="1" stroke="#797979" fill="none" />
  <path d="M 226 67  C 224.32 67  223 65.68  223 64  C 223 62.32  224.32 61  226 61  C 227.68 61  229 62.32  229 64  C 229 65.68  227.68 67  226 67  " fill-rule="nonzero" fill="#797979" stroke="none" />
</svg>