<?xml version="1.0" encoding="utf-8"?>
<svg version="1.1" xmlns:xlink="http://www.w3.org/1999/xlink" width="12px" height="12px" viewBox="255 184  12 12" xmlns="http://www.w3.org/2000/svg">
  <path d="M 261 184  C 264.36 184  267 186.64  267 190  C 267 193.36  264.36 196  261 196  C 257.64 196  255 193.36  255 190  C 255 186.64  257.64 184  261 184  Z " fill-rule="nonzero" fill="#f0f0f0" stroke="none" />
  <path d="M 261 184.5  C 264.08 184.5  266.5 186.92  266.5 190  C 266.5 193.08  264.08 195.5  261 195.5  C 257.92 195.5  255.5 193.08  255.5 190  C 255.5 186.92  257.92 184.5  261 184.5  Z " stroke-width="1" stroke="#797979" fill="none" />
  <path d="M 261 193  C 259.32 193  258 191.68  258 190  C 258 188.32  259.32 187  261 187  C 262.68 187  264 188.32  264 190  C 264 191.68  262.68 193  261 193  " fill-rule="nonzero" fill="#797979" stroke="none" />
</svg>