<?xml version="1.0" encoding="utf-8"?>
<svg version="1.1" xmlns:xlink="http://www.w3.org/1999/xlink" width="12px" height="12px" viewBox="166 184  12 12" xmlns="http://www.w3.org/2000/svg">
  <path d="M 172 184  C 175.36 184  178 186.64  178 190  C 178 193.36  175.36 196  172 196  C 168.64 196  166 193.36  166 190  C 166 186.64  168.64 184  172 184  Z " fill-rule="nonzero" fill="#ffffff" stroke="none" />
  <path d="M 172 184.5  C 175.08 184.5  177.5 186.92  177.5 190  C 177.5 193.08  175.08 195.5  172 195.5  C 168.92 195.5  166.5 193.08  166.5 190  C 166.5 186.92  168.92 184.5  172 184.5  Z " stroke-width="1" stroke="#797979" fill="none" />
  <path d="M 172 193  C 170.32 193  169 191.68  169 190  C 169 188.32  170.32 187  172 187  C 173.68 187  175 188.32  175 190  C 175 191.68  173.68 193  172 193  " fill-rule="nonzero" fill="#797979" stroke="none" />
</svg>