<svg t="1609208785365" class="icon" viewBox="0 0 1024 1024" version="1.1" xmlns="http://www.w3.org/2000/svg" p-id="8040" width="200" height="200"><path d="M958.144 0H65.92C30.08 0 0 30.144 0 65.856V958.08C0 994.752 30.144 1024 65.856 1024H958.08C993.92 1024 1024 993.856 1024 958.144V65.92C1024 30.08 994.752 0 958.144 0z" fill="#FF6582" p-id="8041"></path><path d="M197.888 847.104C320 814.08 424.448 770.304 512 715.008c38.4 24.576 81.408 46.848 128.256 66.816 59.136 24.576 122.112 46.08 188.16 63.744l32.256-48.384a1513.216 1513.216 0 0 1-175.104-53.76c-46.08-18.432-88.32-39.168-126.72-60.672 81.408-61.44 143.616-135.168 186.624-221.184v-49.152H538.88V294.912h301.824v-53.76H538.88V140.544h-56.832v100.608H183.296v53.76h298.752v117.504H241.664v51.456H300.8c12.288 41.472 32.256 80.64 59.904 115.968 29.952 38.4 65.28 72.96 105.216 102.912-82.944 49.152-182.784 87.552-299.52 115.2l31.488 49.152zM511.232 652.8A481.216 481.216 0 0 1 419.84 572.16a299.008 299.008 0 0 1-64.512-108.288h327.936C643.328 537.6 585.728 600.576 511.232 652.8z" fill="#FFFFFF" p-id="8042"></path></svg>