<svg t="1609208667059" class="icon" viewBox="0 0 1024 1024" version="1.1" xmlns="http://www.w3.org/2000/svg" p-id="4438" width="200" height="200"><path d="M577.4 371.3c-6.7 18.9-14.2 36.4-22.3 54 21.6 59.4 49.9 114 83.7 164 33.7-62.1 52.6-134.9 57.3-217.9H577.4z" fill="#FA8C37" p-id="4439"></path><path d="M798.9 82.1H228c-82 0-149 67-149 149V802c0 82 67 149 149 149h570.9c82 0 149-67 149-149V231.1c0-82-67-149-149-149z m-15 756.1c-55.3-41.8-103.2-88.4-143.7-139-43.9 52.6-99.2 97.2-166.7 133.6l-33.7-54.7v51.3H377V660.8c-45.9 16.2-94.5 31-144.4 43.9l-18.9-54c10.8-4 16.9-10.8 16.9-19.6V270.8h62.7v357.6c28.3-8.8 56-18.2 83.7-29V214.8h62.7v558c66.8-32.4 120.8-74.9 161.3-126.2-33.1-47.9-60.7-99.2-83-153.2-11.5 17.5-23.6 33.1-35.8 47.9l-39.1-48.6c53.3-70.2 89.7-164.6 108.6-283.4l64.1 10.8c-5.4 31-12.1 60.7-18.9 88.4h213.2v62.7h-53.3c-5.4 105.3-31.7 196.3-77.6 273.3 41.8 52.6 91.8 99.9 148.4 141.7l-43.7 52z" fill="#FA8C37" p-id="4440"></path></svg>