<svg t="1609208211183" class="icon" viewBox="0 0 1024 1024" version="1.1" xmlns="http://www.w3.org/2000/svg" p-id="24134" width="200" height="200"><path d="M836.266667 238.933333l104.533333-29.866666c23.466667-6.4 29.866667-32 8.533333-53.333334l-14.933333-14.933333-49.066667-49.066667-17.066666-17.066666c-21.333333-21.333333-46.933333-14.933333-53.333334 8.533333l-29.866666 106.666667 51.2 49.066666zM983.466667 89.6c12.8-12.8 12.8-36.266667 0-49.066667-12.8-12.8-36.266667-12.8-49.066667 0l-25.6 25.6 49.066667 49.066667 25.6-25.6zM512 371.2c12.8 0 25.6 2.133333 38.4 6.4l106.666667-106.666667c-42.666667-25.6-91.733333-40.533333-145.066667-40.533333-155.733333 0-279.466667 125.866667-279.466667 279.466667S356.266667 791.466667 512 791.466667 791.466667 667.733333 791.466667 512c0-51.2-12.8-100.266667-38.4-140.8l-106.666667 106.666667c2.133333 10.666667 4.266667 23.466667 4.266667 34.133333 0 76.8-61.866667 140.8-140.8 140.8s-140.8-61.866667-140.8-140.8c2.133333-76.8 66.133333-140.8 142.933333-140.8z" fill="#128BED" p-id="24135"></path><path d="M932.266667 258.133333L810.666667 315.733333l-4.266667 4.266667c36.266667 55.466667 57.6 121.6 57.6 192 0 194.133333-157.866667 349.866667-349.866667 349.866667S162.133333 706.133333 162.133333 512 317.866667 162.133333 512 162.133333c72.533333 0 138.666667 21.333333 194.133333 59.733334l4.266667-4.266667L768 93.866667C693.333333 46.933333 605.866667 21.333333 512 21.333333 241.066667 21.333333 21.333333 241.066667 21.333333 512s219.733333 490.666667 490.666667 490.666667 490.666667-219.733333 490.666667-490.666667c0-91.733333-25.6-179.2-70.4-253.866667z" fill="#128BED" p-id="24136"></path><path d="M759.466667 213.333333L526.933333 448l-25.6 25.6-12.8 12.8c-6.4 6.4-10.666667 14.933333-10.666666 25.6 0 19.2 14.933333 34.133333 34.133333 34.133333 8.533333 0 14.933333-2.133333 21.333333-6.4l4.266667-4.266666L810.666667 264.533333 759.466667 213.333333z" fill="#128BED" p-id="24137"></path></svg>