<svg t="1609206138637" class="icon" viewBox="0 0 1024 1024" version="1.1" xmlns="http://www.w3.org/2000/svg" p-id="13264" width="200" height="200"><path d="M512.064 25.6a486.4 486.4 0 1 0 486.4 486.4 486.4 486.4 0 0 0-486.4-486.4z" fill="#FFFFFF" p-id="13265"></path><path d="M634.88 1008.64h10.24v-5.12a15.872 15.872 0 0 1-10.24 5.12z" fill="#E99F1A" p-id="13266"></path><path d="M512 0a512 512 0 1 0 512 512 513.536 513.536 0 0 0-512-512z" fill="#FF8867" p-id="13267"></path><path d="M706.56 379.392a125.44 125.44 0 0 0-47.744 9.472 124.8 124.8 0 0 0-52.48-42.688 164.992 164.992 0 0 0-329.664 10.816v5.056a139.456 139.456 0 0 0 54.72 267.776h21.312l-1.472-64h-19.84a75.456 75.456 0 0 1-13.952-149.568l32-6.016-6.784-32a100.992 100.992 0 1 1 199.744-21.12c0 3.136 0 6.4-0.448 9.536l-2.688 28.928 28.48 5.504a61.184 61.184 0 0 1 47.04 42.368l14.272 46.912 37.184-32a61.44 61.44 0 0 1 101.44 46.592 63.232 63.232 0 0 1-64 60.672v64a125.056 125.056 0 1 0 2.56-250.112z" fill="#FFFFFF" p-id="13268"></path><path d="M408.32 563.136l47.424 43.008 40.704-44.8-0.448 183.232h64l0.448-183.104 39.744 44.352 47.68-42.688-119.04-132.992z" fill="#FFFFFF" p-id="13269"></path></svg>