<svg t="1618185433247" class="icon" viewBox="0 0 1024 1024" version="1.1" xmlns="http://www.w3.org/2000/svg" p-id="4403" width="200" height="200"><path d="M512 979.478261C254.886957 979.478261 44.521739 769.113043 44.521739 512S254.886957 44.521739 512 44.521739 979.478261 254.886957 979.478261 512 769.113043 979.478261 512 979.478261z m0-888.208696c-231.379478 0-420.730435 189.350957-420.730435 420.730435 0 231.424 189.350957 420.730435 420.730435 420.730435 231.424 0 420.730435-189.306435 420.730435-420.730435 0-231.379478-189.306435-420.730435-420.730435-420.730435z" fill="#4286E9" p-id="4404"></path><path d="M719.382261 222.608696l31.165217 54.227478c-120.921043 17.452522-281.733565 26.178783-481.814261 26.178783l-19.322434-57.967305c184.498087 0 341.570783-7.479652 469.971478-22.438956z m52.357565 183.874782v152.709565h-63.577043v-91.625739h-411.38087v91.625739H233.20487V406.483478h104.091826A596.858435 596.858435 0 0 0 281.822609 335.426783l57.344-28.048696c21.192348 24.30887 41.138087 51.734261 61.083826 82.276174l-34.281739 16.829217h119.05113c-17.452522-28.048696-35.528348-52.98087-55.474087-74.796521l57.967304-28.048696c19.945739 23.062261 39.891478 49.241043 58.590609 78.536348l-47.994435 24.308869h94.742261c22.438957-34.905043 41.138087-71.68 57.344-110.324869l66.070261 24.932174a580.162783 580.162783 0 0 1-53.604174 85.392695h109.078261zM317.350957 510.575304h369.619478V565.426087c-22.438957 44.877913-59.213913 84.146087-109.078261 117.804522 57.344 22.438957 126.530783 41.761391 206.937043 57.967304l-37.39826 59.213913c-94.742261-21.192348-173.278609-47.994435-236.855653-79.159652-68.563478 33.03513-153.33287 59.837217-254.308174 80.406261L222.608696 739.951304c87.262609-14.336 161.435826-33.03513 222.519652-56.720695-49.241043-33.658435-84.769391-71.68-107.208348-114.064696h-20.569043v-58.590609z m88.509217 58.590609c24.30887 30.541913 59.213913 57.967304 105.338435 82.899478 43.631304-24.30887 77.913043-51.734261 102.221913-82.899478H405.860174z" fill="#4286E9" p-id="4405"></path></svg>