<?xml version="1.0" encoding="utf-8"?>
<svg version="1.1" xmlns:xlink="http://www.w3.org/1999/xlink" width="12px" height="12px" viewBox="521 231  12 12" xmlns="http://www.w3.org/2000/svg">
  <path d="M 527 231  C 530.36 231  533 233.64  533 237  C 533 240.36  530.36 243  527 243  C 523.64 243  521 240.36  521 237  C 521 233.64  523.64 231  527 231  Z " fill-rule="nonzero" fill="#f0f0f0" stroke="none" />
  <path d="M 527 231.5  C 530.08 231.5  532.5 233.92  532.5 237  C 532.5 240.08  530.08 242.5  527 242.5  C 523.92 242.5  521.5 240.08  521.5 237  C 521.5 233.92  523.92 231.5  527 231.5  Z " stroke-width="1" stroke="#797979" fill="none" />
  <path d="M 527 240  C 525.32 240  524 238.68  524 237  C 524 235.32  525.32 234  527 234  C 528.68 234  530 235.32  530 237  C 530 238.68  528.68 240  527 240  " fill-rule="nonzero" fill="#797979" stroke="none" />
</svg>