<?xml version="1.0" encoding="utf-8"?>
<svg version="1.1" xmlns:xlink="http://www.w3.org/1999/xlink" width="12px" height="12px" viewBox="212 231  12 12" xmlns="http://www.w3.org/2000/svg">
  <path d="M 218 231  C 221.36 231  224 233.64  224 237  C 224 240.36  221.36 243  218 243  C 214.64 243  212 240.36  212 237  C 212 233.64  214.64 231  218 231  Z " fill-rule="nonzero" fill="#f0f0f0" stroke="none" />
  <path d="M 218 231.5  C 221.08 231.5  223.5 233.92  223.5 237  C 223.5 240.08  221.08 242.5  218 242.5  C 214.92 242.5  212.5 240.08  212.5 237  C 212.5 233.92  214.92 231.5  218 231.5  Z " stroke-width="1" stroke="#797979" fill="none" />
  <path d="M 218 240  C 216.32 240  215 238.68  215 237  C 215 235.32  216.32 234  218 234  C 219.68 234  221 235.32  221 237  C 221 238.68  219.68 240  218 240  " fill-rule="nonzero" fill="#797979" stroke="none" />
</svg>