<?xml version="1.0" encoding="utf-8"?>
<svg version="1.1" xmlns:xlink="http://www.w3.org/1999/xlink" width="12px" height="12px" viewBox="673 231  12 12" xmlns="http://www.w3.org/2000/svg">
  <path d="M 679 231  C 682.36 231  685 233.64  685 237  C 685 240.36  682.36 243  679 243  C 675.64 243  673 240.36  673 237  C 673 233.64  675.64 231  679 231  Z " fill-rule="nonzero" fill="#f0f0f0" stroke="none" />
  <path d="M 679 231.5  C 682.08 231.5  684.5 233.92  684.5 237  C 684.5 240.08  682.08 242.5  679 242.5  C 675.92 242.5  673.5 240.08  673.5 237  C 673.5 233.92  675.92 231.5  679 231.5  Z " stroke-width="1" stroke="#797979" fill="none" />
  <path d="M 679 240  C 677.32 240  676 238.68  676 237  C 676 235.32  677.32 234  679 234  C 680.68 234  682 235.32  682 237  C 682 238.68  680.68 240  679 240  " fill-rule="nonzero" fill="#797979" stroke="none" />
</svg>