<?xml version="1.0" encoding="utf-8"?>
<svg version="1.1" xmlns:xlink="http://www.w3.org/1999/xlink" width="12px" height="12px" viewBox="357 231  12 12" xmlns="http://www.w3.org/2000/svg">
  <path d="M 363 231  C 366.36 231  369 233.64  369 237  C 369 240.36  366.36 243  363 243  C 359.64 243  357 240.36  357 237  C 357 233.64  359.64 231  363 231  Z " fill-rule="nonzero" fill="#f0f0f0" stroke="none" />
  <path d="M 363 231.5  C 366.08 231.5  368.5 233.92  368.5 237  C 368.5 240.08  366.08 242.5  363 242.5  C 359.92 242.5  357.5 240.08  357.5 237  C 357.5 233.92  359.92 231.5  363 231.5  Z " stroke-width="1" stroke="#797979" fill="none" />
  <path d="M 363 240  C 361.32 240  360 238.68  360 237  C 360 235.32  361.32 234  363 234  C 364.68 234  366 235.32  366 237  C 366 238.68  364.68 240  363 240  " fill-rule="nonzero" fill="#797979" stroke="none" />
</svg>