<?xml version="1.0" encoding="utf-8"?>
<svg version="1.1" xmlns:xlink="http://www.w3.org/1999/xlink" width="91px" height="77px" xmlns="http://www.w3.org/2000/svg">
  <defs>
    <linearGradient gradientUnits="userSpaceOnUse" x1="45.5" y1="0" x2="45.5" y2="77" id="LinearGradient466">
      <stop id="Stop467" stop-color="#09194a" offset="0" />
      <stop id="Stop468" stop-color="#09194a" offset="0.09" />
      <stop id="Stop469" stop-color="#072a62" offset="0.9" />
      <stop id="Stop470" stop-color="#072a62" offset="1" />
    </linearGradient>
    <mask fill="white" id="clip471">
      <path d="M 23.0704225352113 76.7913279132792  L 0.427230046948353 37.9783197831982  L 23.924882629108 0.417344173442075  L 67.5023474178404 0.417344173442075  L 91 37.9783197831982  L 67.5023474178404 75.9566395663954  L 23.0704225352113 76.7913279132792  Z " fill-rule="evenodd" />
    </mask>
  </defs>
  <g transform="matrix(1 0 0 1 -1055 -448 )">
    <path d="M 23.0704225352113 76.7913279132792  L 0.427230046948353 37.9783197831982  L 23.924882629108 0.417344173442075  L 67.5023474178404 0.417344173442075  L 91 37.9783197831982  L 67.5023474178404 75.9566395663954  L 23.0704225352113 76.7913279132792  Z " fill-rule="nonzero" fill="url(#LinearGradient466)" stroke="none" transform="matrix(1 0 0 1 1055 448 )" />
    <path d="M 23.0704225352113 76.7913279132792  L 0.427230046948353 37.9783197831982  L 23.924882629108 0.417344173442075  L 67.5023474178404 0.417344173442075  L 91 37.9783197831982  L 67.5023474178404 75.9566395663954  L 23.0704225352113 76.7913279132792  Z " stroke-width="4" stroke="#c79b0a" fill="none" transform="matrix(1 0 0 1 1055 448 )" mask="url(#clip471)" />
  </g>
</svg>