<?xml version="1.0" encoding="utf-8"?>
<svg version="1.1" xmlns:xlink="http://www.w3.org/1999/xlink" width="12px" height="12px" viewBox="902 192  12 12" xmlns="http://www.w3.org/2000/svg">
  <path d="M 908 192  C 911.36 192  914 194.64  914 198  C 914 201.36  911.36 204  908 204  C 904.64 204  902 201.36  902 198  C 902 194.64  904.64 192  908 192  Z " fill-rule="nonzero" fill="#ffffff" stroke="none" />
  <path d="M 908 192.5  C 911.08 192.5  913.5 194.92  913.5 198  C 913.5 201.08  911.08 203.5  908 203.5  C 904.92 203.5  902.5 201.08  902.5 198  C 902.5 194.92  904.92 192.5  908 192.5  Z " stroke-width="1" stroke="#797979" fill="none" />
  <path d="M 908 201  C 906.32 201  905 199.68  905 198  C 905 196.32  906.32 195  908 195  C 909.68 195  911 196.32  911 198  C 911 199.68  909.68 201  908 201  " fill-rule="nonzero" fill="#797979" stroke="none" />
</svg>