<?xml version="1.0" encoding="utf-8"?>
<svg version="1.1" xmlns:xlink="http://www.w3.org/1999/xlink" width="12px" height="12px" viewBox="469 223  12 12" xmlns="http://www.w3.org/2000/svg">
  <path d="M 475 223  C 478.36 223  481 225.64  481 229  C 481 232.36  478.36 235  475 235  C 471.64 235  469 232.36  469 229  C 469 225.64  471.64 223  475 223  Z " fill-rule="nonzero" fill="#ffffff" stroke="none" />
  <path d="M 475 223.5  C 478.08 223.5  480.5 225.92  480.5 229  C 480.5 232.08  478.08 234.5  475 234.5  C 471.92 234.5  469.5 232.08  469.5 229  C 469.5 225.92  471.92 223.5  475 223.5  Z " stroke-width="1" stroke="#797979" fill="none" />
  <path d="M 475 232  C 473.32 232  472 230.68  472 229  C 472 227.32  473.32 226  475 226  C 476.68 226  478 227.32  478 229  C 478 230.68  476.68 232  475 232  " fill-rule="nonzero" fill="#797979" stroke="none" />
</svg>