<?xml version="1.0" encoding="utf-8"?>
<svg version="1.1" xmlns:xlink="http://www.w3.org/1999/xlink" width="12px" height="12px" viewBox="302 706  12 12" xmlns="http://www.w3.org/2000/svg">
  <path d="M 308 706  C 311.36 706  314 708.64  314 712  C 314 715.36  311.36 718  308 718  C 304.64 718  302 715.36  302 712  C 302 708.64  304.64 706  308 706  Z " fill-rule="nonzero" fill="#ffffff" stroke="none" />
  <path d="M 308 706.5  C 311.08 706.5  313.5 708.92  313.5 712  C 313.5 715.08  311.08 717.5  308 717.5  C 304.92 717.5  302.5 715.08  302.5 712  C 302.5 708.92  304.92 706.5  308 706.5  Z " stroke-width="1" stroke="#797979" fill="none" />
  <path d="M 308 715  C 306.32 715  305 713.68  305 712  C 305 710.32  306.32 709  308 709  C 309.68 709  311 710.32  311 712  C 311 713.68  309.68 715  308 715  " fill-rule="nonzero" fill="#797979" stroke="none" />
</svg>