<?xml version="1.0" encoding="utf-8"?>
<svg version="1.1" xmlns:xlink="http://www.w3.org/1999/xlink" width="12px" height="12px" viewBox="402 706  12 12" xmlns="http://www.w3.org/2000/svg">
  <path d="M 408 706  C 411.36 706  414 708.64  414 712  C 414 715.36  411.36 718  408 718  C 404.64 718  402 715.36  402 712  C 402 708.64  404.64 706  408 706  Z " fill-rule="nonzero" fill="#f0f0f0" stroke="none" />
  <path d="M 408 706.5  C 411.08 706.5  413.5 708.92  413.5 712  C 413.5 715.08  411.08 717.5  408 717.5  C 404.92 717.5  402.5 715.08  402.5 712  C 402.5 708.92  404.92 706.5  408 706.5  Z " stroke-width="1" stroke="#797979" fill="none" />
  <path d="M 408 715  C 406.32 715  405 713.68  405 712  C 405 710.32  406.32 709  408 709  C 409.68 709  411 710.32  411 712  C 411 713.68  409.68 715  408 715  " fill-rule="nonzero" fill="#797979" stroke="none" />
</svg>