<?xml version="1.0" encoding="utf-8"?>
<svg version="1.1" xmlns:xlink="http://www.w3.org/1999/xlink" width="12px" height="12px" viewBox="435 248  12 12" xmlns="http://www.w3.org/2000/svg">
  <path d="M 441 248  C 444.36 248  447 250.64  447 254  C 447 257.36  444.36 260  441 260  C 437.64 260  435 257.36  435 254  C 435 250.64  437.64 248  441 248  Z " fill-rule="nonzero" fill="#ffffff" stroke="none" />
  <path d="M 441 248.5  C 444.08 248.5  446.5 250.92  446.5 254  C 446.5 257.08  444.08 259.5  441 259.5  C 437.92 259.5  435.5 257.08  435.5 254  C 435.5 250.92  437.92 248.5  441 248.5  Z " stroke-width="1" stroke="#797979" fill="none" />
  <path d="M 441 257  C 439.32 257  438 255.68  438 254  C 438 252.32  439.32 251  441 251  C 442.68 251  444 252.32  444 254  C 444 255.68  442.68 257  441 257  " fill-rule="nonzero" fill="#797979" stroke="none" />
</svg>