<?xml version="1.0" encoding="utf-8"?>
<svg version="1.1" xmlns:xlink="http://www.w3.org/1999/xlink" width="12px" height="12px" viewBox="968 248  12 12" xmlns="http://www.w3.org/2000/svg">
  <path d="M 974 248  C 977.36 248  980 250.64  980 254  C 980 257.36  977.36 260  974 260  C 970.64 260  968 257.36  968 254  C 968 250.64  970.64 248  974 248  Z " fill-rule="nonzero" fill="#ffffff" stroke="none" />
  <path d="M 974 248.5  C 977.08 248.5  979.5 250.92  979.5 254  C 979.5 257.08  977.08 259.5  974 259.5  C 970.92 259.5  968.5 257.08  968.5 254  C 968.5 250.92  970.92 248.5  974 248.5  Z " stroke-width="1" stroke="#797979" fill="none" />
  <path d="M 974 257  C 972.32 257  971 255.68  971 254  C 971 252.32  972.32 251  974 251  C 975.68 251  977 252.32  977 254  C 977 255.68  975.68 257  974 257  " fill-rule="nonzero" fill="#797979" stroke="none" />
</svg>