<?xml version="1.0" encoding="utf-8"?>
<svg version="1.1" xmlns:xlink="http://www.w3.org/1999/xlink" width="12px" height="12px" viewBox="464 216  12 12" xmlns="http://www.w3.org/2000/svg">
  <path d="M 470 216  C 473.36 216  476 218.64  476 222  C 476 225.36  473.36 228  470 228  C 466.64 228  464 225.36  464 222  C 464 218.64  466.64 216  470 216  Z " fill-rule="nonzero" fill="#ffffff" stroke="none" />
  <path d="M 470 216.5  C 473.08 216.5  475.5 218.92  475.5 222  C 475.5 225.08  473.08 227.5  470 227.5  C 466.92 227.5  464.5 225.08  464.5 222  C 464.5 218.92  466.92 216.5  470 216.5  Z " stroke-width="1" stroke="#797979" fill="none" />
  <path d="M 470 225  C 468.32 225  467 223.68  467 222  C 467 220.32  468.32 219  470 219  C 471.68 219  473 220.32  473 222  C 473 223.68  471.68 225  470 225  " fill-rule="nonzero" fill="#797979" stroke="none" />
</svg>