<?xml version="1.0" encoding="utf-8"?>
<svg version="1.1" xmlns:xlink="http://www.w3.org/1999/xlink" width="12px" height="12px" viewBox="596 248  12 12" xmlns="http://www.w3.org/2000/svg">
  <path d="M 602 248  C 605.36 248  608 250.64  608 254  C 608 257.36  605.36 260  602 260  C 598.64 260  596 257.36  596 254  C 596 250.64  598.64 248  602 248  Z " fill-rule="nonzero" fill="#ffffff" stroke="none" />
  <path d="M 602 248.5  C 605.08 248.5  607.5 250.92  607.5 254  C 607.5 257.08  605.08 259.5  602 259.5  C 598.92 259.5  596.5 257.08  596.5 254  C 596.5 250.92  598.92 248.5  602 248.5  Z " stroke-width="1" stroke="#797979" fill="none" />
  <path d="M 602 257  C 600.32 257  599 255.68  599 254  C 599 252.32  600.32 251  602 251  C 603.68 251  605 252.32  605 254  C 605 255.68  603.68 257  602 257  " fill-rule="nonzero" fill="#797979" stroke="none" />
</svg>