<?xml version="1.0" encoding="utf-8"?>
<svg version="1.1" xmlns:xlink="http://www.w3.org/1999/xlink" width="12px" height="12px" viewBox="564 216  12 12" xmlns="http://www.w3.org/2000/svg">
  <path d="M 570 216  C 573.36 216  576 218.64  576 222  C 576 225.36  573.36 228  570 228  C 566.64 228  564 225.36  564 222  C 564 218.64  566.64 216  570 216  Z " fill-rule="nonzero" fill="#ffffff" stroke="none" />
  <path d="M 570 216.5  C 573.08 216.5  575.5 218.92  575.5 222  C 575.5 225.08  573.08 227.5  570 227.5  C 566.92 227.5  564.5 225.08  564.5 222  C 564.5 218.92  566.92 216.5  570 216.5  Z " stroke-width="1" stroke="#797979" fill="none" />
  <path d="M 570 225  C 568.32 225  567 223.68  567 222  C 567 220.32  568.32 219  570 219  C 571.68 219  573 220.32  573 222  C 573 223.68  571.68 225  570 225  " fill-rule="nonzero" fill="#797979" stroke="none" />
</svg>