<?xml version="1.0" encoding="utf-8"?>
<svg version="1.1" xmlns:xlink="http://www.w3.org/1999/xlink" width="12px" height="12px" viewBox="513 248  12 12" xmlns="http://www.w3.org/2000/svg">
  <path d="M 519 248  C 522.36 248  525 250.64  525 254  C 525 257.36  522.36 260  519 260  C 515.64 260  513 257.36  513 254  C 513 250.64  515.64 248  519 248  Z " fill-rule="nonzero" fill="#ffffff" stroke="none" />
  <path d="M 519 248.5  C 522.08 248.5  524.5 250.92  524.5 254  C 524.5 257.08  522.08 259.5  519 259.5  C 515.92 259.5  513.5 257.08  513.5 254  C 513.5 250.92  515.92 248.5  519 248.5  Z " stroke-width="1" stroke="#797979" fill="none" />
  <path d="M 519 257  C 517.32 257  516 255.68  516 254  C 516 252.32  517.32 251  519 251  C 520.68 251  522 252.32  522 254  C 522 255.68  520.68 257  519 257  " fill-rule="nonzero" fill="#797979" stroke="none" />
</svg>