<?xml version="1.0" encoding="utf-8"?>
<svg version="1.1" xmlns:xlink="http://www.w3.org/1999/xlink" width="12px" height="12px" viewBox="469 344  12 12" xmlns="http://www.w3.org/2000/svg">
  <path d="M 475 344  C 478.36 344  481 346.64  481 350  C 481 353.36  478.36 356  475 356  C 471.64 356  469 353.36  469 350  C 469 346.64  471.64 344  475 344  Z " fill-rule="nonzero" fill="#f0f0f0" stroke="none" />
  <path d="M 475 344.5  C 478.08 344.5  480.5 346.92  480.5 350  C 480.5 353.08  478.08 355.5  475 355.5  C 471.92 355.5  469.5 353.08  469.5 350  C 469.5 346.92  471.92 344.5  475 344.5  Z " stroke-width="1" stroke="#797979" fill="none" />
  <path d="M 475 353  C 473.32 353  472 351.68  472 350  C 472 348.32  473.32 347  475 347  C 476.68 347  478 348.32  478 350  C 478 351.68  476.68 353  475 353  " fill-rule="nonzero" fill="#797979" stroke="none" />
</svg>