<?xml version="1.0" encoding="utf-8"?>
<svg version="1.1" xmlns:xlink="http://www.w3.org/1999/xlink" width="12px" height="12px" viewBox="968 343  12 12" xmlns="http://www.w3.org/2000/svg">
  <path d="M 974 343  C 977.36 343  980 345.64  980 349  C 980 352.36  977.36 355  974 355  C 970.64 355  968 352.36  968 349  C 968 345.64  970.64 343  974 343  Z " fill-rule="nonzero" fill="#ffffff" stroke="none" />
  <path d="M 974 343.5  C 977.08 343.5  979.5 345.92  979.5 349  C 979.5 352.08  977.08 354.5  974 354.5  C 970.92 354.5  968.5 352.08  968.5 349  C 968.5 345.92  970.92 343.5  974 343.5  Z " stroke-width="1" stroke="#797979" fill="none" />
  <path d="M 974 352  C 972.32 352  971 350.68  971 349  C 971 347.32  972.32 346  974 346  C 975.68 346  977 347.32  977 349  C 977 350.68  975.68 352  974 352  " fill-rule="nonzero" fill="#797979" stroke="none" />
</svg>