<?xml version="1.0" encoding="utf-8"?>
<svg version="1.1" xmlns:xlink="http://www.w3.org/1999/xlink" width="422px" height="702px" xmlns="http://www.w3.org/2000/svg">
  <defs>
    <mask fill="white" id="clip21">
      <path d="M 0 692  L 0 27.25  L 174.5 26  L 190.5 0  L 210.75 26  L 412 27.25  L 412 692  L 0 692  Z " fill-rule="evenodd" />
    </mask>
    <filter x="173px" y="1629px" width="422px" height="702px" filterUnits="userSpaceOnUse" id="filter22">
      <feOffset dx="5" dy="5" in="SourceAlpha" result="shadowOffsetInner" />
      <feGaussianBlur stdDeviation="2.5" in="shadowOffsetInner" result="shadowGaussian" />
      <feComposite in2="shadowGaussian" operator="atop" in="SourceAlpha" result="shadowComposite" />
      <feColorMatrix type="matrix" values="0 0 0 0 0  0 0 0 0 0  0 0 0 0 0  0 0 0 0.349019607843137 0  " in="shadowComposite" />
    </filter>
    <g id="widget23">
      <path d="M 0 692  L 0 27.25  L 174.5 26  L 190.5 0  L 210.75 26  L 412 27.25  L 412 692  L 0 692  Z " fill-rule="nonzero" fill="#ffffff" stroke="none" transform="matrix(1 0 0 1 173 1629 )" />
      <path d="M 0 692  L 0 27.25  L 174.5 26  L 190.5 0  L 210.75 26  L 412 27.25  L 412 692  L 0 692  Z " stroke-width="2" stroke="#bcbcbc" fill="none" transform="matrix(1 0 0 1 173 1629 )" mask="url(#clip21)" />
    </g>
  </defs>
  <g transform="matrix(1 0 0 1 -173 -1629 )">
    <use xlink:href="#widget23" filter="url(#filter22)" />
    <use xlink:href="#widget23" />
  </g>
</svg>