<?xml version="1.0" encoding="utf-8"?>
<svg version="1.1" xmlns:xlink="http://www.w3.org/1999/xlink" width="12px" height="12px" viewBox="400 655  12 12" xmlns="http://www.w3.org/2000/svg">
  <path d="M 406 655  C 409.36 655  412 657.64  412 661  C 412 664.36  409.36 667  406 667  C 402.64 667  400 664.36  400 661  C 400 657.64  402.64 655  406 655  Z " fill-rule="nonzero" fill="#f0f0f0" stroke="none" />
  <path d="M 406 655.5  C 409.08 655.5  411.5 657.92  411.5 661  C 411.5 664.08  409.08 666.5  406 666.5  C 402.92 666.5  400.5 664.08  400.5 661  C 400.5 657.92  402.92 655.5  406 655.5  Z " stroke-width="1" stroke="#797979" fill="none" />
  <path d="M 406 664  C 404.32 664  403 662.68  403 661  C 403 659.32  404.32 658  406 658  C 407.68 658  409 659.32  409 661  C 409 662.68  407.68 664  406 664  " fill-rule="nonzero" fill="#797979" stroke="none" />
</svg>