<?xml version="1.0" encoding="utf-8"?>
<svg version="1.1" xmlns:xlink="http://www.w3.org/1999/xlink" width="12px" height="12px" viewBox="44 294  12 12" xmlns="http://www.w3.org/2000/svg">
  <path d="M 50 294  C 53.36 294  56 296.64  56 300  C 56 303.36  53.36 306  50 306  C 46.64 306  44 303.36  44 300  C 44 296.64  46.64 294  50 294  Z " fill-rule="nonzero" fill="#f0f0f0" stroke="none" />
  <path d="M 50 294.5  C 53.08 294.5  55.5 296.92  55.5 300  C 55.5 303.08  53.08 305.5  50 305.5  C 46.92 305.5  44.5 303.08  44.5 300  C 44.5 296.92  46.92 294.5  50 294.5  Z " stroke-width="1" stroke="#797979" fill="none" />
  <path d="M 50 303  C 48.32 303  47 301.68  47 300  C 47 298.32  48.32 297  50 297  C 51.68 297  53 298.32  53 300  C 53 301.68  51.68 303  50 303  " fill-rule="nonzero" fill="#797979" stroke="none" />
</svg>