<?xml version="1.0" encoding="utf-8"?>
<svg version="1.1" xmlns:xlink="http://www.w3.org/1999/xlink" width="12px" height="12px" viewBox="44 266  12 12" xmlns="http://www.w3.org/2000/svg">
  <path d="M 50 266  C 53.36 266  56 268.64  56 272  C 56 275.36  53.36 278  50 278  C 46.64 278  44 275.36  44 272  C 44 268.64  46.64 266  50 266  Z " fill-rule="nonzero" fill="#f0f0f0" stroke="none" />
  <path d="M 50 266.5  C 53.08 266.5  55.5 268.92  55.5 272  C 55.5 275.08  53.08 277.5  50 277.5  C 46.92 277.5  44.5 275.08  44.5 272  C 44.5 268.92  46.92 266.5  50 266.5  Z " stroke-width="1" stroke="#797979" fill="none" />
  <path d="M 50 275  C 48.32 275  47 273.68  47 272  C 47 270.32  48.32 269  50 269  C 51.68 269  53 270.32  53 272  C 53 273.68  51.68 275  50 275  " fill-rule="nonzero" fill="#797979" stroke="none" />
</svg>