<?xml version="1.0" encoding="utf-8"?>
<svg version="1.1" xmlns:xlink="http://www.w3.org/1999/xlink" width="12px" height="12px" viewBox="43 298  12 12" xmlns="http://www.w3.org/2000/svg">
  <path d="M 49 298  C 52.36 298  55 300.64  55 304  C 55 307.36  52.36 310  49 310  C 45.64 310  43 307.36  43 304  C 43 300.64  45.64 298  49 298  Z " fill-rule="nonzero" fill="#f0f0f0" stroke="none" />
  <path d="M 49 298.5  C 52.08 298.5  54.5 300.92  54.5 304  C 54.5 307.08  52.08 309.5  49 309.5  C 45.92 309.5  43.5 307.08  43.5 304  C 43.5 300.92  45.92 298.5  49 298.5  Z " stroke-width="1" stroke="#797979" fill="none" />
  <path d="M 49 307  C 47.32 307  46 305.68  46 304  C 46 302.32  47.32 301  49 301  C 50.68 301  52 302.32  52 304  C 52 305.68  50.68 307  49 307  " fill-rule="nonzero" fill="#797979" stroke="none" />
</svg>