<?xml version="1.0" encoding="utf-8"?>
<svg version="1.1" xmlns:xlink="http://www.w3.org/1999/xlink" width="12px" height="12px" viewBox="44 185  12 12" xmlns="http://www.w3.org/2000/svg">
  <path d="M 50 185  C 53.36 185  56 187.64  56 191  C 56 194.36  53.36 197  50 197  C 46.64 197  44 194.36  44 191  C 44 187.64  46.64 185  50 185  Z " fill-rule="nonzero" fill="#ffffff" stroke="none" />
  <path d="M 50 185.5  C 53.08 185.5  55.5 187.92  55.5 191  C 55.5 194.08  53.08 196.5  50 196.5  C 46.92 196.5  44.5 194.08  44.5 191  C 44.5 187.92  46.92 185.5  50 185.5  Z " stroke-width="1" stroke="#797979" fill="none" />
  <path d="M 50 194  C 48.32 194  47 192.68  47 191  C 47 189.32  48.32 188  50 188  C 51.68 188  53 189.32  53 191  C 53 192.68  51.68 194  50 194  " fill-rule="nonzero" fill="#797979" stroke="none" />
</svg>