<?xml version="1.0" encoding="utf-8"?>
<svg version="1.1" xmlns:xlink="http://www.w3.org/1999/xlink" width="12px" height="12px" viewBox="44 305  12 12" xmlns="http://www.w3.org/2000/svg">
  <path d="M 50 305  C 53.36 305  56 307.64  56 311  C 56 314.36  53.36 317  50 317  C 46.64 317  44 314.36  44 311  C 44 307.64  46.64 305  50 305  Z " fill-rule="nonzero" fill="#ffffff" stroke="none" />
  <path d="M 50 305.5  C 53.08 305.5  55.5 307.92  55.5 311  C 55.5 314.08  53.08 316.5  50 316.5  C 46.92 316.5  44.5 314.08  44.5 311  C 44.5 307.92  46.92 305.5  50 305.5  Z " stroke-width="1" stroke="#797979" fill="none" />
  <path d="M 50 314  C 48.32 314  47 312.68  47 311  C 47 309.32  48.32 308  50 308  C 51.68 308  53 309.32  53 311  C 53 312.68  51.68 314  50 314  " fill-rule="nonzero" fill="#797979" stroke="none" />
</svg>