<svg t="1597215046931" class="icon" viewBox="0 0 1024 1024" version="1.1" xmlns="http://www.w3.org/2000/svg" p-id="10543" width="200" height="200"><path d="M351.89155011 916.25232924h-159.07286282c-79.53643141 0-143.92306654-64.38663513-143.92306654-143.92306655V139.82526018c0-79.53643141 64.38663513-143.92306654 143.92306654-143.92306654h477.21858845c79.53643141 0 143.92306654 64.38663513 143.92306654 143.92306654V298.89812299c0 20.83097069-17.04352065 37.87449134-37.87449133 37.87449133s-37.87449134-17.04352065-37.87449133-37.87449133v-159.07286281c0-37.87449134-30.29959254-68.17408388-68.17408388-68.17408387H192.81868729c-37.87449134 0-68.17408388 30.29959254-68.17408388 68.17408387V772.32926269c0 37.87449134 30.29959254 68.17408388 68.17408388 68.17408389H351.89155011c20.83097069 0 37.87449134 17.04352065 37.87449133 37.87449133s-17.04352065 37.87449134-37.87449133 37.87449133z" fill="#2D60FE" p-id="10544"></path><path d="M711.69921581 999.57620939c-157.17913844 0-284.05868304-126.8795459-284.05868305-284.05868304s126.8795459-284.05868304 284.05868305-284.05868435 284.05868304 126.8795459 284.05868304 284.05868435-126.8795459 284.05868304-284.05868304 284.05868304z m0-492.36838471c-115.51719837 0-208.30970167 92.79250331-208.30970167 208.30970167s92.79250331 208.30970167 208.30970167 208.30970039 208.30970167-92.79250331 208.30970168-208.30970039-92.79250331-208.30970167-208.30970168-208.30970167z" fill="#FD6A4B" p-id="10545"></path><path d="M711.69921581 753.39201638c-20.83097069 0-37.87449134-17.04352065-37.87449133-37.87449003v-113.62347399c0-20.83097069 17.04352065-37.87449134 37.87449133-37.87449134s37.87449134 17.04352065 37.87449133 37.87449134v113.62347399c0 20.83097069-17.04352065 37.87449134-37.87449133 37.87449003z" fill="#FD6A4B" p-id="10546"></path><path d="M825.32268981 753.39201638h-113.623474c-20.83097069 0-37.87449134-17.04352065-37.87449133-37.87449003s17.04352065-37.87449134 37.87449133-37.87449134h113.623474c20.83097069 0 37.87449134 17.04352065 37.87449004 37.87449134s-17.04352065 37.87449134-37.87449004 37.87449003z" fill="#FD6A4B" p-id="10547"></path><path d="M563.98870052 283.74832673H245.8429749c-20.83097069 0-37.87449134-17.04352065-37.87449133-37.87449134s17.04352065-37.87449134 37.87449133-37.87449132h318.14572562c20.83097069 0 37.87449134 17.04352065 37.87449134 37.87449132s-17.04352065 37.87449134-37.87449134 37.87449134zM351.89155011 467.43960897h-106.04857521c-20.83097069 0-37.87449134-17.04352065-37.87449133-37.87449133s17.04352065-37.87449134 37.87449133-37.87449134H351.89155011c20.83097069 0 37.87449134 17.04352065 37.87449133 37.87449134s-17.04352065 37.87449134-37.87449133 37.87449133z" fill="#2D60FE" p-id="10548"></path></svg>