<svg t="1611654606277" class="icon" viewBox="0 0 1024 1024" version="1.1" xmlns="http://www.w3.org/2000/svg" p-id="2777" width="48" height="48"><path d="M252.928 85.482667L256 85.333333a32 32 0 0 1 31.850667 28.928l0.149333 3.072v16h528a32 32 0 0 1 29.568 44.224l-74.197333 179.797334 74.197333 179.797333a32 32 0 0 1-29.589333 44.202667L288 581.333333V874.666667H320a32 32 0 0 1 3.072 63.850666L320 938.666667H192a32 32 0 0 1-3.072-63.850667L192 874.666667h32V117.333333a32 32 0 0 1 28.928-31.850666L256 85.333333l-3.072 0.149334z" fill="#d81e06" p-id="2778"></path></svg>