<?xml version="1.0" encoding="utf-8"?>
<svg version="1.1" xmlns:xlink="http://www.w3.org/1999/xlink" width="12px" height="12px" viewBox="400 688  12 12" xmlns="http://www.w3.org/2000/svg">
  <path d="M 406 688  C 409.36 688  412 690.64  412 694  C 412 697.36  409.36 700  406 700  C 402.64 700  400 697.36  400 694  C 400 690.64  402.64 688  406 688  Z " fill-rule="nonzero" fill="#ffffff" stroke="none" />
  <path d="M 406 688.5  C 409.08 688.5  411.5 690.92  411.5 694  C 411.5 697.08  409.08 699.5  406 699.5  C 402.92 699.5  400.5 697.08  400.5 694  C 400.5 690.92  402.92 688.5  406 688.5  Z " stroke-width="1" stroke="#797979" fill="none" />
  <path d="M 406 697  C 404.32 697  403 695.68  403 694  C 403 692.32  404.32 691  406 691  C 407.68 691  409 692.32  409 694  C 409 695.68  407.68 697  406 697  " fill-rule="nonzero" fill="#797979" stroke="none" />
</svg>