<?xml version="1.0" encoding="utf-8"?>
<svg version="1.1" xmlns:xlink="http://www.w3.org/1999/xlink" width="12px" height="12px" viewBox="280 688  12 12" xmlns="http://www.w3.org/2000/svg">
  <path d="M 286 688  C 289.36 688  292 690.64  292 694  C 292 697.36  289.36 700  286 700  C 282.64 700  280 697.36  280 694  C 280 690.64  282.64 688  286 688  Z " fill-rule="nonzero" fill="#f0f0f0" stroke="none" />
  <path d="M 286 688.5  C 289.08 688.5  291.5 690.92  291.5 694  C 291.5 697.08  289.08 699.5  286 699.5  C 282.92 699.5  280.5 697.08  280.5 694  C 280.5 690.92  282.92 688.5  286 688.5  Z " stroke-width="1" stroke="#797979" fill="none" />
  <path d="M 286 697  C 284.32 697  283 695.68  283 694  C 283 692.32  284.32 691  286 691  C 287.68 691  289 692.32  289 694  C 289 695.68  287.68 697  286 697  " fill-rule="nonzero" fill="#797979" stroke="none" />
</svg>