<?xml version="1.0" encoding="utf-8"?>
<svg version="1.1" xmlns:xlink="http://www.w3.org/1999/xlink" width="12px" height="12px" viewBox="863 256  12 12" xmlns="http://www.w3.org/2000/svg">
  <path d="M 869 256  C 872.36 256  875 258.64  875 262  C 875 265.36  872.36 268  869 268  C 865.64 268  863 265.36  863 262  C 863 258.64  865.64 256  869 256  Z " fill-rule="nonzero" fill="#f0f0f0" stroke="none" />
  <path d="M 869 256.5  C 872.08 256.5  874.5 258.92  874.5 262  C 874.5 265.08  872.08 267.5  869 267.5  C 865.92 267.5  863.5 265.08  863.5 262  C 863.5 258.92  865.92 256.5  869 256.5  Z " stroke-width="1" stroke="#797979" fill="none" />
  <path d="M 869 265  C 867.32 265  866 263.68  866 262  C 866 260.32  867.32 259  869 259  C 870.68 259  872 260.32  872 262  C 872 263.68  870.68 265  869 265  " fill-rule="nonzero" fill="#797979" stroke="none" />
</svg>