<?xml version="1.0" encoding="utf-8"?>
<svg version="1.1" xmlns:xlink="http://www.w3.org/1999/xlink" width="12px" height="12px" viewBox="968 256  12 12" xmlns="http://www.w3.org/2000/svg">
  <path d="M 974 256  C 977.36 256  980 258.64  980 262  C 980 265.36  977.36 268  974 268  C 970.64 268  968 265.36  968 262  C 968 258.64  970.64 256  974 256  Z " fill-rule="nonzero" fill="#f0f0f0" stroke="none" />
  <path d="M 974 256.5  C 977.08 256.5  979.5 258.92  979.5 262  C 979.5 265.08  977.08 267.5  974 267.5  C 970.92 267.5  968.5 265.08  968.5 262  C 968.5 258.92  970.92 256.5  974 256.5  Z " stroke-width="1" stroke="#797979" fill="none" />
  <path d="M 974 265  C 972.32 265  971 263.68  971 262  C 971 260.32  972.32 259  974 259  C 975.68 259  977 260.32  977 262  C 977 263.68  975.68 265  974 265  " fill-rule="nonzero" fill="#797979" stroke="none" />
</svg>