<?xml version="1.0" encoding="utf-8"?>
<svg version="1.1" xmlns:xlink="http://www.w3.org/1999/xlink" width="12px" height="12px" viewBox="874 231.5  12 12" xmlns="http://www.w3.org/2000/svg">
  <path d="M 880 231.5  C 883.36 231.5  886 234.14  886 237.5  C 886 240.86  883.36 243.5  880 243.5  C 876.64 243.5  874 240.86  874 237.5  C 874 234.14  876.64 231.5  880 231.5  Z " fill-rule="nonzero" fill="#ffffff" stroke="none" />
  <path d="M 880 232  C 883.08 232  885.5 234.42  885.5 237.5  C 885.5 240.58  883.08 243  880 243  C 876.92 243  874.5 240.58  874.5 237.5  C 874.5 234.42  876.92 232  880 232  Z " stroke-width="1" stroke="#797979" fill="none" />
  <path d="M 880 240.5  C 878.32 240.5  877 239.18  877 237.5  C 877 235.82  878.32 234.5  880 234.5  C 881.68 234.5  883 235.82  883 237.5  C 883 239.18  881.68 240.5  880 240.5  " fill-rule="nonzero" fill="#797979" stroke="none" />
</svg>