<?xml version="1.0" encoding="utf-8"?>
<svg version="1.1" xmlns:xlink="http://www.w3.org/1999/xlink" width="12px" height="12px" viewBox="947 231.5  12 12" xmlns="http://www.w3.org/2000/svg">
  <path d="M 953 231.5  C 956.36 231.5  959 234.14  959 237.5  C 959 240.86  956.36 243.5  953 243.5  C 949.64 243.5  947 240.86  947 237.5  C 947 234.14  949.64 231.5  953 231.5  Z " fill-rule="nonzero" fill="#f0f0f0" stroke="none" />
  <path d="M 953 232  C 956.08 232  958.5 234.42  958.5 237.5  C 958.5 240.58  956.08 243  953 243  C 949.92 243  947.5 240.58  947.5 237.5  C 947.5 234.42  949.92 232  953 232  Z " stroke-width="1" stroke="#797979" fill="none" />
  <path d="M 953 240.5  C 951.32 240.5  950 239.18  950 237.5  C 950 235.82  951.32 234.5  953 234.5  C 954.68 234.5  956 235.82  956 237.5  C 956 239.18  954.68 240.5  953 240.5  " fill-rule="nonzero" fill="#797979" stroke="none" />
</svg>