<?xml version="1.0" encoding="utf-8"?>
<svg version="1.1" xmlns:xlink="http://www.w3.org/1999/xlink" width="79px" height="68px" xmlns="http://www.w3.org/2000/svg">
  <g transform="matrix(1 0 0 1 -460 -97 )">
    <path d="M 460 97  L 539 97  L 539 165  L 460 165  L 460 97  " fill-rule="nonzero" fill="#cccccc" stroke="none" />
    <path d="M 465 102  L 534 102  L 534 160  L 465 160  L 465 102  " fill-rule="nonzero" fill="#ffffff" stroke="none" />
    <path d="M 506.18 117.4  C 503.324 117.4  501.08 115.156  501.08 112.3  C 501.08 109.444  503.324 107.2  506.18 107.2  C 509.036 107.2  511.28 109.444  511.28 112.3  C 511.28 115.156  509.036 117.4  506.18 117.4  " fill-rule="nonzero" fill="#cccccc" stroke="none" />
    <path d="M 467 159  L 467 128.75  L 483.5 115  L 506.6 130.594936708861  L 519.8 123.25  L 533 130.594936708861  L 533 159  L 467 159  " fill-rule="nonzero" fill="#169bd5" stroke="none" />
  </g>
</svg>