<?xml version="1.0" encoding="utf-8"?>
<svg version="1.1" xmlns:xlink="http://www.w3.org/1999/xlink" width="12px" height="12px" viewBox="377 636  12 12" xmlns="http://www.w3.org/2000/svg">
  <path d="M 383 636  C 386.36 636  389 638.64  389 642  C 389 645.36  386.36 648  383 648  C 379.64 648  377 645.36  377 642  C 377 638.64  379.64 636  383 636  Z " fill-rule="nonzero" fill="#f0f0f0" stroke="none" />
  <path d="M 383 636.5  C 386.08 636.5  388.5 638.92  388.5 642  C 388.5 645.08  386.08 647.5  383 647.5  C 379.92 647.5  377.5 645.08  377.5 642  C 377.5 638.92  379.92 636.5  383 636.5  Z " stroke-width="1" stroke="#797979" fill="none" />
  <path d="M 383 645  C 381.32 645  380 643.68  380 642  C 380 640.32  381.32 639  383 639  C 384.68 639  386 640.32  386 642  C 386 643.68  384.68 645  383 645  " fill-rule="nonzero" fill="#797979" stroke="none" />
</svg>