<?xml version="1.0" encoding="utf-8"?>
<svg version="1.1" xmlns:xlink="http://www.w3.org/1999/xlink" width="12px" height="12px" viewBox="539 636  12 12" xmlns="http://www.w3.org/2000/svg">
  <path d="M 545 636  C 548.36 636  551 638.64  551 642  C 551 645.36  548.36 648  545 648  C 541.64 648  539 645.36  539 642  C 539 638.64  541.64 636  545 636  Z " fill-rule="nonzero" fill="#ffffff" stroke="none" />
  <path d="M 545 636.5  C 548.08 636.5  550.5 638.92  550.5 642  C 550.5 645.08  548.08 647.5  545 647.5  C 541.92 647.5  539.5 645.08  539.5 642  C 539.5 638.92  541.92 636.5  545 636.5  Z " stroke-width="1" stroke="#797979" fill="none" />
  <path d="M 545 645  C 543.32 645  542 643.68  542 642  C 542 640.32  543.32 639  545 639  C 546.68 639  548 640.32  548 642  C 548 643.68  546.68 645  545 645  " fill-rule="nonzero" fill="#797979" stroke="none" />
</svg>