<?xml version="1.0" encoding="utf-8"?>
<svg version="1.1" xmlns:xlink="http://www.w3.org/1999/xlink" width="12px" height="12px" viewBox="289 902  12 12" xmlns="http://www.w3.org/2000/svg">
  <path d="M 295 902  C 298.36 902  301 904.64  301 908  C 301 911.36  298.36 914  295 914  C 291.64 914  289 911.36  289 908  C 289 904.64  291.64 902  295 902  Z " fill-rule="nonzero" fill="#ffffff" stroke="none" />
  <path d="M 295 902.5  C 298.08 902.5  300.5 904.92  300.5 908  C 300.5 911.08  298.08 913.5  295 913.5  C 291.92 913.5  289.5 911.08  289.5 908  C 289.5 904.92  291.92 902.5  295 902.5  Z " stroke-width="1" stroke="#797979" fill="none" />
  <path d="M 295 911  C 293.32 911  292 909.68  292 908  C 292 906.32  293.32 905  295 905  C 296.68 905  298 906.32  298 908  C 298 909.68  296.68 911  295 911  " fill-rule="nonzero" fill="#797979" stroke="none" />
</svg>