<?xml version="1.0" encoding="utf-8"?>
<svg version="1.1" xmlns:xlink="http://www.w3.org/1999/xlink" width="12px" height="12px" viewBox="737 902  12 12" xmlns="http://www.w3.org/2000/svg">
  <path d="M 743 902  C 746.36 902  749 904.64  749 908  C 749 911.36  746.36 914  743 914  C 739.64 914  737 911.36  737 908  C 737 904.64  739.64 902  743 902  Z " fill-rule="nonzero" fill="#ffffff" stroke="none" />
  <path d="M 743 902.5  C 746.08 902.5  748.5 904.92  748.5 908  C 748.5 911.08  746.08 913.5  743 913.5  C 739.92 913.5  737.5 911.08  737.5 908  C 737.5 904.92  739.92 902.5  743 902.5  Z " stroke-width="1" stroke="#797979" fill="none" />
  <path d="M 743 911  C 741.32 911  740 909.68  740 908  C 740 906.32  741.32 905  743 905  C 744.68 905  746 906.32  746 908  C 746 909.68  744.68 911  743 911  " fill-rule="nonzero" fill="#797979" stroke="none" />
</svg>