<?xml version="1.0" encoding="utf-8"?>
<svg version="1.1" xmlns:xlink="http://www.w3.org/1999/xlink" width="12px" height="12px" viewBox="160 1041  12 12" xmlns="http://www.w3.org/2000/svg">
  <path d="M 166 1041  C 169.36 1041  172 1043.64  172 1047  C 172 1050.36  169.36 1053  166 1053  C 162.64 1053  160 1050.36  160 1047  C 160 1043.64  162.64 1041  166 1041  Z " fill-rule="nonzero" fill="#f0f0f0" stroke="none" />
  <path d="M 166 1041.5  C 169.08 1041.5  171.5 1043.92  171.5 1047  C 171.5 1050.08  169.08 1052.5  166 1052.5  C 162.92 1052.5  160.5 1050.08  160.5 1047  C 160.5 1043.92  162.92 1041.5  166 1041.5  Z " stroke-width="1" stroke="#797979" fill="none" />
  <path d="M 166 1050  C 164.32 1050  163 1048.68  163 1047  C 163 1045.32  164.32 1044  166 1044  C 167.68 1044  169 1045.32  169 1047  C 169 1048.68  167.68 1050  166 1050  " fill-rule="nonzero" fill="#797979" stroke="none" />
</svg>