<?xml version="1.0" encoding="utf-8"?>
<svg version="1.1" xmlns:xlink="http://www.w3.org/1999/xlink" width="12px" height="12px" viewBox="281 1041  12 12" xmlns="http://www.w3.org/2000/svg">
  <path d="M 287 1041  C 290.36 1041  293 1043.64  293 1047  C 293 1050.36  290.36 1053  287 1053  C 283.64 1053  281 1050.36  281 1047  C 281 1043.64  283.64 1041  287 1041  Z " fill-rule="nonzero" fill="#ffffff" stroke="none" />
  <path d="M 287 1041.5  C 290.08 1041.5  292.5 1043.92  292.5 1047  C 292.5 1050.08  290.08 1052.5  287 1052.5  C 283.92 1052.5  281.5 1050.08  281.5 1047  C 281.5 1043.92  283.92 1041.5  287 1041.5  Z " stroke-width="1" stroke="#797979" fill="none" />
  <path d="M 287 1050  C 285.32 1050  284 1048.68  284 1047  C 284 1045.32  285.32 1044  287 1044  C 288.68 1044  290 1045.32  290 1047  C 290 1048.68  288.68 1050  287 1050  " fill-rule="nonzero" fill="#797979" stroke="none" />
</svg>