<?xml version="1.0" encoding="utf-8"?>
<svg version="1.1" xmlns:xlink="http://www.w3.org/1999/xlink" width="12px" height="12px" viewBox="289 321  12 12" xmlns="http://www.w3.org/2000/svg">
  <path d="M 295 321  C 298.36 321  301 323.64  301 327  C 301 330.36  298.36 333  295 333  C 291.64 333  289 330.36  289 327  C 289 323.64  291.64 321  295 321  Z " fill-rule="nonzero" fill="#ffffff" stroke="none" />
  <path d="M 295 321.5  C 298.08 321.5  300.5 323.92  300.5 327  C 300.5 330.08  298.08 332.5  295 332.5  C 291.92 332.5  289.5 330.08  289.5 327  C 289.5 323.92  291.92 321.5  295 321.5  Z " stroke-width="1" stroke="#797979" fill="none" />
  <path d="M 295 330  C 293.32 330  292 328.68  292 327  C 292 325.32  293.32 324  295 324  C 296.68 324  298 325.32  298 327  C 298 328.68  296.68 330  295 330  " fill-rule="nonzero" fill="#797979" stroke="none" />
</svg>