<?xml version="1.0" encoding="utf-8"?>
<svg version="1.1" xmlns:xlink="http://www.w3.org/1999/xlink" width="12px" height="12px" viewBox="210 321  12 12" xmlns="http://www.w3.org/2000/svg">
  <path d="M 216 321  C 219.36 321  222 323.64  222 327  C 222 330.36  219.36 333  216 333  C 212.64 333  210 330.36  210 327  C 210 323.64  212.64 321  216 321  Z " fill-rule="nonzero" fill="#f0f0f0" stroke="none" />
  <path d="M 216 321.5  C 219.08 321.5  221.5 323.92  221.5 327  C 221.5 330.08  219.08 332.5  216 332.5  C 212.92 332.5  210.5 330.08  210.5 327  C 210.5 323.92  212.92 321.5  216 321.5  Z " stroke-width="1" stroke="#797979" fill="none" />
  <path d="M 216 330  C 214.32 330  213 328.68  213 327  C 213 325.32  214.32 324  216 324  C 217.68 324  219 325.32  219 327  C 219 328.68  217.68 330  216 330  " fill-rule="nonzero" fill="#797979" stroke="none" />
</svg>