<?xml version="1.0" encoding="utf-8"?>
<svg version="1.1" xmlns:xlink="http://www.w3.org/1999/xlink" width="12px" height="12px" viewBox="469 384  12 12" xmlns="http://www.w3.org/2000/svg">
  <path d="M 475 384  C 478.36 384  481 386.64  481 390  C 481 393.36  478.36 396  475 396  C 471.64 396  469 393.36  469 390  C 469 386.64  471.64 384  475 384  Z " fill-rule="nonzero" fill="#f0f0f0" stroke="none" />
  <path d="M 475 384.5  C 478.08 384.5  480.5 386.92  480.5 390  C 480.5 393.08  478.08 395.5  475 395.5  C 471.92 395.5  469.5 393.08  469.5 390  C 469.5 386.92  471.92 384.5  475 384.5  Z " stroke-width="1" stroke="#797979" fill="none" />
  <path d="M 475 393  C 473.32 393  472 391.68  472 390  C 472 388.32  473.32 387  475 387  C 476.68 387  478 388.32  478 390  C 478 391.68  476.68 393  475 393  " fill-rule="nonzero" fill="#797979" stroke="none" />
</svg>