<?xml version="1.0" encoding="utf-8"?>
<svg version="1.1" xmlns:xlink="http://www.w3.org/1999/xlink" width="12px" height="12px" viewBox="863 384  12 12" xmlns="http://www.w3.org/2000/svg">
  <path d="M 869 384  C 872.36 384  875 386.64  875 390  C 875 393.36  872.36 396  869 396  C 865.64 396  863 393.36  863 390  C 863 386.64  865.64 384  869 384  Z " fill-rule="nonzero" fill="#ffffff" stroke="none" />
  <path d="M 869 384.5  C 872.08 384.5  874.5 386.92  874.5 390  C 874.5 393.08  872.08 395.5  869 395.5  C 865.92 395.5  863.5 393.08  863.5 390  C 863.5 386.92  865.92 384.5  869 384.5  Z " stroke-width="1" stroke="#797979" fill="none" />
  <path d="M 869 393  C 867.32 393  866 391.68  866 390  C 866 388.32  867.32 387  869 387  C 870.68 387  872 388.32  872 390  C 872 391.68  870.68 393  869 393  " fill-rule="nonzero" fill="#797979" stroke="none" />
</svg>