<?xml version="1.0" encoding="utf-8"?>
<svg version="1.1" xmlns:xlink="http://www.w3.org/1999/xlink" width="12px" height="12px" viewBox="364 384  12 12" xmlns="http://www.w3.org/2000/svg">
  <path d="M 370 384  C 373.36 384  376 386.64  376 390  C 376 393.36  373.36 396  370 396  C 366.64 396  364 393.36  364 390  C 364 386.64  366.64 384  370 384  Z " fill-rule="nonzero" fill="#f0f0f0" stroke="none" />
  <path d="M 370 384.5  C 373.08 384.5  375.5 386.92  375.5 390  C 375.5 393.08  373.08 395.5  370 395.5  C 366.92 395.5  364.5 393.08  364.5 390  C 364.5 386.92  366.92 384.5  370 384.5  Z " stroke-width="1" stroke="#797979" fill="none" />
  <path d="M 370 393  C 368.32 393  367 391.68  367 390  C 367 388.32  368.32 387  370 387  C 371.68 387  373 388.32  373 390  C 373 391.68  371.68 393  370 393  " fill-rule="nonzero" fill="#797979" stroke="none" />
</svg>