<?xml version="1.0" encoding="utf-8"?>
<svg version="1.1" xmlns:xlink="http://www.w3.org/1999/xlink" width="12px" height="12px" viewBox="863 352  12 12" xmlns="http://www.w3.org/2000/svg">
  <path d="M 869 352  C 872.36 352  875 354.64  875 358  C 875 361.36  872.36 364  869 364  C 865.64 364  863 361.36  863 358  C 863 354.64  865.64 352  869 352  Z " fill-rule="nonzero" fill="#f0f0f0" stroke="none" />
  <path d="M 869 352.5  C 872.08 352.5  874.5 354.92  874.5 358  C 874.5 361.08  872.08 363.5  869 363.5  C 865.92 363.5  863.5 361.08  863.5 358  C 863.5 354.92  865.92 352.5  869 352.5  Z " stroke-width="1" stroke="#797979" fill="none" />
  <path d="M 869 361  C 867.32 361  866 359.68  866 358  C 866 356.32  867.32 355  869 355  C 870.68 355  872 356.32  872 358  C 872 359.68  870.68 361  869 361  " fill-rule="nonzero" fill="#797979" stroke="none" />
</svg>