<?xml version="1.0" encoding="utf-8"?>
<svg version="1.1" xmlns:xlink="http://www.w3.org/1999/xlink" width="12px" height="12px" viewBox="44 206  12 12" xmlns="http://www.w3.org/2000/svg">
  <path d="M 50 206  C 53.36 206  56 208.64  56 212  C 56 215.36  53.36 218  50 218  C 46.64 218  44 215.36  44 212  C 44 208.64  46.64 206  50 206  Z " fill-rule="nonzero" fill="#ffffff" stroke="none" />
  <path d="M 50 206.5  C 53.08 206.5  55.5 208.92  55.5 212  C 55.5 215.08  53.08 217.5  50 217.5  C 46.92 217.5  44.5 215.08  44.5 212  C 44.5 208.92  46.92 206.5  50 206.5  Z " stroke-width="1" stroke="#797979" fill="none" />
  <path d="M 50 215  C 48.32 215  47 213.68  47 212  C 47 210.32  48.32 209  50 209  C 51.68 209  53 210.32  53 212  C 53 213.68  51.68 215  50 215  " fill-rule="nonzero" fill="#797979" stroke="none" />
</svg>