<?xml version="1.0" encoding="utf-8"?>
<svg version="1.1" xmlns:xlink="http://www.w3.org/1999/xlink" width="12px" height="12px" viewBox="934 128  12 12" xmlns="http://www.w3.org/2000/svg">
  <path d="M 940 128  C 943.36 128  946 130.64  946 134  C 946 137.36  943.36 140  940 140  C 936.64 140  934 137.36  934 134  C 934 130.64  936.64 128  940 128  Z " fill-rule="nonzero" fill="#ffffff" stroke="none" />
  <path d="M 940 128.5  C 943.08 128.5  945.5 130.92  945.5 134  C 945.5 137.08  943.08 139.5  940 139.5  C 936.92 139.5  934.5 137.08  934.5 134  C 934.5 130.92  936.92 128.5  940 128.5  Z " stroke-width="1" stroke="#797979" fill="none" />
  <path d="M 940 137  C 938.32 137  937 135.68  937 134  C 937 132.32  938.32 131  940 131  C 941.68 131  943 132.32  943 134  C 943 135.68  941.68 137  940 137  " fill-rule="nonzero" fill="#797979" stroke="none" />
</svg>