<?xml version="1.0" encoding="utf-8"?>
<svg version="1.1" xmlns:xlink="http://www.w3.org/1999/xlink" width="12px" height="12px" viewBox="1012 128  12 12" xmlns="http://www.w3.org/2000/svg">
  <path d="M 1018 128  C 1021.36 128  1024 130.64  1024 134  C 1024 137.36  1021.36 140  1018 140  C 1014.64 140  1012 137.36  1012 134  C 1012 130.64  1014.64 128  1018 128  Z " fill-rule="nonzero" fill="#ffffff" stroke="none" />
  <path d="M 1018 128.5  C 1021.08 128.5  1023.5 130.92  1023.5 134  C 1023.5 137.08  1021.08 139.5  1018 139.5  C 1014.92 139.5  1012.5 137.08  1012.5 134  C 1012.5 130.92  1014.92 128.5  1018 128.5  Z " stroke-width="1" stroke="#797979" fill="none" />
  <path d="M 1018 137  C 1016.32 137  1015 135.68  1015 134  C 1015 132.32  1016.32 131  1018 131  C 1019.68 131  1021 132.32  1021 134  C 1021 135.68  1019.68 137  1018 137  " fill-rule="nonzero" fill="#797979" stroke="none" />
</svg>