<?xml version="1.0" encoding="utf-8"?>
<svg version="1.1" xmlns:xlink="http://www.w3.org/1999/xlink" width="12px" height="12px" viewBox="863 128  12 12" xmlns="http://www.w3.org/2000/svg">
  <path d="M 869 128  C 872.36 128  875 130.64  875 134  C 875 137.36  872.36 140  869 140  C 865.64 140  863 137.36  863 134  C 863 130.64  865.64 128  869 128  Z " fill-rule="nonzero" fill="#f0f0f0" stroke="none" />
  <path d="M 869 128.5  C 872.08 128.5  874.5 130.92  874.5 134  C 874.5 137.08  872.08 139.5  869 139.5  C 865.92 139.5  863.5 137.08  863.5 134  C 863.5 130.92  865.92 128.5  869 128.5  Z " stroke-width="1" stroke="#797979" fill="none" />
  <path d="M 869 137  C 867.32 137  866 135.68  866 134  C 866 132.32  867.32 131  869 131  C 870.68 131  872 132.32  872 134  C 872 135.68  870.68 137  869 137  " fill-rule="nonzero" fill="#797979" stroke="none" />
</svg>