<?xml version="1.0" encoding="utf-8"?>
<svg version="1.1" xmlns:xlink="http://www.w3.org/1999/xlink" width="12px" height="12px" viewBox="863 320  12 12" xmlns="http://www.w3.org/2000/svg">
  <path d="M 869 320  C 872.36 320  875 322.64  875 326  C 875 329.36  872.36 332  869 332  C 865.64 332  863 329.36  863 326  C 863 322.64  865.64 320  869 320  Z " fill-rule="nonzero" fill="#f0f0f0" stroke="none" />
  <path d="M 869 320.5  C 872.08 320.5  874.5 322.92  874.5 326  C 874.5 329.08  872.08 331.5  869 331.5  C 865.92 331.5  863.5 329.08  863.5 326  C 863.5 322.92  865.92 320.5  869 320.5  Z " stroke-width="1" stroke="#797979" fill="none" />
  <path d="M 869 329  C 867.32 329  866 327.68  866 326  C 866 324.32  867.32 323  869 323  C 870.68 323  872 324.32  872 326  C 872 327.68  870.68 329  869 329  " fill-rule="nonzero" fill="#797979" stroke="none" />
</svg>