<?xml version="1.0" encoding="utf-8"?>
<svg version="1.1" xmlns:xlink="http://www.w3.org/1999/xlink" width="54px" height="54px" xmlns="http://www.w3.org/2000/svg">
  <g transform="matrix(1 0 0 1 -984 -170 )">
    <path d="M 1011 170  C 1026.12 170  1038 181.88  1038 197  C 1038 212.12  1026.12 224  1011 224  C 995.88 224  984 212.12  984 197  C 984 181.88  995.88 170  1011 170  Z " fill-rule="nonzero" fill="#f2f2f2" stroke="none" />
    <path d="M 1011 170.5  C 1025.84 170.5  1037.5 182.16  1037.5 197  C 1037.5 211.84  1025.84 223.5  1011 223.5  C 996.16 223.5  984.5 211.84  984.5 197  C 984.5 182.16  996.16 170.5  1011 170.5  Z " stroke-width="1" stroke="#797979" fill="none" />
  </g>
</svg>