<?xml version="1.0" encoding="utf-8"?>
<svg version="1.1" xmlns:xlink="http://www.w3.org/1999/xlink" width="12px" height="12px" viewBox="264 252  12 12" xmlns="http://www.w3.org/2000/svg">
  <path d="M 270 252  C 273.36 252  276 254.64  276 258  C 276 261.36  273.36 264  270 264  C 266.64 264  264 261.36  264 258  C 264 254.64  266.64 252  270 252  Z " fill-rule="nonzero" fill="#ffffff" stroke="none" />
  <path d="M 270 252.5  C 273.08 252.5  275.5 254.92  275.5 258  C 275.5 261.08  273.08 263.5  270 263.5  C 266.92 263.5  264.5 261.08  264.5 258  C 264.5 254.92  266.92 252.5  270 252.5  Z " stroke-width="1" stroke="#797979" fill="none" />
  <path d="M 270 261  C 268.32 261  267 259.68  267 258  C 267 256.32  268.32 255  270 255  C 271.68 255  273 256.32  273 258  C 273 259.68  271.68 261  270 261  " fill-rule="nonzero" fill="#797979" stroke="none" />
</svg>